<?xml version="1.0" encoding="utf-8"?>
<!-- Generator: Adobe Illustrator 19.0.1, SVG Export Plug-In . SVG Version: 6.00 Build 0)  -->
<svg version="1.1" id="Layer_1" xmlns="http://www.w3.org/2000/svg" xmlns:xlink="http://www.w3.org/1999/xlink" x="0px" y="0px"
	 viewBox="-255 334 100 125" style="enable-background:new -255 334 100 125;" xml:space="preserve">
<style type="text/css">
	.st0{fill:none;}
</style>
<g>
	<path class="st0" d="M-169.1,360.5c3.3-1.9,6.7-3.7,10.1-5.5c-2-0.1-4.1-0.2-6.1-0.1C-166.7,356.7-168,358.5-169.1,360.5z"/>
	<path class="st0" d="M-160.9,350.4c-1.5-1.3-2.9-2.7-4.4-4c0.2,1.3,0.4,2.7,0.7,4C-163.4,350.3-162.2,350.3-160.9,350.4z"/>
	<path d="M-152.2,351c-6.2-3-10.2-9.1-16-12.7c-2.5-1.6-5.4,2-2.9,3.6c0.3,0.2,0.5,0.4,0.8,0.5c0,0.1,0,0.1,0,0.2
		c0,2.7,0.4,5.3,1,7.9c-15.4,0.9-30.6,5.4-43.7,13.4c-8.1,5-15.3,11.7-20.3,19.8c-5.2,8.5-6.8,18.4-7.6,28.2
		c-0.2,2.9,4.3,3.7,4.6,0.7c0.8-9,2.1-18,6.6-26c4.5-7.9,11.8-14.2,19.5-19c11.5-7.2,25.3-11.4,39.1-12.5c-2.1,3-3.6,6.2-4.7,9.6
		c-0.2,0.1-0.3,0.2-0.5,0.4c-1.3,0.9-1.1,2.4-0.3,3.4c0.4,2.1,4,2.3,4.6-0.2c0-0.2,0.1-0.4,0.1-0.6c6.1-4.1,12.8-7.3,19.3-10.8
		c1-0.5,1.4-1.5,1.3-2.5C-150.6,353.3-150.8,351.7-152.2,351z M-160.9,350.4c-1.2,0-2.4,0-3.7,0c-0.3-1.3-0.6-2.6-0.7-4
		C-163.9,347.7-162.4,349.1-160.9,350.4z M-169.1,360.5c1.1-2,2.4-3.8,4-5.6c2.1,0,4.1,0,6.1,0.1
		C-162.3,356.8-165.7,358.6-169.1,360.5z"/>
</g>
</svg>
