<?xml version="1.0" encoding="utf-8"?>
<!-- Generator: Adobe Illustrator 19.0.1, SVG Export Plug-In . SVG Version: 6.00 Build 0)  -->
<svg version="1.1" id="Layer_1" xmlns="http://www.w3.org/2000/svg" xmlns:xlink="http://www.w3.org/1999/xlink" x="0px" y="0px"
	 viewBox="-255 334 100 125" style="enable-background:new -255 334 100 125;" xml:space="preserve">
<g>
	<path d="M-232.3,411.3c0.8,0.8,1.8,1.2,2.8,1.2s2-0.4,2.8-1.2l21.7-21.6l21.7,21.7c0.8,0.8,1.8,1.2,2.8,1.2s2-0.4,2.8-1.2
		c1.6-1.6,1.6-4.1,0-5.7l-21.6-21.7l21.7-21.7c1.6-1.6,1.6-4.1,0-5.7c-1.6-1.6-4.1-1.6-5.7,0l-21.7,21.7l-21.7-21.6
		c-1.6-1.6-4.1-1.6-5.7,0c-1.6,1.6-1.6,4.1,0,5.7l21.7,21.6l-21.6,21.7C-233.9,407.2-233.9,409.8-232.3,411.3z"/>
</g>
</svg>
