<?xml version="1.0" encoding="utf-8"?>
<!-- Generator: Adobe Illustrator 19.0.1, SVG Export Plug-In . SVG Version: 6.00 Build 0)  -->
<svg version="1.1"
	 id="Layer_1" xmlns:dc="http://purl.org/dc/elements/1.1/" xmlns:cc="http://creativecommons.org/ns#" xmlns:rdf="http://www.w3.org/1999/02/22-rdf-syntax-ns#" xmlns:svg="http://www.w3.org/2000/svg" xmlns:sodipodi="http://sodipodi.sourceforge.net/DTD/sodipodi-0.dtd" xmlns:inkscape="http://www.inkscape.org/namespaces/inkscape"
	 xmlns="http://www.w3.org/2000/svg" xmlns:xlink="http://www.w3.org/1999/xlink" x="0px" y="0px" viewBox="-255 334 100 125"
	 style="enable-background:new -255 334 100 125;" xml:space="preserve">
<g transform="translate(0,-952.36218)">
	<path d="M-225,1292.4c-1.1,0-2,0.9-2,2v9.3c-2.9,0.9-5,3.5-5,6.7c0,3.8,3.2,7,7,7s7-3.2,7-7c0-3.1-2.1-5.8-5-6.7v-9.3
		C-223,1293.3-223.9,1292.4-225,1292.4z M-185,1292.4c-1.1,0-2,0.9-2,2v9.3c-2.9,0.9-5,3.5-5,6.7c0,3.8,3.2,7,7,7s7-3.2,7-7
		c0-3.1-2.1-5.8-5-6.7v-9.3C-183,1293.3-183.9,1292.4-185,1292.4z M-237,1296.4c-5.5,0-10,4.5-10,10v63.9c0,5.5,4.5,10,10,10h63.9
		c5.5,0,10-4.5,10-10v-63.9c0-5.5-4.5-10-10-10h-6c-1.1,0-2,0.9-2,2c0,1.1,1,2,2,2h6c3.4,0,6,2.7,6,6v14h-76v-14c0-3.4,2.7-6,6-6h6
		c1.1,0,2-0.9,2-2c0-1.1-1-2-2-2H-237z M-219.2,1296.4c-1,0-2,1-1.9,2.1c0,1,1,2,2.1,1.9h28c1.1,0,2-0.9,2-2c0-1.1-1-2-2-2H-219.2z
		 M-225,1307.4c1.7,0,3,1.3,3,3s-1.3,3-3,3s-3-1.3-3-3S-226.7,1307.4-225,1307.4z M-185,1307.4c1.7,0,3,1.3,3,3s-1.3,3-3,3
		s-3-1.3-3-3S-186.7,1307.4-185,1307.4z M-243,1324.4h76v46c0,3.4-2.7,6-6,6H-237c-3.4,0-6-2.7-6-6V1324.4z M-209,1339.4
		c-0.5,0-1,0.2-1.4,0.6c-3.2,3.3-6.7,6.6-9.9,9.9c-0.4,0.4-0.7,0.9-0.7,1.5c0,0.6,0.3,1.1,0.7,1.5c3.3,3.3,6.6,6.6,9.9,9.9
		c0.8,0.8,2,0.8,2.8,0c0.8-0.8,0.8-2,0-2.8l-6.6-6.6h23.2c1.1,0,2-0.9,2-2s-0.9-2-2-2h-23.2l6.6-6.6c0.8-0.8,0.8-2,0-2.8
		C-208,1339.6-208.5,1339.4-209,1339.4L-209,1339.4z"/>
</g>
</svg>
