<?xml version="1.0" encoding="utf-8"?>
<!-- Generator: Adobe Illustrator 19.0.1, SVG Export Plug-In . SVG Version: 6.00 Build 0)  -->
<svg version="1.1" id="Layer_1" xmlns="http://www.w3.org/2000/svg" xmlns:xlink="http://www.w3.org/1999/xlink" x="0px" y="0px"
	 viewBox="0 0 612 792" style="enable-background:new 0 0 612 792;" xml:space="preserve">
<style type="text/css">
	.st0{fill:#FFFFFF;}
	.st1{fill:none;}
	.st2{fill:#F7EC3D;}
	.st3{fill:#7CC360;}
	.st4{fill:#262A2C;}
	.st5{fill:#70CDE0;}
</style>
<circle class="st0" cx="306.1" cy="395.9" r="145.7"/>
<g>
	<path class="st1" d="M359.3,359.7c-0.3,0-1.5,1.4-1.5,4.3c0,2.9,1.2,4.3,1.5,4.3s1.5-1.4,1.5-4.3
		C360.8,361.1,359.6,359.7,359.3,359.7z"/>
	<path class="st1" d="M359.3,334.7c-0.3,0-1.5,1.4-1.5,4.3c0,2.9,1.2,4.3,1.5,4.3s1.5-1.4,1.5-4.3
		C360.8,336.1,359.6,334.7,359.3,334.7z"/>
	<path class="st1" d="M359.3,384.7c-0.3,0-1.5,1.4-1.5,4.3c0,2.9,1.2,4.3,1.5,4.3s1.5-1.4,1.5-4.3
		C360.8,386.2,359.6,384.7,359.3,384.7z"/>
	<path class="st1" d="M334.1,434.8c-0.3,0-1.5,1.4-1.5,4.3c0,2.9,1.2,4.3,1.5,4.3c0.3,0,1.5-1.4,1.5-4.3
		C335.6,436.3,334.4,434.8,334.1,434.8z"/>
	<path class="st1" d="M334.1,309.6c-0.3,0-1.5,1.4-1.5,4.3c0,2.9,1.2,4.3,1.5,4.3c0.3,0,1.5-1.4,1.5-4.3
		C335.6,311,334.4,309.6,334.1,309.6z"/>
	<path class="st1" d="M334.1,334.7C334.1,334.7,334.1,334.7,334.1,334.7c0.1,0.1,0.3,0.3,0.5,0.4
		C334.4,334.8,334.2,334.7,334.1,334.7z"/>
	<path class="st1" d="M258.4,334.7c-0.3,0-1.5,1.4-1.5,4.3c0,2.9,1.2,4.3,1.5,4.3c0.3,0,1.5-1.4,1.5-4.3
		C259.9,336.1,258.7,334.7,258.4,334.7z"/>
	<path class="st1" d="M334.1,418.4c0.3,0,1.4-1.3,1.5-3.9c-0.8,0.7-1.7,1.5-2.6,2.2C333.3,417.8,333.9,418.4,334.1,418.4z"/>
	<path class="st1" d="M258.4,409.8c-0.3,0-1.5,1.4-1.5,4.3c0,2.9,1.2,4.3,1.5,4.3c0.3,0,1.5-1.4,1.5-4.3
		C259.9,411.2,258.7,409.8,258.4,409.8z"/>
	<path class="st1" d="M359.3,309.6c-0.3,0-1.5,1.4-1.5,4.3c0,2.9,1.2,4.3,1.5,4.3s1.5-1.4,1.5-4.3
		C360.8,311,359.6,309.6,359.3,309.6z"/>
	<path class="st1" d="M334.1,284.6c-0.3,0-1.5,1.4-1.5,4.3c0,2.9,1.2,4.3,1.5,4.3c0.3,0,1.5-1.4,1.5-4.3
		C335.6,286,334.4,284.6,334.1,284.6z"/>
	<path class="st1" d="M208,409.8c-0.3,0-1.5,1.4-1.5,4.3c0,2.9,1.2,4.3,1.5,4.3c0.3,0,1.5-1.4,1.5-4.3
		C209.5,411.2,208.2,409.8,208,409.8z"/>
	<path class="st1" d="M359.3,409.8c-0.3,0-1.5,1.4-1.5,4.3c0,2.9,1.2,4.3,1.5,4.3s1.5-1.4,1.5-4.3
		C360.8,411.2,359.6,409.8,359.3,409.8z"/>
	<path class="st1" d="M283.6,309.6c-0.3,0-1.5,1.4-1.5,4.3c0,2.9,1.2,4.3,1.5,4.3c0.3,0,1.5-1.4,1.5-4.3
		C285.1,311,283.9,309.6,283.6,309.6z"/>
	<path class="st1" d="M283.6,284.6c-0.3,0-1.5,1.4-1.5,4.3c0,2.9,1.2,4.3,1.5,4.3c0.3,0,1.5-1.4,1.5-4.3
		C285.1,286,283.9,284.6,283.6,284.6z"/>
	<path class="st1" d="M208,384.7c-0.3,0-1.5,1.4-1.5,4.3c0,2.9,1.2,4.3,1.5,4.3c0.3,0,1.5-1.4,1.5-4.3
		C209.5,386.2,208.2,384.7,208,384.7z"/>
	<path class="st1" d="M283.6,459.9c-0.3,0-1.5,1.4-1.5,4.3c0,2.9,1.2,4.3,1.5,4.3c0.3,0,1.5-1.4,1.5-4.3
		C285.1,461.3,283.9,459.9,283.6,459.9z"/>
	<path class="st1" d="M258.4,434.8c-0.3,0-1.5,1.4-1.5,4.3c0,2.9,1.2,4.3,1.5,4.3c0.3,0,1.5-1.4,1.5-4.3
		C259.9,436.3,258.7,434.8,258.4,434.8z"/>
	<path class="st1" d="M258.4,309.6c-0.3,0-1.5,1.4-1.5,4.3c0,2.9,1.2,4.3,1.5,4.3c0.3,0,1.5-1.4,1.5-4.3
		C259.9,311,258.7,309.6,258.4,309.6z"/>
	<path class="st1" d="M233.2,384.7c-0.3,0-1.5,1.4-1.5,4.3c0,2.9,1.2,4.3,1.5,4.3c0.3,0,1.5-1.4,1.5-4.3
		C234.7,386.2,233.5,384.7,233.2,384.7z"/>
	<path class="st1" d="M233.2,409.8c-0.3,0-1.5,1.4-1.5,4.3c0,2.9,1.2,4.3,1.5,4.3c0.3,0,1.5-1.4,1.5-4.3
		C234.7,411.2,233.5,409.8,233.2,409.8z"/>
	<path class="st1" d="M384.5,334.7c-0.3,0-1.5,1.4-1.5,4.3c0,2.9,1.2,4.3,1.5,4.3c0.3,0,1.5-1.4,1.5-4.3
		C386,336.1,384.8,334.7,384.5,334.7z"/>
	<path class="st1" d="M283.6,434.8c-0.3,0-1.5,1.4-1.5,4.3c0,2.9,1.2,4.3,1.5,4.3c0.3,0,1.5-1.4,1.5-4.3
		C285.1,436.3,283.9,434.8,283.6,434.8z"/>
	<path class="st1" d="M233.2,309.6c-0.3,0-1.5,1.4-1.5,4.3c0,2.9,1.2,4.3,1.5,4.3c0.3,0,1.5-1.4,1.5-4.3
		C234.7,311,233.5,309.6,233.2,309.6z"/>
	<path class="st1" d="M233.2,334.7c-0.3,0-1.5,1.4-1.5,4.3c0,2.9,1.2,4.3,1.5,4.3c0.3,0,1.5-1.4,1.5-4.3
		C234.7,336.1,233.5,334.7,233.2,334.7z"/>
	<path class="st1" d="M258.4,459.9c-0.3,0-1.5,1.4-1.5,4.3c0,2.9,1.2,4.3,1.5,4.3c0.3,0,1.5-1.4,1.5-4.3
		C259.9,461.3,258.7,459.9,258.4,459.9z"/>
	<path class="st1" d="M233.2,359.7c-0.3,0-1.5,1.4-1.5,4.3c0,2.9,1.2,4.3,1.5,4.3c0.3,0,1.5-1.4,1.5-4.3
		C234.7,361.1,233.5,359.7,233.2,359.7z"/>
	<path class="st1" d="M384.5,359.7c-0.3,0-1.5,1.4-1.5,4.3c0,2.9,1.2,4.3,1.5,4.3c0.3,0,1.5-1.4,1.5-4.3
		C386,361.1,384.8,359.7,384.5,359.7z"/>
	<path class="st1" d="M308.9,309.6c-0.3,0-1.5,1.4-1.5,4.3c0,2.9,1.2,4.3,1.5,4.3s1.5-1.4,1.5-4.3
		C310.4,311,309.2,309.6,308.9,309.6z"/>
	<path class="st1" d="M233.2,434.8c-0.3,0-1.5,1.4-1.5,4.3c0,2.9,1.2,4.3,1.5,4.3c0.3,0,1.5-1.4,1.5-4.3
		C234.7,436.3,233.5,434.8,233.2,434.8z"/>
	<path class="st1" d="M308.9,434.8c-0.3,0-1.5,1.4-1.5,4.3c0,2.9,1.2,4.3,1.5,4.3s1.5-1.4,1.5-4.3
		C310.4,436.3,309.2,434.8,308.9,434.8z"/>
	<path class="st1" d="M308.9,459.9c-0.3,0-1.5,1.4-1.5,4.3c0,2.9,1.2,4.3,1.5,4.3s1.5-1.4,1.5-4.3
		C310.4,461.3,309.2,459.9,308.9,459.9z"/>
	<path class="st1" d="M384.5,384.7c-0.3,0-1.5,1.4-1.5,4.3c0,2.9,1.2,4.3,1.5,4.3c0.3,0,1.5-1.4,1.5-4.3
		C386,386.2,384.8,384.7,384.5,384.7z"/>
	<path class="st1" d="M308.9,284.6c-0.3,0-1.5,1.4-1.5,4.3c0,2.9,1.2,4.3,1.5,4.3s1.5-1.4,1.5-4.3
		C310.4,286,309.2,284.6,308.9,284.6z"/>
	<path class="st2" d="M233.2,305.9c-3,0-5.2,3.5-5.2,8s2.2,8,5.2,8c3,0,5.2-3.4,5.2-8S236.2,305.9,233.2,305.9z M233.2,318.2
		c-0.3,0-1.5-1.4-1.5-4.3c0-2.9,1.2-4.3,1.5-4.3c0.3,0,1.5,1.4,1.5,4.3C234.7,316.8,233.5,318.2,233.2,318.2z"/>
	<path class="st2" d="M245.8,306.1c-1,0-1.9,0.8-1.9,1.9v12.1c0,1,0.8,1.9,1.9,1.9c1,0,1.9-0.8,1.9-1.9v-12.1
		C247.7,306.9,246.8,306.1,245.8,306.1z"/>
	<path class="st2" d="M258.4,305.9c-3,0-5.2,3.5-5.2,8s2.2,8,5.2,8c3,0,5.2-3.4,5.2-8S261.4,305.9,258.4,305.9z M258.4,318.2
		c-0.3,0-1.5-1.4-1.5-4.3c0-2.9,1.2-4.3,1.5-4.3c0.3,0,1.5,1.4,1.5,4.3C259.9,316.8,258.7,318.2,258.4,318.2z"/>
	<path class="st2" d="M271,306.1c-1,0-1.9,0.8-1.9,1.9v12.1c0,1,0.8,1.9,1.9,1.9c1,0,1.9-0.8,1.9-1.9v-12.1
		C272.9,306.9,272,306.1,271,306.1z"/>
	<path class="st2" d="M283.6,305.9c-3,0-5.2,3.5-5.2,8s2.2,8,5.2,8c3,0,5.2-3.4,5.2-8S286.6,305.9,283.6,305.9z M283.6,318.2
		c-0.3,0-1.5-1.4-1.5-4.3c0-2.9,1.2-4.3,1.5-4.3c0.3,0,1.5,1.4,1.5,4.3C285.1,316.8,283.9,318.2,283.6,318.2z"/>
	<path class="st2" d="M296.3,306.1c-1,0-1.9,0.8-1.9,1.9v12.1c0,1,0.8,1.9,1.9,1.9s1.9-0.8,1.9-1.9v-12.1
		C298.1,306.9,297.3,306.1,296.3,306.1z"/>
	<path class="st2" d="M308.9,305.9c-3,0-5.2,3.5-5.2,8s2.2,8,5.2,8c3,0,5.2-3.4,5.2-8S311.8,305.9,308.9,305.9z M308.9,318.2
		c-0.3,0-1.5-1.4-1.5-4.3c0-2.9,1.2-4.3,1.5-4.3s1.5,1.4,1.5,4.3C310.4,316.8,309.2,318.2,308.9,318.2z"/>
	<path class="st2" d="M321.5,306.1c-1,0-1.9,0.8-1.9,1.9v12.1c0,1,0.8,1.9,1.9,1.9s1.9-0.8,1.9-1.9v-12.1
		C323.3,306.9,322.5,306.1,321.5,306.1z"/>
	<path class="st2" d="M334.1,305.9c-3,0-5.2,3.5-5.2,8s2.2,8,5.2,8c3,0,5.2-3.4,5.2-8S337.1,305.9,334.1,305.9z M334.1,318.2
		c-0.3,0-1.5-1.4-1.5-4.3c0-2.9,1.2-4.3,1.5-4.3c0.3,0,1.5,1.4,1.5,4.3C335.6,316.8,334.4,318.2,334.1,318.2z"/>
	<path class="st2" d="M346.7,306.1c-1,0-1.9,0.8-1.9,1.9v12.1c0,1,0.8,1.9,1.9,1.9s1.9-0.8,1.9-1.9v-12.1
		C348.6,306.9,347.7,306.1,346.7,306.1z"/>
	<path class="st2" d="M359.3,305.9c-3,0-5.2,3.5-5.2,8s2.2,8,5.2,8c3,0,5.2-3.4,5.2-8S362.3,305.9,359.3,305.9z M359.3,318.2
		c-0.3,0-1.5-1.4-1.5-4.3c0-2.9,1.2-4.3,1.5-4.3s1.5,1.4,1.5,4.3C360.8,316.8,359.6,318.2,359.3,318.2z"/>
	<path class="st2" d="M371.9,306.1c-1,0-1.9,0.8-1.9,1.9v12.1c0,1,0.8,1.9,1.9,1.9c1,0,1.9-0.8,1.9-1.9v-12.1
		C373.8,306.9,373,306.1,371.9,306.1z"/>
	<path class="st2" d="M271,281c-1,0-1.9,0.8-1.9,1.9v12.1c0,1,0.8,1.9,1.9,1.9c1,0,1.9-0.8,1.9-1.9v-12.1
		C272.9,281.9,272,281,271,281z"/>
	<path class="st2" d="M283.6,280.9c-3,0-5.2,3.5-5.2,8s2.2,8,5.2,8c3,0,5.2-3.4,5.2-8S286.6,280.9,283.6,280.9z M283.6,293.2
		c-0.3,0-1.5-1.4-1.5-4.3c0-2.9,1.2-4.3,1.5-4.3c0.3,0,1.5,1.4,1.5,4.3C285.1,291.8,283.9,293.2,283.6,293.2z"/>
	<path class="st2" d="M296.3,281c-1,0-1.9,0.8-1.9,1.9v12.1c0,1,0.8,1.9,1.9,1.9s1.9-0.8,1.9-1.9v-12.1
		C298.1,281.9,297.3,281,296.3,281z"/>
	<path class="st2" d="M308.9,280.9c-3,0-5.2,3.5-5.2,8s2.2,8,5.2,8c3,0,5.2-3.4,5.2-8S311.8,280.9,308.9,280.9z M308.9,293.2
		c-0.3,0-1.5-1.4-1.5-4.3c0-2.9,1.2-4.3,1.5-4.3s1.5,1.4,1.5,4.3C310.4,291.8,309.2,293.2,308.9,293.2z"/>
	<path class="st2" d="M321.5,281c-1,0-1.9,0.8-1.9,1.9v12.1c0,1,0.8,1.9,1.9,1.9s1.9-0.8,1.9-1.9v-12.1
		C323.3,281.9,322.5,281,321.5,281z"/>
	<path class="st2" d="M334.1,280.9c-3,0-5.2,3.5-5.2,8s2.2,8,5.2,8c3,0,5.2-3.4,5.2-8S337.1,280.9,334.1,280.9z M334.1,293.2
		c-0.3,0-1.5-1.4-1.5-4.3c0-2.9,1.2-4.3,1.5-4.3c0.3,0,1.5,1.4,1.5,4.3C335.6,291.8,334.4,293.2,334.1,293.2z"/>
	<path class="st2" d="M233.2,330.9c-3,0-5.2,3.4-5.2,8c0,4.6,2.2,8,5.2,8c3,0,5.2-3.4,5.2-8C238.4,334.4,236.2,330.9,233.2,330.9z
		 M233.2,343.3c-0.3,0-1.5-1.4-1.5-4.3c0-2.9,1.2-4.3,1.5-4.3c0.3,0,1.5,1.4,1.5,4.3C234.7,341.8,233.5,343.3,233.2,343.3z"/>
	<path class="st2" d="M245.8,331.1c-1,0-1.9,0.8-1.9,1.9v12.1c0,1,0.8,1.9,1.9,1.9c1,0,1.9-0.8,1.9-1.9V333
		C247.7,332,246.8,331.1,245.8,331.1z"/>
	<path class="st3" d="M258.4,330.9c-3,0-5.2,3.4-5.2,8c0,3.9,1.6,6.9,3.9,7.8c1.9-2.9,4.1-5.6,6.5-8.2
		C263.5,334.2,261.3,330.9,258.4,330.9z M258.4,343.3c-0.3,0-1.5-1.4-1.5-4.3c0-2.9,1.2-4.3,1.5-4.3c0.3,0,1.5,1.4,1.5,4.3
		C259.9,341.8,258.7,343.3,258.4,343.3z"/>
	<path class="st3" d="M269.2,333v0.7c0.2-0.1,0.3-0.3,0.5-0.4c0.8-0.6,1.7-1.2,2.5-1.8c-0.3-0.3-0.7-0.4-1.1-0.4
		C270,331.1,269.2,332,269.2,333z"/>
	<path class="st3" d="M346.7,331.1c-1,0-1.9,0.8-1.9,1.9v12.1c0,1,0.8,1.9,1.9,1.9s1.9-0.8,1.9-1.9V333
		C348.6,332,347.7,331.1,346.7,331.1z"/>
	<path class="st2" d="M359.3,330.9c-3,0-5.2,3.4-5.2,8c0,4.6,2.2,8,5.2,8c3,0,5.2-3.4,5.2-8C364.5,334.4,362.3,330.9,359.3,330.9z
		 M359.3,343.3c-0.3,0-1.5-1.4-1.5-4.3c0-2.9,1.2-4.3,1.5-4.3s1.5,1.4,1.5,4.3C360.8,341.8,359.6,343.3,359.3,343.3z"/>
	<path class="st2" d="M371.9,331.1c-1,0-1.9,0.8-1.9,1.9v12.1c0,1,0.8,1.9,1.9,1.9c1,0,1.9-0.8,1.9-1.9V333
		C373.8,332,373,331.1,371.9,331.1z"/>
	<path class="st2" d="M384.5,330.9c-3,0-5.2,3.4-5.2,8c0,4.6,2.2,8,5.2,8c3,0,5.2-3.4,5.2-8C389.8,334.4,387.5,330.9,384.5,330.9z
		 M384.5,343.3c-0.3,0-1.5-1.4-1.5-4.3c0-2.9,1.2-4.3,1.5-4.3c0.3,0,1.5,1.4,1.5,4.3C386,341.8,384.8,343.3,384.5,343.3z"/>
	<path class="st2" d="M220.6,356.2c-1,0-1.9,0.8-1.9,1.9v12.1c0,1,0.8,1.9,1.9,1.9c1,0,1.9-0.8,1.9-1.9V358
		C222.4,357,221.6,356.2,220.6,356.2z"/>
	<path class="st2" d="M233.2,356c-3,0-5.2,3.4-5.2,8s2.2,8,5.2,8c3,0,5.2-3.5,5.2-8S236.2,356,233.2,356z M233.2,368.3
		c-0.3,0-1.5-1.4-1.5-4.3c0-2.9,1.2-4.3,1.5-4.3c0.3,0,1.5,1.4,1.5,4.3C234.7,366.9,233.5,368.3,233.2,368.3z"/>
	<path class="st3" d="M245.8,356.2c-1,0-1.9,0.8-1.9,1.9v12.1c0,1,0.8,1.9,1.9,1.9c1,0,1.9-0.8,1.9-1.9V358
		C247.7,357,246.8,356.2,245.8,356.2z"/>
	<path class="st3" d="M359.3,356c-3,0-5.2,3.4-5.2,8s2.2,8,5.2,8c3,0,5.2-3.5,5.2-8S362.3,356,359.3,356z M359.3,368.3
		c-0.3,0-1.5-1.4-1.5-4.3c0-2.9,1.2-4.3,1.5-4.3s1.5,1.4,1.5,4.3C360.8,366.9,359.6,368.3,359.3,368.3z"/>
	<path class="st2" d="M371.9,356.2c-1,0-1.9,0.8-1.9,1.9v12.1c0,1,0.8,1.9,1.9,1.9c1,0,1.9-0.8,1.9-1.9V358
		C373.8,357,373,356.2,371.9,356.2z"/>
	<path class="st2" d="M384.5,356c-3,0-5.2,3.4-5.2,8s2.2,8,5.2,8c3,0,5.2-3.5,5.2-8S387.5,356,384.5,356z M384.5,368.3
		c-0.3,0-1.5-1.4-1.5-4.3c0-2.9,1.2-4.3,1.5-4.3c0.3,0,1.5,1.4,1.5,4.3C386,366.9,384.8,368.3,384.5,368.3z"/>
	<path class="st2" d="M208,381c-3,0-5.2,3.4-5.2,8s2.2,8,5.2,8c3,0,5.2-3.5,5.2-8S210.9,381,208,381z M208,393.4
		c-0.3,0-1.5-1.4-1.5-4.3c0-2.9,1.2-4.3,1.5-4.3c0.3,0,1.5,1.4,1.5,4.3C209.5,391.9,208.2,393.4,208,393.4z"/>
	<path class="st2" d="M220.6,381.2c-1,0-1.9,0.8-1.9,1.9v12.1c0,1,0.8,1.9,1.9,1.9c1,0,1.9-0.8,1.9-1.9v-12.1
		C222.4,382.1,221.6,381.2,220.6,381.2z"/>
	<path class="st2" d="M233.2,381c-3,0-5.2,3.4-5.2,8s2.2,8,5.2,8c3,0,5.2-3.5,5.2-8S236.2,381,233.2,381z M233.2,393.4
		c-0.3,0-1.5-1.4-1.5-4.3c0-2.9,1.2-4.3,1.5-4.3c0.3,0,1.5,1.4,1.5,4.3C234.7,391.9,233.5,393.4,233.2,393.4z"/>
	<path class="st3" d="M245.8,381.2c-1,0-1.9,0.8-1.9,1.9v12.1c0,1,0.8,1.9,1.9,1.9c1,0,1.9-0.8,1.9-1.9v-12.1
		C247.7,382.1,246.8,381.2,245.8,381.2z"/>
	<path class="st3" d="M359.3,381c-3,0-5.2,3.4-5.2,8s2.2,8,5.2,8c3,0,5.2-3.5,5.2-8S362.3,381,359.3,381z M359.3,393.4
		c-0.3,0-1.5-1.4-1.5-4.3c0-2.9,1.2-4.3,1.5-4.3s1.5,1.4,1.5,4.3C360.8,391.9,359.6,393.4,359.3,393.4z"/>
	<path class="st2" d="M371.9,381.2c-1,0-1.9,0.8-1.9,1.9v12.1c0,1,0.8,1.9,1.9,1.9c1,0,1.9-0.8,1.9-1.9v-12.1
		C373.8,382.1,373,381.2,371.9,381.2z"/>
	<path class="st2" d="M384.5,381c-3,0-5.2,3.4-5.2,8s2.2,8,5.2,8c3,0,5.2-3.5,5.2-8S387.5,381,384.5,381z M384.5,393.4
		c-0.3,0-1.5-1.4-1.5-4.3c0-2.9,1.2-4.3,1.5-4.3c0.3,0,1.5,1.4,1.5,4.3C386,391.9,384.8,393.4,384.5,393.4z"/>
	<path class="st2" d="M208,406.1c-3,0-5.2,3.4-5.2,8c0,4.6,2.2,8,5.2,8c3,0,5.2-3.4,5.2-8C213.2,409.5,210.9,406.1,208,406.1z
		 M208,418.4c-0.3,0-1.5-1.4-1.5-4.3c0-2.9,1.2-4.3,1.5-4.3c0.3,0,1.5,1.4,1.5,4.3C209.5,417,208.2,418.4,208,418.4z"/>
	<path class="st2" d="M220.6,406.3c-1,0-1.9,0.8-1.9,1.9v12.1c0,1,0.8,1.9,1.9,1.9c1,0,1.9-0.8,1.9-1.9v-12.1
		C222.4,407.1,221.6,406.3,220.6,406.3z"/>
	<path class="st2" d="M233.2,406.1c-3,0-5.2,3.4-5.2,8c0,4.6,2.2,8,5.2,8c3,0,5.2-3.4,5.2-8C238.4,409.5,236.2,406.1,233.2,406.1z
		 M233.2,418.4c-0.3,0-1.5-1.4-1.5-4.3c0-2.9,1.2-4.3,1.5-4.3c0.3,0,1.5,1.4,1.5,4.3C234.7,417,233.5,418.4,233.2,418.4z"/>
	<path class="st2" d="M245.8,406.3c-1,0-1.9,0.8-1.9,1.9v12.1c0,1,0.8,1.9,1.9,1.9c1,0,1.9-0.8,1.9-1.9v-12.1
		C247.7,407.1,246.8,406.3,245.8,406.3z"/>
	<path class="st3" d="M259.1,406.6c-0.1-0.2-0.2-0.3-0.3-0.5c-0.1,0-0.2,0-0.3,0c-3,0-5.2,3.4-5.2,8c0,4.6,2.2,8,5.2,8
		c3,0,5.2-3.4,5.2-8c0-0.9-0.1-1.7-0.2-2.5C261.9,410.1,260.4,408.4,259.1,406.6z M258.4,418.4c-0.3,0-1.5-1.4-1.5-4.3
		c0-2.9,1.2-4.3,1.5-4.3c0.3,0,1.5,1.4,1.5,4.3C259.9,417,258.7,418.4,258.4,418.4z"/>
	<path class="st3" d="M269.2,420.3c0,1,0.8,1.9,1.9,1.9c1,0,1.9-0.8,1.9-1.9v-0.9c-1.3-0.8-2.5-1.7-3.7-2.6V420.3z"/>
	<path class="st3" d="M335.6,414.5c-0.1,2.6-1.2,3.9-1.5,3.9c-0.2,0-0.7-0.6-1.1-1.7c-0.2,0.2-0.4,0.3-0.6,0.5
		c-0.8,0.6-1.6,1.2-2.5,1.7c0.9,2,2.4,3.2,4.2,3.2c3,0,5.2-3.4,5.2-8c0-1-0.1-2-0.3-2.9C337.9,412.4,336.8,413.5,335.6,414.5z"/>
	<path class="st3" d="M346.7,406.3c-1,0-1.9,0.8-1.9,1.9v12.1c0,1,0.8,1.9,1.9,1.9s1.9-0.8,1.9-1.9v-12.1
		C348.6,407.1,347.7,406.3,346.7,406.3z"/>
	<path class="st2" d="M359.3,406.1c-3,0-5.2,3.4-5.2,8c0,4.6,2.2,8,5.2,8c3,0,5.2-3.4,5.2-8C364.5,409.5,362.3,406.1,359.3,406.1z
		 M359.3,418.4c-0.3,0-1.5-1.4-1.5-4.3c0-2.9,1.2-4.3,1.5-4.3s1.5,1.4,1.5,4.3C360.8,417,359.6,418.4,359.3,418.4z"/>
	<path class="st2" d="M371.9,406.3c-1,0-1.9,0.8-1.9,1.9v12.1c0,1,0.8,1.9,1.9,1.9c1,0,1.9-0.8,1.9-1.9v-12.1
		C373.8,407.1,373,406.3,371.9,406.3z"/>
	<path class="st2" d="M233.2,431.1c-3,0-5.2,3.4-5.2,8s2.2,8,5.2,8c3,0,5.2-3.5,5.2-8S236.2,431.1,233.2,431.1z M233.2,443.5
		c-0.3,0-1.5-1.4-1.5-4.3c0-2.9,1.2-4.3,1.5-4.3c0.3,0,1.5,1.4,1.5,4.3C234.7,442,233.5,443.5,233.2,443.5z"/>
	<path class="st2" d="M245.8,431.3c-1,0-1.9,0.8-1.9,1.9v12.1c0,1,0.8,1.9,1.9,1.9c1,0,1.9-0.8,1.9-1.9v-12.1
		C247.7,432.1,246.8,431.3,245.8,431.3z"/>
	<path class="st2" d="M258.4,431.1c-3,0-5.2,3.4-5.2,8s2.2,8,5.2,8c3,0,5.2-3.5,5.2-8S261.4,431.1,258.4,431.1z M258.4,443.5
		c-0.3,0-1.5-1.4-1.5-4.3c0-2.9,1.2-4.3,1.5-4.3c0.3,0,1.5,1.4,1.5,4.3C259.9,442,258.7,443.5,258.4,443.5z"/>
	<path class="st2" d="M271,431.3c-1,0-1.9,0.8-1.9,1.9v12.1c0,1,0.8,1.9,1.9,1.9c1,0,1.9-0.8,1.9-1.9v-12.1
		C272.9,432.1,272,431.3,271,431.3z"/>
	<path class="st2" d="M283.6,431.1c-3,0-5.2,3.4-5.2,8s2.2,8,5.2,8c3,0,5.2-3.5,5.2-8S286.6,431.1,283.6,431.1z M283.6,443.5
		c-0.3,0-1.5-1.4-1.5-4.3c0-2.9,1.2-4.3,1.5-4.3c0.3,0,1.5,1.4,1.5,4.3C285.1,442,283.9,443.5,283.6,443.5z"/>
	<path class="st2" d="M296.3,431.3c-1,0-1.9,0.8-1.9,1.9v12.1c0,1,0.8,1.9,1.9,1.9s1.9-0.8,1.9-1.9v-12.1
		C298.1,432.1,297.3,431.3,296.3,431.3z"/>
	<path class="st2" d="M308.9,431.1c-3,0-5.2,3.4-5.2,8s2.2,8,5.2,8c3,0,5.2-3.5,5.2-8S311.8,431.1,308.9,431.1z M308.9,443.5
		c-0.3,0-1.5-1.4-1.5-4.3c0-2.9,1.2-4.3,1.5-4.3s1.5,1.4,1.5,4.3C310.4,442,309.2,443.5,308.9,443.5z"/>
	<path class="st2" d="M321.5,431.3c-1,0-1.9,0.8-1.9,1.9v12.1c0,1,0.8,1.9,1.9,1.9s1.9-0.8,1.9-1.9v-12.1
		C323.3,432.1,322.5,431.3,321.5,431.3z"/>
	<path class="st2" d="M334.1,431.1c-3,0-5.2,3.4-5.2,8s2.2,8,5.2,8c3,0,5.2-3.5,5.2-8S337.1,431.1,334.1,431.1z M334.1,443.5
		c-0.3,0-1.5-1.4-1.5-4.3c0-2.9,1.2-4.3,1.5-4.3c0.3,0,1.5,1.4,1.5,4.3C335.6,442,334.4,443.5,334.1,443.5z"/>
	<path class="st3" d="M346.7,431.3c-1,0-1.9,0.8-1.9,1.9v12.1c0,1,0.8,1.9,1.9,1.9s1.9-0.8,1.9-1.9v-12.1
		C348.6,432.1,347.7,431.3,346.7,431.3z"/>
	<path class="st2" d="M258.4,456.2c-3,0-5.2,3.5-5.2,8s2.2,8,5.2,8c3,0,5.2-3.4,5.2-8S261.4,456.2,258.4,456.2z M258.4,468.5
		c-0.3,0-1.5-1.4-1.5-4.3c0-2.9,1.2-4.3,1.5-4.3c0.3,0,1.5,1.4,1.5,4.3C259.9,467.1,258.7,468.5,258.4,468.5z"/>
	<path class="st2" d="M271,456.3c-1,0-1.9,0.8-1.9,1.9v12.1c0,1,0.8,1.9,1.9,1.9c1,0,1.9-0.8,1.9-1.9v-12.1
		C272.9,457.2,272,456.3,271,456.3z"/>
	<path class="st2" d="M283.6,456.2c-3,0-5.2,3.5-5.2,8s2.2,8,5.2,8c3,0,5.2-3.4,5.2-8S286.6,456.2,283.6,456.2z M283.6,468.5
		c-0.3,0-1.5-1.4-1.5-4.3c0-2.9,1.2-4.3,1.5-4.3c0.3,0,1.5,1.4,1.5,4.3C285.1,467.1,283.9,468.5,283.6,468.5z"/>
	<path class="st2" d="M296.3,456.3c-1,0-1.9,0.8-1.9,1.9v12.1c0,1,0.8,1.9,1.9,1.9s1.9-0.8,1.9-1.9v-12.1
		C298.1,457.2,297.3,456.3,296.3,456.3z"/>
	<path class="st2" d="M308.9,456.2c-3,0-5.2,3.5-5.2,8s2.2,8,5.2,8c3,0,5.2-3.4,5.2-8S311.8,456.2,308.9,456.2z M308.9,468.5
		c-0.3,0-1.5-1.4-1.5-4.3c0-2.9,1.2-4.3,1.5-4.3s1.5,1.4,1.5,4.3C310.4,467.1,309.2,468.5,308.9,468.5z"/>
	<path class="st2" d="M321.5,456.3c-1,0-1.9,0.8-1.9,1.9v12.1c0,1,0.8,1.9,1.9,1.9s1.9-0.8,1.9-1.9v-12.1
		C323.3,457.2,322.5,456.3,321.5,456.3z"/>
	<path class="st1" d="M308.9,384.7c-0.3,0-1.5,1.4-1.5,4.3c0,2.9,1.2,4.3,1.5,4.3s1.5-1.4,1.5-4.3
		C310.4,386.2,309.2,384.7,308.9,384.7z"/>
	<path class="st1" d="M308.9,409.8c-0.3,0-1.5,1.4-1.5,4.3c0,2.9,1.2,4.3,1.5,4.3s1.5-1.4,1.5-4.3
		C310.4,411.2,309.2,409.8,308.9,409.8z"/>
	<path class="st1" d="M283.6,334.7c-0.3,0-1.5,1.4-1.5,4.3c0,2.9,1.2,4.3,1.5,4.3c0.3,0,1.5-1.4,1.5-4.3
		C285.1,336.1,283.9,334.7,283.6,334.7z"/>
	<path class="st1" d="M283.6,359.7c-0.3,0-1.5,1.4-1.5,4.3c0,2.9,1.2,4.3,1.5,4.3c0.3,0,1.5-1.4,1.5-4.3
		C285.1,361.1,283.9,359.7,283.6,359.7z"/>
	<path class="st1" d="M334.1,334.7c-0.3,0-1.5,1.5-1.5,4.3c0,2.9,1.2,4.3,1.5,4.3c0.3,0,1.5-1.4,1.5-4.3c0-2-0.6-3.3-1-3.9
		C334.4,334.9,334.2,334.8,334.1,334.7z"/>
	<path class="st1" d="M334.1,384.7c-0.3,0-1.5,1.4-1.5,4.3c0,2.9,1.2,4.3,1.5,4.3c0.3,0,1.5-1.4,1.5-4.3
		C335.6,386.2,334.4,384.7,334.1,384.7z"/>
	<path class="st1" d="M308.9,334.7c-0.3,0-1.5,1.4-1.5,4.3c0,2.9,1.2,4.3,1.5,4.3s1.5-1.4,1.5-4.3
		C310.4,336.1,309.2,334.7,308.9,334.7z"/>
	<path class="st1" d="M334.1,409.8c-0.3,0-1.5,1.4-1.5,4.3c0,1,0.2,1.9,0.4,2.6c0.9-0.7,1.8-1.4,2.6-2.2c0-0.1,0-0.3,0-0.4
		C335.6,411.2,334.4,409.8,334.1,409.8z"/>
	<path class="st1" d="M308.9,359.7c-0.3,0-1.5,1.4-1.5,4.3c0,2.9,1.2,4.3,1.5,4.3s1.5-1.4,1.5-4.3
		C310.4,361.1,309.2,359.7,308.9,359.7z"/>
	<path class="st1" d="M334.1,359.7c-0.3,0-1.5,1.4-1.5,4.3c0,2.9,1.2,4.3,1.5,4.3c0.3,0,1.5-1.4,1.5-4.3
		C335.6,361.1,334.4,359.7,334.1,359.7z"/>
	<path class="st1" d="M258.4,384.7c-0.3,0-1.5,1.4-1.5,4.3c0,2.9,1.2,4.3,1.5,4.3c0.3,0,1.5-1.4,1.5-4.3
		C259.9,386.2,258.7,384.7,258.4,384.7z"/>
	<path class="st1" d="M283.6,409.8c-0.3,0-1.5,1.4-1.5,4.3c0,2.9,1.2,4.3,1.5,4.3c0.3,0,1.5-1.4,1.5-4.3
		C285.1,411.2,283.9,409.8,283.6,409.8z"/>
	<path class="st1" d="M258.4,359.7c-0.3,0-1.5,1.4-1.5,4.3c0,2.9,1.2,4.3,1.5,4.3c0.3,0,1.5-1.4,1.5-4.3
		C259.9,361.1,258.7,359.7,258.4,359.7z"/>
	<path class="st1" d="M283.6,384.7c-0.3,0-1.5,1.4-1.5,4.3c0,2.9,1.2,4.3,1.5,4.3c0.3,0,1.5-1.4,1.5-4.3
		C285.1,386.2,283.9,384.7,283.6,384.7z"/>
	<path class="st1" d="M347.3,332.1c-0.2,5.2-2.8,9-6.3,9c-3.6,0-6.3-4.2-6.3-9.7c0-3.4,1-6.2,2.6-8c-20.8-14.6-49.2-15.6-71.2-1
		c0.5,0.4,0.9,1,0.9,1.8v14.7c0,1.2-1,2.2-2.2,2.2s-2.2-1-2.2-2.2V325c-2.4,1.8-4.7,3.8-6.7,5.9c0,0.2,0,0.3,0,0.5
		c0,5.5-2.7,9.7-6.3,9.7c-0.6,0-1.1-0.1-1.6-0.3c-13.9,21.4-13.9,50.1,2,71.8c2.7,0.2,4.9,2.9,5.7,6.7c2.2,2.3,4.5,4.3,7,6.2V415
		c0-1.2,1-2.2,2.2-2.2s2.2,1,2.2,2.2v13.6c20.6,13.1,47.7,13.5,68.9-0.6c-0.8-1.6-1.2-3.6-1.2-5.8c0-5.5,2.7-9.7,6.3-9.7
		c2.8,0,5,2.5,5.9,6.2c20.8-22,23.5-56.4,4.8-81.5C350.3,335.5,348.9,333.7,347.3,332.1z M249.5,401.7c-3.6,0-6.3-4.2-6.3-9.7
		c0-5.5,2.7-9.7,6.3-9.7c3.6,0,6.3,4.2,6.3,9.7C255.8,397.5,253.1,401.7,249.5,401.7z M249.5,371.4c-3.6,0-6.3-4.2-6.3-9.7
		c0-5.5,2.7-9.7,6.3-9.7c3.6,0,6.3,4.2,6.3,9.7C255.8,367.2,253.1,371.4,249.5,371.4z M267,399.4c0,1.2-1,2.2-2.2,2.2
		s-2.2-1-2.2-2.2v-14.7c0-1.2,1-2.2,2.2-2.2s2.2,1,2.2,2.2V399.4z M267,369.1c0,1.2-1,2.2-2.2,2.2s-2.2-1-2.2-2.2v-14.7
		c0-1.2,1-2.2,2.2-2.2s2.2,1,2.2,2.2V369.1z M280,432c-3.6,0-6.3-4.2-6.3-9.7c0-5.5,2.7-9.7,6.3-9.7s6.3,4.2,6.3,9.7
		C286.3,427.8,283.6,432,280,432z M280,401.7c-3.6,0-6.3-4.2-6.3-9.7c0-5.5,2.7-9.7,6.3-9.7s6.3,4.2,6.3,9.7
		C286.3,397.5,283.6,401.7,280,401.7z M280,371.4c-3.6,0-6.3-4.2-6.3-9.7c0-5.5,2.7-9.7,6.3-9.7s6.3,4.2,6.3,9.7
		C286.3,367.2,283.6,371.4,280,371.4z M280,341.1c-3.6,0-6.3-4.2-6.3-9.7s2.7-9.7,6.3-9.7s6.3,4.2,6.3,9.7S283.6,341.1,280,341.1z
		 M297.5,429.7c0,1.2-1,2.2-2.2,2.2s-2.2-1-2.2-2.2V415c0-1.2,1-2.2,2.2-2.2s2.2,1,2.2,2.2V429.7z M297.5,399.4c0,1.2-1,2.2-2.2,2.2
		s-2.2-1-2.2-2.2v-14.7c0-1.2,1-2.2,2.2-2.2s2.2,1,2.2,2.2V399.4z M297.5,369.1c0,1.2-1,2.2-2.2,2.2s-2.2-1-2.2-2.2v-14.7
		c0-1.2,1-2.2,2.2-2.2s2.2,1,2.2,2.2V369.1z M297.5,338.8c0,1.2-1,2.2-2.2,2.2s-2.2-1-2.2-2.2v-14.7c0-1.2,1-2.2,2.2-2.2
		s2.2,1,2.2,2.2V338.8z M310.5,432c-3.6,0-6.3-4.2-6.3-9.7c0-5.5,2.7-9.7,6.3-9.7c3.6,0,6.3,4.2,6.3,9.7
		C316.8,427.8,314.1,432,310.5,432z M310.5,401.7c-3.6,0-6.3-4.2-6.3-9.7c0-5.5,2.7-9.7,6.3-9.7c3.6,0,6.3,4.2,6.3,9.7
		C316.8,397.5,314.1,401.7,310.5,401.7z M310.5,371.4c-3.6,0-6.3-4.2-6.3-9.7c0-5.5,2.7-9.7,6.3-9.7c3.6,0,6.3,4.2,6.3,9.7
		C316.8,367.2,314.1,371.4,310.5,371.4z M310.5,341.1c-3.6,0-6.3-4.2-6.3-9.7s2.7-9.7,6.3-9.7c3.6,0,6.3,4.2,6.3,9.7
		S314.1,341.1,310.5,341.1z M328,429.7c0,1.2-1,2.2-2.2,2.2c-1.2,0-2.2-1-2.2-2.2V415c0-1.2,1-2.2,2.2-2.2c1.2,0,2.2,1,2.2,2.2
		V429.7z M328,399.4c0,1.2-1,2.2-2.2,2.2c-1.2,0-2.2-1-2.2-2.2v-14.7c0-1.2,1-2.2,2.2-2.2c1.2,0,2.2,1,2.2,2.2V399.4z M328,369.1
		c0,1.2-1,2.2-2.2,2.2c-1.2,0-2.2-1-2.2-2.2v-14.7c0-1.2,1-2.2,2.2-2.2c1.2,0,2.2,1,2.2,2.2V369.1z M328,338.8c0,1.2-1,2.2-2.2,2.2
		c-1.2,0-2.2-1-2.2-2.2v-14.7c0-1.2,1-2.2,2.2-2.2c1.2,0,2.2,1,2.2,2.2V338.8z M341,401.7c-3.6,0-6.3-4.2-6.3-9.7
		c0-5.5,2.7-9.7,6.3-9.7c3.6,0,6.3,4.2,6.3,9.7C347.3,397.5,344.6,401.7,341,401.7z M341,371.4c-3.6,0-6.3-4.2-6.3-9.7
		c0-5.5,2.7-9.7,6.3-9.7c3.6,0,6.3,4.2,6.3,9.7C347.3,367.2,344.6,371.4,341,371.4z M354,354.4c0-1.2,1-2.2,2.2-2.2s2.2,1,2.2,2.2
		v14.7c0,1.2-1,2.2-2.2,2.2s-2.2-1-2.2-2.2V354.4z M354,384.7c0-1.2,1-2.2,2.2-2.2s2.2,1,2.2,2.2v14.7c0,1.2-1,2.2-2.2,2.2
		s-2.2-1-2.2-2.2V384.7z"/>
	<path class="st3" d="M247.9,340.8c0.5,0.2,1.1,0.3,1.6,0.3c3.6,0,6.3-4.2,6.3-9.7c0-0.2,0-0.3,0-0.5
		C252.8,333.9,250.1,337.3,247.9,340.8z"/>
	<path class="st2" d="M266.1,322.4c-1,0.7-2.1,1.4-3.1,2.1c-0.2,0.1-0.4,0.3-0.6,0.5v13.9c0,1.2,1,2.2,2.2,2.2s2.2-1,2.2-2.2v-14.7
		C267,323.4,266.6,322.8,266.1,322.4z"/>
	<path class="st2" d="M280,321.7c-3.6,0-6.3,4.2-6.3,9.7s2.7,9.7,6.3,9.7s6.3-4.2,6.3-9.7S283.6,321.7,280,321.7z M280,336.6
		c-0.3,0-1.8-1.7-1.8-5.2c0-3.5,1.5-5.2,1.8-5.2s1.8,1.7,1.8,5.2C281.8,334.8,280.3,336.6,280,336.6z"/>
	<path class="st2" d="M295.3,321.9c-1.2,0-2.2,1-2.2,2.2v14.7c0,1.2,1,2.2,2.2,2.2s2.2-1,2.2-2.2v-14.7
		C297.5,322.9,296.5,321.9,295.3,321.9z"/>
	<path class="st2" d="M310.5,321.7c-3.6,0-6.3,4.2-6.3,9.7s2.7,9.7,6.3,9.7c3.6,0,6.3-4.2,6.3-9.7S314.1,321.7,310.5,321.7z
		 M310.5,336.6c-0.3,0-1.8-1.7-1.8-5.2c0-3.5,1.5-5.2,1.8-5.2c0.3,0,1.8,1.7,1.8,5.2C312.3,334.8,310.9,336.6,310.5,336.6z"/>
	<path class="st2" d="M325.8,321.9c-1.2,0-2.2,1-2.2,2.2v14.7c0,1.2,1,2.2,2.2,2.2c1.2,0,2.2-1,2.2-2.2v-14.7
		C328,322.9,327,321.9,325.8,321.9z"/>
	<path class="st3" d="M341.6,326.7c0.6,0.7,1.3,2.3,1.3,4.7c0,3.5-1.5,5.2-1.8,5.2c-0.3,0-1.8-1.7-1.8-5.2c0-3.4,1.4-5.2,1.8-5.2
		c-1.2-1-2.4-1.9-3.7-2.8c-1.6,1.7-2.6,4.6-2.6,8c0,5.5,2.7,9.7,6.3,9.7c3.4,0,6.1-3.8,6.3-9C345.5,330.1,343.6,328.3,341.6,326.7z"
		/>
	<path class="st2" d="M249.5,352c-3.6,0-6.3,4.2-6.3,9.7c0,5.5,2.7,9.7,6.3,9.7c3.6,0,6.3-4.2,6.3-9.7
		C255.8,356.1,253.1,352,249.5,352z M249.5,366.9c-0.3,0-1.8-1.7-1.8-5.2c0-3.5,1.5-5.2,1.8-5.2c0.3,0,1.8,1.7,1.8,5.2
		C251.3,365.1,249.8,366.9,249.5,366.9z"/>
	<path class="st2" d="M264.7,352.2c-1.2,0-2.2,1-2.2,2.2v14.7c0,1.2,1,2.2,2.2,2.2s2.2-1,2.2-2.2v-14.7
		C267,353.2,266,352.2,264.7,352.2z"/>
	<path class="st2" d="M280,352c-3.6,0-6.3,4.2-6.3,9.7c0,5.5,2.7,9.7,6.3,9.7s6.3-4.2,6.3-9.7C286.3,356.1,283.6,352,280,352z
		 M280,366.9c-0.3,0-1.8-1.7-1.8-5.2c0-3.5,1.5-5.2,1.8-5.2s1.8,1.7,1.8,5.2C281.8,365.1,280.3,366.9,280,366.9z"/>
	<path class="st2" d="M295.3,352.2c-1.2,0-2.2,1-2.2,2.2v14.7c0,1.2,1,2.2,2.2,2.2s2.2-1,2.2-2.2v-14.7
		C297.5,353.2,296.5,352.2,295.3,352.2z"/>
	<path class="st2" d="M310.5,352c-3.6,0-6.3,4.2-6.3,9.7c0,5.5,2.7,9.7,6.3,9.7c3.6,0,6.3-4.2,6.3-9.7
		C316.8,356.1,314.1,352,310.5,352z M310.5,366.9c-0.3,0-1.8-1.7-1.8-5.2c0-3.5,1.5-5.2,1.8-5.2c0.3,0,1.8,1.7,1.8,5.2
		C312.3,365.1,310.9,366.9,310.5,366.9z"/>
	<path class="st2" d="M325.8,352.2c-1.2,0-2.2,1-2.2,2.2v14.7c0,1.2,1,2.2,2.2,2.2c1.2,0,2.2-1,2.2-2.2v-14.7
		C328,353.2,327,352.2,325.8,352.2z"/>
	<path class="st2" d="M341,352c-3.6,0-6.3,4.2-6.3,9.7c0,5.5,2.7,9.7,6.3,9.7c3.6,0,6.3-4.2,6.3-9.7C347.3,356.1,344.6,352,341,352z
		 M341,366.9c-0.3,0-1.8-1.7-1.8-5.2c0-3.5,1.5-5.2,1.8-5.2c0.3,0,1.8,1.7,1.8,5.2C342.9,365.1,341.4,366.9,341,366.9z"/>
	<path class="st3" d="M356.3,352.2c-1.2,0-2.2,1-2.2,2.2v14.7c0,1.2,1,2.2,2.2,2.2s2.2-1,2.2-2.2v-14.7
		C358.5,353.2,357.5,352.2,356.3,352.2z"/>
	<path class="st2" d="M249.5,382.2c-3.6,0-6.3,4.2-6.3,9.7c0,5.5,2.7,9.7,6.3,9.7c3.6,0,6.3-4.2,6.3-9.7
		C255.8,386.4,253.1,382.2,249.5,382.2z M249.5,397.2c-0.3,0-1.8-1.7-1.8-5.2c0-3.5,1.5-5.2,1.8-5.2c0.3,0,1.8,1.7,1.8,5.2
		C251.3,395.4,249.8,397.2,249.5,397.2z"/>
	<path class="st2" d="M264.7,382.5c-1.2,0-2.2,1-2.2,2.2v14.7c0,1.2,1,2.2,2.2,2.2s2.2-1,2.2-2.2v-14.7
		C267,383.5,266,382.5,264.7,382.5z"/>
	<path class="st2" d="M280,382.2c-3.6,0-6.3,4.2-6.3,9.7c0,5.5,2.7,9.7,6.3,9.7s6.3-4.2,6.3-9.7C286.3,386.4,283.6,382.2,280,382.2z
		 M280,397.2c-0.3,0-1.8-1.7-1.8-5.2c0-3.5,1.5-5.2,1.8-5.2s1.8,1.7,1.8,5.2C281.8,395.4,280.3,397.2,280,397.2z"/>
	<path class="st2" d="M295.3,382.5c-1.2,0-2.2,1-2.2,2.2v14.7c0,1.2,1,2.2,2.2,2.2s2.2-1,2.2-2.2v-14.7
		C297.5,383.5,296.5,382.5,295.3,382.5z"/>
	<path class="st2" d="M310.5,382.2c-3.6,0-6.3,4.2-6.3,9.7c0,5.5,2.7,9.7,6.3,9.7c3.6,0,6.3-4.2,6.3-9.7
		C316.8,386.4,314.1,382.2,310.5,382.2z M310.5,397.2c-0.3,0-1.8-1.7-1.8-5.2c0-3.5,1.5-5.2,1.8-5.2c0.3,0,1.8,1.7,1.8,5.2
		C312.3,395.4,310.9,397.2,310.5,397.2z"/>
	<path class="st2" d="M325.8,382.5c-1.2,0-2.2,1-2.2,2.2v14.7c0,1.2,1,2.2,2.2,2.2c1.2,0,2.2-1,2.2-2.2v-14.7
		C328,383.5,327,382.5,325.8,382.5z"/>
	<path class="st2" d="M341,382.2c-3.6,0-6.3,4.2-6.3,9.7c0,5.5,2.7,9.7,6.3,9.7c3.6,0,6.3-4.2,6.3-9.7
		C347.3,386.4,344.6,382.2,341,382.2z M341,397.2c-0.3,0-1.8-1.7-1.8-5.2c0-3.5,1.5-5.2,1.8-5.2c0.3,0,1.8,1.7,1.8,5.2
		C342.9,395.4,341.4,397.2,341,397.2z"/>
	<path class="st3" d="M356.3,382.5c-1.2,0-2.2,1-2.2,2.2v14.7c0,1.2,1,2.2,2.2,2.2s2.2-1,2.2-2.2v-14.7
		C358.5,383.5,357.5,382.5,356.3,382.5z"/>
	<path class="st3" d="M249.9,412.6c0.1,0.2,0.3,0.4,0.4,0.6c1.6,2.2,3.4,4.2,5.2,6.1C254.8,415.5,252.6,412.8,249.9,412.6z"/>
	<path class="st3" d="M264.7,412.8c-1.2,0-2.2,1-2.2,2.2v10.5c1.5,1.1,3,2.2,4.5,3.1V415C267,413.8,266,412.8,264.7,412.8z"/>
	<path class="st2" d="M280,412.5c-3.6,0-6.3,4.2-6.3,9.7c0,5.5,2.7,9.7,6.3,9.7s6.3-4.2,6.3-9.7C286.3,416.7,283.6,412.5,280,412.5z
		 M280,427.5c-0.3,0-1.8-1.7-1.8-5.2c0-3.5,1.5-5.2,1.8-5.2s1.8,1.7,1.8,5.2C281.8,425.7,280.3,427.5,280,427.5z"/>
	<path class="st2" d="M295.3,412.8c-1.2,0-2.2,1-2.2,2.2v14.7c0,1.2,1,2.2,2.2,2.2s2.2-1,2.2-2.2V415
		C297.5,413.8,296.5,412.8,295.3,412.8z"/>
	<path class="st2" d="M310.5,412.5c-3.6,0-6.3,4.2-6.3,9.7c0,5.5,2.7,9.7,6.3,9.7c3.6,0,6.3-4.2,6.3-9.7
		C316.8,416.7,314.1,412.5,310.5,412.5z M310.5,427.5c-0.3,0-1.8-1.7-1.8-5.2c0-3.5,1.5-5.2,1.8-5.2c0.3,0,1.8,1.7,1.8,5.2
		C312.3,425.7,310.9,427.5,310.5,427.5z"/>
	<path class="st2" d="M325.8,412.8c-1.2,0-2.2,1-2.2,2.2v14.7c0,1.2,1,2.2,2.2,2.2c1.2,0,2.2-1,2.2-2.2V415
		C328,413.8,327,412.8,325.8,412.8z"/>
	<path class="st3" d="M341,412.5c-3.6,0-6.3,4.2-6.3,9.7c0,2.2,0.4,4.2,1.2,5.8c1-0.7,2-1.4,3-2.1c0.3-0.2,0.5-0.4,0.8-0.6
		c-0.3-0.8-0.5-1.8-0.5-3.1c0-3.5,1.5-5.2,1.8-5.2c0.3,0,1.8,1.7,1.8,5.2c0,0.2,0,0.3,0,0.5c1.4-1.3,2.8-2.6,4.1-4
		C346.1,415.1,343.8,412.5,341,412.5z"/>
	<g>
		<path class="st0" d="M354.7,335.1c-22.2-29.7-64.2-35.7-93.8-13.5c-29.7,22.2-35.7,64.2-13.5,93.8c20.3,27.2,57.2,34.5,86.1,18.5
			l17.5,23.2l14.7-11l-17.5-23.2C371.6,399.8,375,362.2,354.7,335.1z M332.3,417.2c-23.1,17.3-56,12.5-73.3-10.6
			c-17.3-23.1-12.5-56,10.6-73.3c23.1-17.3,56-12.5,73.3,10.6C360.2,367,355.5,399.9,332.3,417.2z"/>
		<path class="st4" d="M344.4,342.8C334.2,329.2,318,321,300.9,321c-11.8,0-23,3.7-32.4,10.8c-23.9,17.9-28.9,51.9-11,75.9
			c10.2,13.6,26.4,21.7,43.5,21.7c11.8,0,23-3.7,32.4-10.8C357.4,400.7,362.3,366.7,344.4,342.8z M331.2,415.7
			c-8.8,6.6-19.2,10-30.2,10c-16.1,0-30.9-7.4-40.5-20.2c-8.1-10.8-11.4-24.1-9.5-37.4c1.9-13.4,8.9-25.2,19.7-33.2
			c8.8-6.6,19.2-10,30.2-10c16.1,0,30.9,7.4,40.5,20.2C358.1,367.3,353.5,399,331.2,415.7z"/>
		<path class="st4" d="M356.2,334c-13.1-17.6-33.3-27.6-55.2-27.6c-15,0-29.2,4.7-41.2,13.7c-14.7,11-24.3,27.1-26.9,45.3
			c-2.6,18.2,2,36.4,13,51.1c13.1,17.6,33.3,27.6,55.2,27.6c11.1,0,22.1-2.7,31.9-7.8l16.5,21.9c0.4,0.5,0.9,0.7,1.5,0.7
			c0.4,0,0.8-0.1,1.1-0.4l14.7-11c0.4-0.3,0.7-0.7,0.7-1.2c0.1-0.5-0.1-1-0.4-1.4l-16.5-21.9C373.9,399,376.4,361,356.2,334z
			 M346.6,424l16.4,21.7l-11.7,8.8l-16.4-21.7c-0.4-0.5-0.9-0.7-1.5-0.7c-0.3,0-0.6,0.1-0.9,0.2c-9.6,5.3-20.5,8.1-31.5,8.1
			c-20.8,0-39.8-9.5-52.2-26.1c-10.4-13.9-14.8-31.1-12.3-48.3C239,348.7,248,333.5,262,323c11.4-8.5,24.8-13,39-13
			c20.8,0,39.8,9.5,52.3,26.2c19.4,26,16.7,62.7-6.4,85.4C346.1,422.2,346.1,423.3,346.6,424z"/>
	</g>
	<g>
		<path class="st0" d="M346.3,460.5c-1.6,1.2-1.9,3.5-0.7,5l31.6,42.1c1.2,1.6,3.5,1.9,5,0.7l7.9-5.9l-35.9-47.9L346.3,460.5z"/>
		<path class="st0" d="M346.3,460.5c-1.6,1.2-1.9,3.5-0.7,5l31.6,42.1c1.2,1.6,3.5,1.9,5,0.7l7.9-5.9l-35.9-47.9L346.3,460.5z"/>
	</g>
	<path class="st4" d="M277.5,343.9c-12.1,9.1-17.9,24.5-14.9,39.3c0.2,0.9,1,1.5,1.8,1.5c0.1,0,0.3,0,0.4,0c1-0.2,1.7-1.2,1.4-2.2
		c-2.8-13.4,2.5-27.4,13.4-35.6c0.8-0.6,1-1.8,0.4-2.6C279.5,343.5,278.3,343.3,277.5,343.9z"/>
	<path class="st4" d="M270.3,392.9c-0.5-0.9-1.6-1.2-2.5-0.7c-0.9,0.5-1.2,1.7-0.7,2.5c0.8,1.4,1.7,2.7,2.6,4
		c0.4,0.5,0.9,0.7,1.5,0.7c0.4,0,0.8-0.1,1.1-0.4c0.8-0.6,1-1.8,0.4-2.6C271.8,395.3,271,394.1,270.3,392.9z"/>
	<path class="st5" d="M375.4,443.2c-1.2-1.6-3.5-1.9-5-0.7l-24,18c-1.6,1.2-1.9,3.5-0.7,5l31.6,42.1c1.2,1.6,3.5,1.9,5,0.7l24-18
		c1.6-1.2,1.9-3.5,0.7-5L375.4,443.2z"/>
	<path class="st2" d="M375.4,443.2c-1.2-1.6-3.5-1.9-5-0.7l-24,18c-1.6,1.2-1.9,3.5-0.7,5l31.6,42.1c1.2,1.6,3.5,1.9,5,0.7l24-18
		c1.6-1.2,1.9-3.5,0.7-5L375.4,443.2z"/>
	<path class="st0" d="M370.3,442.5l-24,18c-1.6,1.2-1.9,3.5-0.7,5l1.8,2.4l29.8-22.3l-1.8-2.4C374.2,441.7,371.9,441.3,370.3,442.5z
		"/>
	<g>
		<path class="st0" d="M346.3,460.5c-1.6,1.2-1.9,3.5-0.7,5l31.6,42.1c1.2,1.6,3.5,1.9,5,0.7l2.9-2.2l-35.9-47.9L346.3,460.5z"/>
		<path class="st0" d="M346.3,460.5c-1.6,1.2-1.9,3.5-0.7,5l31.6,42.1c1.2,1.6,3.5,1.9,5,0.7l2.9-2.2l-35.9-47.9L346.3,460.5z"/>
	</g>
	<g>
		<path class="st4" d="M376.9,442.1c-1-1.4-2.7-2.2-4.4-2.2c-1.2,0-2.3,0.4-3.3,1.1l-24.1,18c-2.4,1.8-2.9,5.2-1.1,7.6l31.6,42.1
			c1,1.4,2.7,2.2,4.4,2.2c1.2,0,2.3-0.4,3.3-1.1l24.1-18c1.2-0.9,1.9-2.1,2.1-3.6c0.2-1.4-0.2-2.9-1-4L376.9,442.1z M405.1,488.9
			l-24.1,18c-0.4,0.3-0.8,0.3-1,0.3c-0.6,0-1.1-0.3-1.4-0.7L347,464.5c-0.6-0.8-0.4-1.9,0.3-2.4l24.1-18c0.4-0.3,0.8-0.3,1-0.3
			c0.6,0,1.1,0.3,1.4,0.7l31.6,42.1C406.1,487.2,405.9,488.3,405.1,488.9z"/>
		<path class="st4" d="M376.9,442.1c-1-1.4-2.7-2.2-4.4-2.2c-1.2,0-2.3,0.4-3.3,1.1l-24.1,18c-2.4,1.8-2.9,5.2-1.1,7.6l31.6,42.1
			c1,1.4,2.7,2.2,4.4,2.2c1.2,0,2.3-0.4,3.3-1.1l24.1-18c1.2-0.9,1.9-2.1,2.1-3.6c0.2-1.4-0.2-2.9-1-4L376.9,442.1z M405.1,488.9
			l-24.1,18c-0.4,0.3-0.8,0.3-1,0.3c-0.6,0-1.1-0.3-1.4-0.7L347,464.5c-0.6-0.8-0.4-1.9,0.3-2.4l24.1-18c0.4-0.3,0.8-0.3,1-0.3
			c0.6,0,1.1,0.3,1.4,0.7l31.6,42.1C406.1,487.2,405.9,488.3,405.1,488.9z"/>
	</g>
</g>
</svg>
