<?xml version="1.0" encoding="utf-8"?>
<!-- Generator: Adobe Illustrator 19.0.1, SVG Export Plug-In . SVG Version: 6.00 Build 0)  -->
<svg version="1.1" id="Layer_1" xmlns="http://www.w3.org/2000/svg" xmlns:xlink="http://www.w3.org/1999/xlink" x="0px" y="0px"
	 viewBox="0 0 612 792" style="enable-background:new 0 0 612 792;" xml:space="preserve">
<style type="text/css">
	.st0{fill:#FFFFFF;}
	.st1{fill:#262A2C;}
	.st2{fill:#F7EC3D;}
	.st3{fill:#70CDE0;}
	.st4{fill:#7CC360;}
</style>
<circle class="st0" cx="306.5" cy="396.3" r="145.7"/>
<g>
	<path class="st0" d="M204,461.8L204,461.8c0.1,10.6,29.7,19.2,66.2,19.2c36.5,0,66.1-8.6,66.2-19.2h0v-31.2H204V461.8z"/>
	<path class="st1" d="M336.5,428.9H204c-1,0-1.7,0.8-1.7,1.7v31.2c0,0,0,0.1,0,0.1c0.4,13.5,35.2,20.8,68,20.8s67.6-7.3,68-20.8
		c0,0,0-0.1,0-0.1v-31.2C338.2,429.6,337.4,428.9,336.5,428.9z M334.7,461.7C334.7,461.8,334.7,461.8,334.7,461.7
		c-0.1,8.3-26.6,17.5-64.5,17.5s-64.4-9.2-64.5-17.5c0,0,0-0.1,0-0.1v-29.4h129V461.7z"/>
	<ellipse class="st0" cx="270.2" cy="430.6" rx="66.2" ry="19.2"/>
	<path class="st1" d="M270.2,409.6c-33,0-68,7.4-68,21c0,13.6,35,21,68,21s68-7.4,68-21C338.2,417,303.2,409.6,270.2,409.6z
		 M270.2,448.1c-38,0-64.5-9.2-64.5-17.5c0-8.3,26.5-17.5,64.5-17.5s64.5,9.2,64.5,17.5C334.7,438.9,308.2,448.1,270.2,448.1z"/>
	<path class="st2" d="M207.5,426.3L207.5,426.3c0.1,10,28.2,18.2,62.8,18.2c34.6,0,62.7-8.1,62.8-18.2h0V413H207.5V426.3z"/>
	<path class="st1" d="M333,411.3H207.5c-1,0-1.7,0.8-1.7,1.7v13.3c0,0,0,0.1,0,0.1c0.4,12.8,33.5,19.8,64.5,19.8
		c31.1,0,64.2-6.9,64.5-19.8c0,0,0-0.1,0-0.1V413C334.8,412,334,411.3,333,411.3z M331.3,426.2C331.3,426.2,331.3,426.2,331.3,426.2
		c-0.1,7.9-25.2,16.5-61,16.5c-35.9,0-60.9-8.7-61-16.5c0,0,0-0.1,0-0.1v-11.4h122.1V426.2z"/>
	<g>
		<ellipse class="st3" cx="270.2" cy="413" rx="62.8" ry="18.2"/>
		<path class="st1" d="M270.2,393c-31.3,0-64.5,7-64.5,20c0,13,33.2,20,64.5,20s64.5-7,64.5-20C334.8,400,301.5,393,270.2,393z
			 M270.2,429.5c-36,0-61-8.7-61-16.5c0-7.8,25.1-16.5,61-16.5s61,8.7,61,16.5C331.3,420.8,306.2,429.5,270.2,429.5z"/>
	</g>
	<path class="st0" d="M204,411.9L204,411.9c0.1,10.6,29.7,19.2,66.2,19.2c36.5,0,66.1-8.6,66.2-19.2h0v-31.2H204V411.9z"/>
	<path class="st1" d="M336.5,379H204c-1,0-1.7,0.8-1.7,1.7v31.2c0,0,0,0.1,0,0.1c0.4,13.5,35.2,20.8,68,20.8s67.6-7.3,68-20.8
		c0,0,0-0.1,0-0.1v-31.2C338.2,379.8,337.4,379,336.5,379z M334.7,411.8C334.7,411.9,334.7,411.9,334.7,411.8
		c-0.1,8.3-26.6,17.5-64.5,17.5s-64.4-9.2-64.5-17.5c0,0,0-0.1,0-0.1v-29.4h129V411.8z"/>
	<ellipse class="st0" cx="270.2" cy="380.7" rx="66.2" ry="19.2"/>
	<path class="st1" d="M270.2,359.7c-33,0-68,7.4-68,21s35,21,68,21s68-7.4,68-21S303.2,359.7,270.2,359.7z M270.2,398.2
		c-38,0-64.5-9.2-64.5-17.5c0-8.3,26.5-17.5,64.5-17.5s64.5,9.2,64.5,17.5C334.7,389,308.2,398.2,270.2,398.2z"/>
	<path class="st2" d="M207.5,376.4L207.5,376.4c0.1,10,28.2,18.2,62.8,18.2c34.6,0,62.7-8.1,62.8-18.2h0v-13.3H207.5V376.4z"/>
	<path class="st1" d="M333,361.4H207.5c-1,0-1.7,0.8-1.7,1.7v13.3c0,0,0,0.1,0,0.1c0.4,12.8,33.5,19.8,64.5,19.8
		c31.1,0,64.2-6.9,64.5-19.8c0,0,0-0.1,0-0.1v-13.3C334.8,362.1,334,361.4,333,361.4z M331.3,376.3
		C331.3,376.3,331.3,376.3,331.3,376.3c-0.1,7.9-25.2,16.5-61,16.5c-35.9,0-60.9-8.7-61-16.5c0,0,0-0.1,0-0.1v-11.4h122.1V376.3z"/>
	<g>
		<ellipse class="st4" cx="270.2" cy="363.1" rx="62.8" ry="18.2"/>
		<path class="st1" d="M270.2,343.1c-31.3,0-64.5,7-64.5,20c0,13,33.2,20,64.5,20s64.5-7,64.5-20
			C334.8,350.1,301.5,343.1,270.2,343.1z M270.2,379.6c-36,0-61-8.7-61-16.5c0-7.8,25.1-16.5,61-16.5s61,8.7,61,16.5
			C331.3,370.9,306.2,379.6,270.2,379.6z"/>
	</g>
	<g>
		<path class="st0" d="M204,362.1L204,362.1c0.1,10.6,29.7,19.2,66.2,19.2c36.5,0,66.1-8.6,66.2-19.2h0v-31.2H204V362.1z"/>
		<path class="st1" d="M336.5,329.1H204c-1,0-1.7,0.8-1.7,1.7v31.2c0,0,0,0.1,0,0.1c0.4,13.5,35.2,20.8,68,20.8s67.6-7.3,68-20.8
			c0,0,0-0.1,0-0.1v-31.2C338.2,329.9,337.4,329.1,336.5,329.1z M334.7,362C334.7,362,334.7,362,334.7,362
			c-0.1,8.3-26.6,17.5-64.5,17.5s-64.4-9.2-64.5-17.5c0,0,0-0.1,0-0.1v-29.4h129V362z"/>
	</g>
	<g>
		<ellipse class="st0" cx="270.2" cy="330.8" rx="66.2" ry="19.2"/>
		<path class="st1" d="M270.2,309.9c-33,0-68,7.4-68,21c0,13.6,35,21,68,21s68-7.4,68-21C338.2,317.2,303.2,309.9,270.2,309.9z
			 M270.2,348.3c-38,0-64.5-9.2-64.5-17.5c0-8.3,26.5-17.5,64.5-17.5s64.5,9.2,64.5,17.5C334.7,339.1,308.2,348.3,270.2,348.3z"/>
	</g>
	<g>
		<rect x="362.3" y="317.3" class="st0" width="46.6" height="46.6"/>
		<path class="st1" d="M408.9,315.6h-46.6c-1,0-1.7,0.8-1.7,1.7v46.6c0,1,0.8,1.7,1.7,1.7h46.6c1,0,1.7-0.8,1.7-1.7v-46.6
			C410.7,316.3,409.9,315.6,408.9,315.6z M407.2,362.1h-43.1V319h43.1V362.1z"/>
	</g>
	<path class="st2" d="M382.6,346l-8.4-7l-3.5,4.3l10.6,8.8c0.5,0.4,1.1,0.6,1.8,0.6c0.1,0,0.2,0,0.3,0c0.7-0.1,1.4-0.5,1.9-1.1
		l15.4-19.9l-4.4-3.4L382.6,346z"/>
	<g>
		<rect x="362.3" y="428.7" class="st0" width="46.6" height="46.6"/>
		<path class="st1" d="M408.9,427h-46.6c-1,0-1.7,0.8-1.7,1.7v46.6c0,1,0.8,1.7,1.7,1.7h46.6c1,0,1.7-0.8,1.7-1.7v-46.6
			C410.7,427.8,409.9,427,408.9,427z M407.2,473.6h-43.1v-43.1h43.1V473.6z"/>
	</g>
	<path class="st2" d="M396.4,449h-2.9v-2.9c0-4.3-3.5-7.9-7.8-7.9c-4.3,0-7.8,3.5-7.8,7.9v2.9h-2.9c-0.7,0-1.3,0.6-1.3,1.3v14.2
		c0,0.7,0.6,1.3,1.3,1.3h21.4c0.7,0,1.3-0.6,1.3-1.3v-14.2C397.7,449.6,397.1,449,396.4,449z M388,462.2h-4.6l1.2-4.3
		c-1-0.4-1.7-1.4-1.7-2.6c0-1.5,1.2-2.8,2.8-2.8c1.5,0,2.8,1.2,2.8,2.8c0,1.1-0.7,2.1-1.7,2.6L388,462.2z M391.5,449.5h-11.7v-3.2
		c0-3.3,2.6-5.9,5.8-5.9c3.2,0,5.8,2.7,5.8,5.9V449.5z"/>
	<path class="st1" d="M385.6,368.5c-1,0-1.7,0.8-1.7,1.7v3.5c0,1,0.8,1.7,1.7,1.7s1.7-0.8,1.7-1.7v-3.5
		C387.4,369.2,386.6,368.5,385.6,368.5z"/>
	<path class="st1" d="M385.6,403.7c-1,0-1.7,0.8-1.7,1.7v6.3c0,1,0.8,1.7,1.7,1.7s1.7-0.8,1.7-1.7v-6.3
		C387.4,404.5,386.6,403.7,385.6,403.7z"/>
	<path class="st1" d="M385.6,391c-1,0-1.7,0.8-1.7,1.7v6.3c0,1,0.8,1.7,1.7,1.7s1.7-0.8,1.7-1.7v-6.3
		C387.4,391.8,386.6,391,385.6,391z"/>
	<path class="st1" d="M385.6,378.3c-1,0-1.7,0.8-1.7,1.7v6.3c0,1,0.8,1.7,1.7,1.7s1.7-0.8,1.7-1.7V380
		C387.4,379.1,386.6,378.3,385.6,378.3z"/>
	<path class="st1" d="M385.6,416.4c-1,0-1.7,0.8-1.7,1.7v3.5c0,1,0.8,1.7,1.7,1.7s1.7-0.8,1.7-1.7v-3.5
		C387.4,417.2,386.6,416.4,385.6,416.4z"/>
</g>
</svg>
