<?xml version="1.0" encoding="utf-8"?>
<!-- Generator: Adobe Illustrator 19.0.1, SVG Export Plug-In . SVG Version: 6.00 Build 0)  -->
<svg version="1.1" id="Layer_1" xmlns="http://www.w3.org/2000/svg" xmlns:xlink="http://www.w3.org/1999/xlink" x="0px" y="0px"
	 viewBox="-255 261.7 101 271.3" style="enable-background:new -255 261.7 101 271.3;" xml:space="preserve">
<g>
	<path d="M-207,415.5v58c0,7-6,12-12,12l0,0c-7,0-13-5-13-12c0-44,0-89,0-133h-3v59c0,10-20,13-20,0v-70c0-5,4-13,9-13
		c28,0,55,0,83,0c5,0,9,8,9,13v70c0,13-20,10-20,0v-59h-3c0,44,0,89,0,133c0,7-6,12-13,12l0,0c-6,0-12-5-12-12v-58H-207z"/>
	<circle cx="-205" cy="290.5" r="22"/>
</g>
</svg>
