<?xml version="1.0" encoding="utf-8"?>
<!-- Generator: Adobe Illustrator 19.0.1, SVG Export Plug-In . SVG Version: 6.00 Build 0)  -->
<svg version="1.1" id="Layer_1" xmlns="http://www.w3.org/2000/svg" xmlns:xlink="http://www.w3.org/1999/xlink" x="0px" y="0px"
	 viewBox="0 0 612 792" style="enable-background:new 0 0 612 792;" xml:space="preserve">
<style type="text/css">
	.st0{fill:#FBF6B1;}
	.st1{fill:#FFFFFF;}
	.st2{fill:#F7EC3D;}
	.st3{fill:#262A2C;}
</style>
<circle class="st0" cx="306.1" cy="396.1" r="145.7"/>
<g>
	<path class="st1" d="M295.1,449.1H294c0,0-16.9-6.6-16.9-14c0-4.1,0-24,0-24h-6h-1.8h-6c0,0,0,19.9,0,24c0,7.4-16.9,14-16.9,14
		h-1.1c-1,0-1.7,0.8-1.7,1.7v0.4c0,1,0.8,1.7,1.7,1.7h49.8c1,0,1.7-0.8,1.7-1.7v-0.4C296.8,449.9,296,449.1,295.1,449.1z"/>
	<path class="st2" d="M269.3,411.2h-6c0,0,0,3.5,0,7.9c2.3,0.5,4.6,0.7,6.9,0.7s4.7-0.3,6.9-0.7c0-4.4,0-7.9,0-7.9h-6H269.3z"/>
	<path class="st3" d="M332.8,321.6c-5.7-3.6-13.5-3.1-19.8,1.2c-0.8,0.5-1,1.6-0.5,2.4c0.5,0.8,1.6,1,2.4,0.5
		c5.1-3.5,11.4-3.9,16-1.1c4.7,2.9,6.7,8.8,5.7,16.2c-1.9,13.2-18.4,26.9-25.4,32.1c0,0,0,0,0,0c-2.8,1.7-4.8,4.4-5.6,7.6
		c-0.8,3.3-0.3,6.7,1.4,9.6c2.4,4,6.6,6.2,10.9,6.2c2.2,0,4.4-0.6,6.4-1.8c0.8-0.5,1.1-1.6,0.6-2.4c-0.5-0.8-1.6-1.1-2.4-0.6
		c-4.3,2.6-9.9,1.1-12.5-3.2c-2.6-4.3-1.1-9.9,3.2-12.5c0.1-0.1,0.2-0.1,0.3-0.2c9.2-6.9,24.6-20.4,26.6-34.3
		C341.3,332.5,338.6,325.3,332.8,321.6z"/>
	<path class="st3" d="M229.2,372.9C229.2,372.9,229.2,372.9,229.2,372.9c-7-5.3-23.5-18.9-25.4-32.2c-1.1-7.4,1-13.3,5.7-16.2
		c4.6-2.8,10.8-2.4,16,1.1c0.8,0.5,1.9,0.3,2.4-0.5c0.5-0.8,0.3-1.9-0.5-2.4c-6.3-4.3-14-4.8-19.8-1.2c-5.9,3.7-8.5,10.8-7.3,19.6
		c2,13.9,17.4,27.4,26.6,34.3c0.1,0.1,0.2,0.2,0.3,0.2c4.3,2.6,5.8,8.2,3.2,12.5c-1.2,2.1-3.2,3.6-5.6,4.2c-2.4,0.6-4.8,0.2-6.9-1
		c-0.8-0.5-1.9-0.2-2.4,0.6c-0.5,0.8-0.2,1.9,0.6,2.4c2,1.2,4.2,1.8,6.4,1.8c1,0,2.1-0.1,3.1-0.4c3.3-0.8,6-2.9,7.7-5.8
		c1.7-2.9,2.2-6.3,1.4-9.6C234,377.3,232,374.6,229.2,372.9z"/>
	<polygon class="st2" points="240.4,453 235.5,479.1 304.9,479.1 300,453 	"/>
	<polygon class="st1" points="241.4,452.3 236.5,478.4 239.1,478.4 243.2,456.3 301.7,456.3 301,452.3 	"/>
	<path class="st3" d="M295.1,447.4h-0.8c-6.1-2.4-15.5-7.8-15.5-12.2v-24c0-1-0.8-1.7-1.7-1.7h-13.8c-1,0-1.7,0.8-1.7,1.7v24
		c0,4.4-9.4,9.8-15.5,12.2h-0.8c-1.9,0-3.5,1.6-3.5,3.5v0.4c0,1.9,1.6,3.5,3.5,3.5h49.8c1.9,0,3.5-1.6,3.5-3.5v-0.4
		C298.6,449,297,447.4,295.1,447.4z M295.1,451.3l-49.8,0l0-0.4h1.1c0.2,0,0.4,0,0.6-0.1c1.8-0.7,18-7.3,18-15.6v-22.2h10.4v22.2
		c0,8.3,16.2,14.9,18,15.6c0.2,0.1,0.4,0.1,0.6,0.1l1.1,0L295.1,451.3z M295.1,453v-1.7V453z"/>
	<path class="st1" d="M314,314.7h-5.1c-3.4,0-20.9,0-38.7,0s-35.3,0-38.7,0h-5.1c-0.7,0-1.1,0.5-1,1.2l4.6,36.8l3.7,29.4
		c2.2,17.9,18.7,32.6,36.6,32.6s34.4-14.6,36.6-32.6l0.1-0.6v0l8.2-65.6C315.1,315.2,314.6,314.7,314,314.7z"/>
	<path class="st2" d="M314,314.7h-87.6c-0.7,0-1.1,0.5-1,1.2l0.6,5.1h88.4l0.6-5.1C315.1,315.2,314.6,314.7,314,314.7z"/>
	<path class="st2" d="M306,479.1h-71.7c-1,0-1.7,0.8-1.7,1.7v2.2c0,1,0.8,1.7,1.7,1.7H306c1,0,1.7-0.8,1.7-1.7v-2.2
		C307.7,479.9,307,479.1,306,479.1z"/>
	<path class="st3" d="M306,477.4h-71.7c-1.9,0-3.5,1.6-3.5,3.5v2.2c0,1.9,1.6,3.5,3.5,3.5H306c1.9,0,3.5-1.6,3.5-3.5v-2.2
		C309.5,479,307.9,477.4,306,477.4z M306,484.9v-1.7V484.9z M306,483.1h-71.6v-2.2H306L306,483.1z"/>
	<path class="st2" d="M288.6,350.9l-10.5-1.5c-0.9-0.1-2.1-1-2.5-1.8l-4.7-9.5c-0.4-0.9-1.1-0.9-1.5,0l-4.7,9.5
		c-0.4,0.9-1.5,1.7-2.5,1.8l-10.5,1.5c-0.9,0.1-1.2,0.8-0.5,1.5l7.6,7.4c0.7,0.7,1.1,2,1,2.9l-1.8,10.4c-0.2,0.9,0.4,1.4,1.2,0.9
		l9.4-4.9c0.8-0.4,2.2-0.4,3.1,0l9.4,4.9c0.8,0.4,1.4,0,1.2-0.9l-1.8-10.4c-0.2-0.9,0.3-2.3,1-2.9l7.6-7.4
		C289.7,351.7,289.5,351,288.6,350.9z"/>
	<path class="st3" d="M314,312.9h-87.6c-0.8,0-1.6,0.3-2.1,0.9c-0.5,0.6-0.8,1.4-0.7,2.2l8.2,66.2c2.3,18.8,19.5,34.1,38.3,34.1
		s36-15.3,38.3-34.1l8.2-66.2c0.1-0.8-0.1-1.6-0.7-2.2C315.6,313.3,314.8,312.9,314,312.9z M305.1,381.8c-2.1,17.1-17.8,31-34.9,31
		s-32.8-13.9-34.9-31l-8.1-65.4h86L305.1,381.8z"/>
	<path class="st2" d="M313.9,307.3h-87.5c-2.4,0-4.4,2-4.4,4.4v0.5c0,2.4,2,4.4,4.4,4.4h87.5c2.4,0,4.4-2,4.4-4.4v-0.5
		C318.3,309.3,316.3,307.3,313.9,307.3z"/>
	<path class="st3" d="M313.9,305.6h-87.5c-3.4,0-6.1,2.7-6.1,6.1v0.5c0,3.4,2.7,6.1,6.1,6.1h87.5c3.4,0,6.1-2.7,6.1-6.1v-0.5
		C320,308.3,317.3,305.6,313.9,305.6z M316.6,312.2c0,1.4-1.2,2.6-2.6,2.6h-87.5c-1.4,0-2.6-1.2-2.6-2.6v-0.5c0-1.4,1.2-2.6,2.6-2.6
		h87.5c1.4,0,2.6,1.2,2.6,2.6V312.2z"/>
	<path class="st3" d="M301.7,452.7c-0.2-0.8-0.9-1.4-1.7-1.4h-59.6c-0.8,0-1.6,0.6-1.7,1.4l-4.9,26.1c-0.1,0.5,0,1,0.4,1.4
		c0.3,0.4,0.8,0.6,1.3,0.6h69.4c0,0,0,0,0,0c1,0,1.7-0.8,1.7-1.7c0-0.2,0-0.4-0.1-0.6L301.7,452.7z M237.6,477.4l4.2-22.6h56.7
		l4.2,22.6H237.6z"/>
	<path class="st2" d="M392,411.9c-0.2-0.5-0.6-0.8-1-1c-0.5-0.1-1-0.1-1.4,0.2c-0.8,0.5-1.7,0.8-2.4,0.8h-2.4
		c-2.2,0-5.4,0.9-7.3,1.9l-2.1,1.2c-0.4,0.2-1,0.4-1.6,0.5c-0.2,0-0.4,0.1-0.6,0.2c-0.2-0.1-0.4-0.2-0.6-0.2
		c-0.6-0.1-1.2-0.2-1.6-0.5l-2.1-1.2c-1.9-1.1-5.1-1.9-7.3-1.9h-2.4c-0.7,0-1.6-0.3-2.4-0.8c-0.4-0.3-0.9-0.3-1.4-0.2
		c-0.5,0.1-0.8,0.5-1,1l-18.3,45.7c-0.3,0.7-0.1,1.5,0.5,1.9c0.6,0.4,1.4,0.4,2,0l11.2-8.8l2,14.1c0.1,0.7,0.7,1.3,1.4,1.4
		c0.1,0,0.1,0,0.2,0c0.7,0,1.3-0.4,1.5-1l18.2-45.5l18.2,45.5c0.2,0.6,0.9,1,1.5,1c0.1,0,0.1,0,0.2,0c0.7-0.1,1.3-0.7,1.4-1.4
		l2-14.1l11.2,8.8c0.6,0.5,1.4,0.5,2,0c0.6-0.4,0.8-1.2,0.5-1.9L392,411.9z"/>
	<path class="st3" d="M393.7,411.2c-0.4-0.9-1.2-1.7-2.1-2c-1-0.3-2-0.1-2.9,0.4c-0.6,0.4-1.2,0.6-1.5,0.6h-2.4
		c-2.5,0-6,0.9-8.1,2.2l-2.1,1.2c-0.1,0.1-0.5,0.2-0.9,0.2c-0.1,0-0.3,0-0.4,0.1c-0.1,0-0.3-0.1-0.4-0.1c-0.4,0-0.7-0.2-0.9-0.2
		l-2.1-1.2c-2.2-1.2-5.7-2.2-8.1-2.2h-2.4c-0.3,0-0.9-0.2-1.5-0.6c-0.8-0.5-1.9-0.7-2.9-0.4c-1,0.3-1.7,1-2.1,2l-18.3,45.7
		c-0.6,1.4-0.1,3,1.1,4c1.2,0.9,2.9,0.9,4.1,0l8.8-6.9l1.6,11.1c0.2,1.5,1.4,2.7,2.9,2.9c1.5,0.2,3-0.7,3.5-2.1l16.6-41.4l16.6,41.4
		c0.5,1.3,1.7,2.1,3.1,2.1c0.1,0,0.3,0,0.4,0c1.5-0.2,2.7-1.4,2.9-2.9l1.6-11.1l8.8,6.9c0.6,0.5,1.3,0.7,2.1,0.7h0
		c0.7,0,1.4-0.2,2-0.7c1.2-0.9,1.7-2.5,1.1-4L393.7,411.2z M397.7,449.3c-0.5-0.4-1.1-0.5-1.7-0.2c-0.6,0.2-1,0.8-1.1,1.4l-2,13.7
		L374.9,419c-0.3-0.7-0.9-1.1-1.6-1.1c-0.7,0-1.4,0.4-1.6,1.1l-18.1,45.1l-2-13.7c-0.1-0.6-0.5-1.1-1.1-1.4
		c-0.2-0.1-0.4-0.1-0.6-0.1c-0.4,0-0.8,0.1-1.1,0.4l-10.8,8.5l18.1-45.2c1.1,0.7,2.2,1.1,3.3,1.1h2.4c1.9,0,4.8,0.8,6.4,1.7l2.1,1.2
		c0.6,0.4,1.4,0.6,2.2,0.7c0.5,0.3,1.1,0.3,1.6,0c0.9-0.1,1.6-0.3,2.3-0.7l2.1-1.2c1.6-0.9,4.5-1.7,6.4-1.7h2.4c1,0,2.2-0.4,3.3-1.1
		l18.1,45.2L397.7,449.3z"/>
	<path class="st2" d="M406.5,377.6c-0.8-1.4-1.5-4-1.5-5.6v-2.4c0-2.5-1.7-5.4-3.8-6.6l-2.1-1.2c-1.4-0.8-3.3-2.7-4.1-4.1l-1.2-2.1
		c-1.2-2.1-4.1-3.8-6.6-3.8h-2.4c-1.6,0-4.2-0.7-5.6-1.5l-2.1-1.2c-1-0.6-2.4-0.9-3.8-0.9c-1.4,0-2.8,0.3-3.8,0.9l-2.1,1.2
		c-1.4,0.8-4,1.5-5.6,1.5h-2.4c-2.5,0-5.4,1.7-6.6,3.8l-1.2,2.1c-0.8,1.4-2.7,3.3-4.1,4.1l-2.1,1.2c-2.1,1.2-3.8,4.1-3.8,6.6v2.4
		c0,1.6-0.7,4.2-1.5,5.6l-1.2,2.1c-1.2,2.1-1.2,5.5,0,7.6l1.2,2.1c0.8,1.4,1.5,4,1.5,5.6v2.4c0,2.5,1.7,5.4,3.8,6.6l2.1,1.2
		c1.4,0.8,3.3,2.7,4.1,4.1l1.2,2.1c0.5,0.9,1.3,1.7,2.4,2.4c1.4,0.9,2.8,1.4,4.2,1.4h2.4c1.6,0,4.2,0.7,5.6,1.5l2.1,1.2
		c0.8,0.5,1.8,0.8,2.9,0.9c0.3,0,0.6,0.1,0.9,0.1c0.3,0,0.6,0,0.9-0.1c1.1-0.1,2.1-0.4,2.9-0.9l2.1-1.2c1.4-0.8,4-1.5,5.6-1.5h2.4
		c1.4,0,2.9-0.5,4.2-1.4c1-0.7,1.9-1.5,2.4-2.4l1.2-2.1c0.8-1.4,2.7-3.3,4.1-4.1l2.1-1.2c2.1-1.2,3.8-4.1,3.8-6.6V395
		c0-1.6,0.7-4.2,1.5-5.6l1.2-2.1c1.2-2.1,1.2-5.5,0-7.6L406.5,377.6z"/>
	<path class="st3" d="M408.1,376.7c-0.7-1.1-1.3-3.5-1.3-4.8v-2.4c0-3.1-2-6.6-4.7-8.1l-2.1-1.2c-1.1-0.7-2.8-2.4-3.5-3.5l-1.2-2.1
		c-1.5-2.7-5-4.7-8.1-4.7h-2.4c-1.3,0-3.6-0.6-4.8-1.3l-2.1-1.2c-1.3-0.8-3-1.2-4.7-1.2c-1.7,0-3.4,0.4-4.7,1.2l-2.1,1.2
		c-1.1,0.7-3.5,1.3-4.8,1.3h-2.4c-3.1,0-6.6,2-8.1,4.7l-1.2,2.1c-0.7,1.1-2.4,2.8-3.5,3.5l-2.1,1.2c-2.7,1.5-4.7,5-4.7,8.1v2.4
		c0,1.3-0.6,3.6-1.3,4.8l-1.2,2.1c-1.5,2.7-1.5,6.7,0,9.4l1.2,2.1c0.7,1.1,1.3,3.5,1.3,4.8v2.4c0,3.1,2,6.6,4.7,8.1l2.1,1.2
		c1.1,0.7,2.8,2.4,3.5,3.5l1.2,2.1c0.7,1.1,1.7,2.2,2.9,3c1.6,1.1,3.5,1.7,5.2,1.7h2.4c1.3,0,3.6,0.6,4.8,1.3l2.1,1.2
		c1,0.6,2.2,1,3.5,1.1c0.4,0,0.8,0.1,1.1,0.1c0.4,0,0.8,0,1.1-0.1c1.3-0.1,2.5-0.5,3.6-1.1l2.1-1.2c1.1-0.7,3.5-1.3,4.8-1.3h2.4
		c1.7,0,3.5-0.6,5.2-1.7c1.3-0.8,2.3-1.9,3-3l1.2-2.1c0.7-1.1,2.4-2.8,3.5-3.5l2.1-1.2c2.7-1.5,4.7-5,4.7-8.1V395
		c0-1.3,0.6-3.6,1.3-4.8l1.2-2.1c1.5-2.7,1.5-6.7,0-9.4L408.1,376.7z M406.2,386.4l-1.2,2.1c-1,1.7-1.7,4.6-1.7,6.5v2.4
		c0,1.8-1.3,4.2-2.9,5.1l-2.1,1.2c-1.7,1-3.8,3.1-4.8,4.8l-1.2,2.1c-0.4,0.7-1,1.3-1.8,1.8c-1.1,0.7-2.2,1.1-3.2,1.1h-2.4
		c-1.9,0-4.8,0.8-6.5,1.7l-2.1,1.2c-0.6,0.3-1.3,0.6-2.2,0.7c-0.5,0.1-1,0.1-1.5,0c-0.8-0.1-1.6-0.3-2.2-0.7l-2.1-1.2
		c-1.7-1-4.6-1.7-6.5-1.7h-2.4c-1,0-2.2-0.4-3.2-1.1c-0.8-0.5-1.5-1.2-1.8-1.8l-1.2-2.1c-1-1.7-3.1-3.8-4.8-4.8l-2.1-1.2
		c-1.6-0.9-2.9-3.3-2.9-5.1V395c0-1.9-0.8-4.8-1.7-6.5l-1.2-2.1c-0.9-1.6-0.9-4.3,0-5.9l1.2-2.1c1-1.7,1.7-4.6,1.7-6.5v-2.4
		c0-1.8,1.3-4.2,2.9-5.1l2.1-1.2c1.7-1,3.8-3.1,4.8-4.8l1.2-2.1c0.9-1.6,3.3-2.9,5.1-2.9h2.4c1.9,0,4.8-0.8,6.5-1.7l2.1-1.2
		c1.5-0.9,4.3-0.9,5.9,0l2.1,1.2c1.7,1,4.6,1.7,6.5,1.7h2.4c1.8,0,4.2,1.3,5.1,2.9l1.2,2.1c1,1.7,3.1,3.8,4.8,4.8l2.1,1.2
		c1.6,0.9,2.9,3.3,2.9,5.1v2.4c0,1.9,0.8,4.8,1.7,6.5l1.2,2.1C407.2,382.1,407.2,384.8,406.2,386.4z"/>
	<path class="st1" d="M373.3,362.2c-11.7,0-21.2,9.5-21.2,21.2c0,11.7,9.5,21.2,21.2,21.2c11.7,0,21.2-9.5,21.2-21.2
		C394.5,371.8,385,362.2,373.3,362.2z"/>
</g>
</svg>
