<?xml version="1.0" encoding="utf-8"?>
<!-- Generator: Adobe Illustrator 19.0.1, SVG Export Plug-In . SVG Version: 6.00 Build 0)  -->
<svg version="1.1" id="Layer_1" xmlns="http://www.w3.org/2000/svg" xmlns:xlink="http://www.w3.org/1999/xlink" x="0px" y="0px"
	 viewBox="0 0 612 792" style="enable-background:new 0 0 612 792;" xml:space="preserve">
<style type="text/css">
	.st0{fill:#FFFFFF;}
	.st1{fill:#262A2C;}
	.st2{fill:#F7EC3D;}
</style>
<g>
	<path class="st0" d="M409,317H205c-2.8,0-5,2.3-5,5v132.7c0,2.8,2.3,5,5,5h204c2.8,0,5-2.3,5-5V322C414,319.3,411.7,317,409,317z"
		/>
	<path class="st1" d="M409,315H205c-3.9,0-7,3.1-7,7v132.7c0,3.9,3.1,7,7,7h204c3.9,0,7-3.1,7-7V322C416,318.1,412.9,315,409,315z
		 M412,454.7c0,1.7-1.3,3-3,3H205c-1.7,0-3-1.3-3-3V322c0-1.7,1.3-3,3-3h204c1.7,0,3,1.3,3,3V454.7z"/>
</g>
<g>
	<rect x="209.1" y="325.9" class="st0" width="195.8" height="124.9"/>
	<path class="st1" d="M404.9,323.9H209.1c-1.1,0-2,0.9-2,2v124.9c0,1.1,0.9,2,2,2h195.8c1.1,0,2-0.9,2-2V325.9
		C406.9,324.8,406,323.9,404.9,323.9z M402.9,448.8H211.1V327.9h191.8V448.8z"/>
</g>
<rect x="216.5" y="342.5" class="st2" width="180.9" height="91.7"/>
<g>
	<g>
		<path class="st0" d="M173.7,461.2c0,7.6,6.3,13.9,13.9,13.9h238.7c7.6,0,13.9-6.3,13.9-13.9v-1.9H173.7V461.2z"/>
		<path class="st1" d="M440.2,457.3H173.7c-1.1,0-2,0.9-2,2v1.9c0,8.8,7.1,15.9,15.9,15.9h238.7c8.8,0,15.9-7.1,15.9-15.9v-1.9
			C442.2,458.2,441.3,457.3,440.2,457.3z M426.4,473.1H187.6c-6.5,0-11.8-5.3-11.9-11.7h262.5C438.2,467.8,432.9,473.1,426.4,473.1z
			"/>
	</g>
	<path class="st1" d="M440.2,457.3H173.7c-1.1,0-2,0.9-2,2v1.9c0,8.8,7.1,15.9,15.9,15.9h238.7c8.8,0,15.9-7.1,15.9-15.9v-1.9
		C442.2,458.2,441.3,457.3,440.2,457.3z M426.4,473.1H187.6c-6.5,0-11.8-5.3-11.9-11.7h262.5C438.2,467.8,432.9,473.1,426.4,473.1z"
		/>
</g>
<g>
	<path class="st0" d="M307,361c-15.1,0-27.4,12.3-27.4,27.4c0,15.1,12.3,27.4,27.4,27.4s27.4-12.3,27.4-27.4
		C334.3,373.3,322.1,361,307,361z M307,411.7c-12.9,0-23.4-10.5-23.4-23.4c0-12.9,10.5-23.4,23.4-23.4c12.9,0,23.4,10.5,23.4,23.4
		C330.3,401.2,319.9,411.7,307,411.7z"/>
	<path class="st0" d="M318.4,387.3l-17.3-10c-1-0.5-1.7-0.1-1.7,1v19.9c0,1.1,0.8,1.5,1.7,1l17.3-10
		C319.3,388.8,319.3,387.9,318.4,387.3z"/>
</g>
<path class="st1" d="M397.4,439.5h-51.5c-1.1,0-2,0.9-2,2s0.9,2,2,2h51.5c1.1,0,2-0.9,2-2S398.5,439.5,397.4,439.5z"/>
<rect x="216.5" y="439.5" class="st2" width="129.4" height="4"/>
<circle class="st2" cx="345.9" cy="441.5" r="4.6"/>
<path class="st1" d="M272.2,422.9h-11c-1.1,0-2,0.9-2,2c0,1.1,0.9,2,2,2h11c1.1,0,2,0.9,2,2v24.9c0,1.1-0.9,2-2,2h-11
	c-1.1,0-2,0.9-2,2s0.9,2,2,2h11c3.3,0,6-2.7,6-6v-24.9C278.2,425.6,275.5,422.9,272.2,422.9z"/>
<g>
	<path class="st0" d="M222.4,415.6h-7.5v7.5V451v16.5c0,4.1,3.4,7.5,7.5,7.5h30.8c4.1,0,7.5-3.4,7.5-7.5V451v-27.9v-7.5h-7.5H222.4z
		"/>
	<path class="st1" d="M260.8,413.6h-45.8c-1.1,0-2,0.9-2,2v51.9c0,5.3,4.3,9.5,9.5,9.5h30.8c5.2,0,9.5-4.3,9.5-9.5v-51.9
		C262.8,414.5,261.9,413.6,260.8,413.6z M258.8,467.5c0,3-2.5,5.5-5.5,5.5h-30.8c-3,0-5.5-2.5-5.5-5.5v-49.9h41.8V467.5z"/>
</g>
<path class="st2" d="M219.9,464.2c0,3.2,2.7,5.9,5.9,5.9h24.1c3.2,0,5.9-2.7,5.9-5.9v-24.9h-35.9V464.2z"/>
<path class="st1" d="M219.9,395.2c-1.1,0-2,0.9-2,2v8.1c0,1.1,0.9,2,2,2c1.1,0,2-0.9,2-2v-8.1C221.9,396.1,221,395.2,219.9,395.2z"
	/>
<path class="st1" d="M219.9,378.3c-1.1,0-2,0.9-2,2v5.3c0,1.1,0.9,2,2,2c1.1,0,2-0.9,2-2v-5.3C221.9,379.2,221,378.3,219.9,378.3z"
	/>
<path class="st1" d="M256.5,391.8c-1.1,0-2,0.9-2,2v5.5c0,1.1,0.9,2,2,2c1.1,0,2-0.9,2-2v-5.5C258.5,392.7,257.6,391.8,256.5,391.8z
	"/>
<path class="st1" d="M256.5,378.6c-1.1,0-2,0.9-2,2v2.8c0,1.1,0.9,2,2,2c1.1,0,2-0.9,2-2v-2.8C258.5,379.5,257.6,378.6,256.5,378.6z
	"/>
<path class="st1" d="M231.9,385.2c-1.1,0-2,0.9-2,2v12.1c0,1.1,0.9,2,2,2c1.1,0,2-0.9,2-2v-12.1C233.9,386.1,233,385.2,231.9,385.2z
	"/>
<path class="st1" d="M231.9,355.8c-1.1,0-2,0.9-2,2v7.3c0,1.1,0.9,2,2,2c1.1,0,2-0.9,2-2v-7.3C233.9,356.7,233,355.8,231.9,355.8z"
	/>
<path class="st1" d="M243.8,397.3c-1.1,0-2,0.9-2,2v6c0,1.1,0.9,2,2,2c1.1,0,2-0.9,2-2v-6C245.8,398.2,244.9,397.3,243.8,397.3z"/>
<path class="st1" d="M243.8,372.1c-1.1,0-2,0.9-2,2v8c0,1.1,0.9,2,2,2c1.1,0,2-0.9,2-2v-8C245.8,373,244.9,372.1,243.8,372.1z"/>
</svg>
