<?xml version="1.0" encoding="utf-8"?>
<!-- Generator: Adobe Illustrator 19.0.1, SVG Export Plug-In . SVG Version: 6.00 Build 0)  -->
<svg version="1.1" id="Layer_1" xmlns="http://www.w3.org/2000/svg" xmlns:xlink="http://www.w3.org/1999/xlink" x="0px" y="0px"
	 viewBox="0 0 612 792" style="enable-background:new 0 0 612 792;" xml:space="preserve">
<style type="text/css">
	.st0{fill:#FBF6B1;}
	.st1{fill:#F7EC3D;}
	.st2{fill:#262A2C;}
	.st3{fill:#FFFFFF;}
	.st4{fill:#48BB8C;}
	.st5{fill:#C2C3C3;}
</style>
<circle class="st0" cx="288.6" cy="396.2" r="146.9"/>
<path class="st1" d="M287.7,459.2c-36.6,0-68.1,23.2-80.9,55.7c23.1,15.6,50.9,24.7,80.9,24.7c30,0,57.8-9.1,80.9-24.7
	C355.8,482.4,324.3,459.2,287.7,459.2z"/>
<path class="st2" d="M287.7,456.4c-36.5,0-70,23.1-83.5,57.5c-0.5,1.2,0,2.6,1,3.4c24.4,16.5,52.9,25.2,82.5,25.2
	c29.6,0,58.1-8.7,82.5-25.2c1.1-0.7,1.5-2.1,1-3.4C357.7,479.5,324.2,456.4,287.7,456.4z M287.7,536.8c-27.7,0-54.4-7.9-77.4-23
	c13.2-31.1,44-51.8,77.4-51.8c33.4,0,64.2,20.7,77.4,51.8C342.1,528.9,315.4,536.8,287.7,536.8z"/>
<polygon class="st3" points="287.4,540.6 311.8,499.7 263,499.7 "/>
<g>
	<rect x="254" y="462.4" class="st4" width="66.8" height="9.6"/>
	<path class="st2" d="M320.8,459.6H254c-1.6,0-2.8,1.3-2.8,2.8v9.6c0,1.6,1.3,2.8,2.8,2.8h66.8c1.6,0,2.8-1.3,2.8-2.8v-9.6
		C323.6,460.9,322.4,459.6,320.8,459.6z M318,469.2h-61.1v-3.9H318V469.2z"/>
</g>
<g>
	<circle class="st3" cx="230.4" cy="370" r="10.6"/>
	<path class="st2" d="M230.4,356.5c-7.4,0-13.4,6-13.4,13.4c0,7.4,6,13.4,13.4,13.4c7.4,0,13.4-6,13.4-13.4
		C243.8,362.6,237.8,356.5,230.4,356.5z M230.4,377.8c-4.3,0-7.8-3.5-7.8-7.8c0-4.3,3.5-7.8,7.8-7.8c4.3,0,7.8,3.5,7.8,7.8
		C238.2,374.3,234.7,377.8,230.4,377.8z"/>
</g>
<g>
	<path class="st3" d="M287.7,275.8c-34.6,0-62.7,25.9-62.7,57.8c0,9.3,2.4,18,6.6,25.8l112.2,0.1c4.2-7.8,6.6-16.6,6.6-25.9
		C350.4,301.7,322.3,275.8,287.7,275.8z"/>
	<path class="st2" d="M287.7,273c-36.1,0-65.5,27.2-65.5,60.7c0,9.5,2.3,18.7,6.9,27.1c0.7,1.4,2.5,1.9,3.8,1.1
		c1.4-0.7,1.9-2.5,1.1-3.8c-4.1-7.6-6.2-15.9-6.2-24.5c0-30.3,26.8-55,59.8-55c33,0,59.8,24.7,59.8,55c0,8.6-2.1,16.9-6.3,24.5
		c-0.7,1.4-0.2,3.1,1.1,3.8c0.4,0.2,0.9,0.3,1.3,0.3c1,0,2-0.5,2.5-1.5c4.6-8.5,7-17.7,7-27.2C353.2,300.2,323.8,273,287.7,273z"/>
</g>
<path class="st1" d="M287.7,275.8c-26.4,0-48.9,15-58.2,36.3c11.6-14.5,30.6-24,51.9-24c35.4,0,64,25.9,64,57.8
	c0,4.7-0.6,9.3-1.8,13.7c4.3-7.8,6.7-16.6,6.7-26C350.4,301.7,322.3,275.8,287.7,275.8z"/>
<g>
	<path class="st3" d="M260.8,482.5c0,9.7,12,17.5,26.9,17.5c14.8,0,26.9-7.9,26.9-17.5v-62h-53.7V482.5z"/>
	<path class="st2" d="M314.6,417.7h-53.7c-1.6,0-2.8,1.3-2.8,2.8v62c0,11.4,13,20.4,29.7,20.4c16.7,0,29.7-8.9,29.7-20.4v-62
		C317.4,419,316.1,417.7,314.6,417.7z M311.7,482.5c0,8-11,14.7-24,14.7c-13,0-24-6.7-24-14.7v-59.2h48.1V482.5z"/>
</g>
<g>
	<path class="st3" d="M290.1,298.4h-4.8c-30.2,0-55,24.7-55,55v42c0,30.2,24.7,55,55,55h4.8c30.2,0,55-24.7,55-55v-42
		C345,323.2,320.3,298.4,290.1,298.4z"/>
	<g>
		<path class="st3" d="M230.4,395.4c0,30.2,24.7,55,55,55h4.8c30.2,0,55-24.7,55-55v-42H230.4V395.4z"/>
		<path class="st2" d="M345,350.6c-1.6,0-2.8,1.3-2.8,2.8v42c0,28.7-23.4,52.1-52.1,52.1h-4.8c-28.7,0-52.1-23.4-52.1-52.1v-42
			c0-1.6-1.3-2.8-2.8-2.8c-1.6,0-2.8,1.3-2.8,2.8v42c0,31.9,25.9,57.8,57.8,57.8h4.8c31.9,0,57.8-25.9,57.8-57.8v-42
			C347.9,351.8,346.6,350.6,345,350.6z"/>
	</g>
</g>
<g>
	<g>
		<path class="st3" d="M214,320.5c0,15.2,25.1,27.5,56.1,27.5c31,0,56.1-12.3,56.1-27.5l-83.6-1.7C237.8,324.4,214,320.5,214,320.5z
			"/>
		<path class="st2" d="M326.3,317.7c-1.6,0-2.8,1.3-2.8,2.8c0,13.4-24.4,24.7-53.3,24.7c-26.5,0-49.2-9.5-52.8-21.4
			c8.1,1,22.9,2.1,27.5-3.2c1-1.2,0.9-3-0.3-4c-1.2-1-3-0.9-4,0.3c-2.4,2.7-15.4,2.5-26.1,0.8c-0.8-0.1-1.7,0.1-2.3,0.6
			c-0.6,0.5-1,1.3-1,2.1c0,17,25.9,30.4,59,30.4c33.1,0,59-13.3,59-30.4C329.1,319,327.9,317.7,326.3,317.7z"/>
	</g>
</g>
<path class="st5" d="M216.7,323.8c2,14.3,25.2,23.1,54.4,23.1c21,0,40.4-8.7,49.7-17.3c-10.7,6.5-28.6,12.3-47.4,12.3
	C245.3,341.9,224.6,332.2,216.7,323.8z"/>
<path class="st2" d="M303.5,392.2h-31.6c-1.6,0-2.8,1.3-2.8,2.8c0,10.3,8.3,18.6,18.6,18.6s18.6-8.3,18.6-18.6
	C306.3,393.5,305,392.2,303.5,392.2z M287.7,408c-6.2,0-11.4-4.3-12.7-10.1h25.3C299.1,403.7,293.9,408,287.7,408z"/>
<g>
	<path class="st3" d="M345,351.4l-21.8-21.8C323.2,341.7,333,351.4,345,351.4z"/>
	<path class="st2" d="M345,348.6c-10.5,0-19-8.5-19-19c0-1.6-1.3-2.8-2.8-2.8c-1.6,0-2.8,1.3-2.8,2.8c0,13.6,11.1,24.7,24.7,24.7
		c1.6,0,2.8-1.3,2.8-2.8C347.9,349.9,346.6,348.6,345,348.6z"/>
</g>
<g>
	<path class="st3" d="M244.5,346l-14.5,5.5C235.6,351.4,240.7,349.4,244.5,346z"/>
	<path class="st2" d="M242.7,343.8c-3.5,3.1-8,4.8-12.6,4.8c-1.6,0-2.8,1.3-2.8,2.8c0,1.6,1.3,2.8,2.8,2.8c6,0,11.8-2.2,16.3-6.2
		c1.2-1,1.3-2.8,0.2-4C245.6,342.9,243.8,342.8,242.7,343.8z"/>
</g>
<g>
	<path class="st2" d="M326.3,317.7c-1.6,0-2.8,1.3-2.8,2.8c0,13.4-24.4,24.7-53.3,24.7c-26.5,0-49.2-9.5-52.8-21.4
		c8.1,1,22.9,2.1,27.5-3.2c1-1.2,0.9-3-0.3-4c-1.2-1-3-0.9-4,0.3c-2.4,2.7-15.4,2.5-26.1,0.8c-0.8-0.1-1.7,0.1-2.3,0.6
		c-0.6,0.5-1,1.3-1,2.1c0,17,25.9,30.4,59,30.4c33.1,0,59-13.3,59-30.4C329.1,319,327.9,317.7,326.3,317.7z"/>
</g>
<path class="st2" d="M287.7,273c-31,0-57.9,20.4-64.2,48.4c-0.3,1.5,0.6,3,2.1,3.4c1.5,0.3,3-0.6,3.4-2.1c5.6-25.5,30.3-44,58.6-44
	c33,0,59.8,24.7,59.8,55c0,6.1-1.1,12.1-3.2,17.8c-0.5,1.5,0.2,3.1,1.7,3.6c0.3,0.1,0.7,0.2,1,0.2c1.1,0,2.2-0.7,2.6-1.8
	c2.4-6.3,3.6-13,3.6-19.8C353.2,300.2,323.8,273,287.7,273z"/>
<g>
	<circle class="st2" cx="260.5" cy="370.1" r="5.7"/>
	<circle class="st2" cx="314.9" cy="370.1" r="5.7"/>
</g>
<g>
	<path class="st3" d="M345.5,359.3v21.2c5.9,0,10.6-4.8,10.6-10.6C356.1,364.1,351.4,359.3,345.5,359.3z"/>
	<path class="st2" d="M345.5,356.5c-1.6,0-2.8,1.3-2.8,2.8v21.2c0,1.6,1.3,2.8,2.8,2.8c7.4,0,13.4-6,13.4-13.4
		C359,362.6,352.9,356.5,345.5,356.5z M348.3,377.2v-14.5c2.9,1.1,5,4,5,7.3C353.3,373.3,351.3,376.1,348.3,377.2z"/>
</g>
<path class="st1" d="M295.9,496.6h-16.5c-3.6,0-5.1,3.4-3.3,6.5l5.7,10h11.6l5.7-10C301.1,500,299.6,496.6,295.9,496.6z"/>
<path class="st2" d="M295.9,493.8h-16.5c-2.6,0-4.8,1.2-6,3.3c-1.3,2.2-1.2,5,0.3,7.5l5.7,10c0.5,0.9,1.4,1.4,2.4,1.4h11.6
	c1,0,1.9-0.5,2.4-1.4l5.7-10c1.4-2.5,1.5-5.3,0.3-7.5C300.8,495,298.6,493.8,295.9,493.8z M296.8,501.8l-4.9,8.5h-8.3l-4.9-8.5
	c-0.5-0.9-0.5-1.5-0.3-1.9c0.2-0.4,0.7-0.4,1.1-0.4h16.5c0.4,0,0.9,0.1,1.1,0.4C297.3,500.2,297.3,500.9,296.8,501.8z"/>
<path class="st1" d="M281.9,513.1l-2.3,24.7c2.7,0.2,5.4,0.3,8.1,0.3c2.7,0,5.4-0.1,8-0.3l-2.3-24.7H281.9z"/>
<path class="st2" d="M293.4,510.3h-11.5c-1.5,0-2.7,1.1-2.8,2.6l-2.3,24.7c-0.1,0.8,0.2,1.5,0.7,2.1c0.5,0.6,1.2,0.9,2,1
	c2.8,0.2,5.6,0.3,8.3,0.3c2.6,0,5.4-0.1,8.2-0.3c0.8-0.1,1.5-0.4,2-1c0.5-0.6,0.7-1.3,0.7-2.1l-2.3-24.7
	C296.1,511.4,294.9,510.3,293.4,510.3z M282.7,535.2l1.8-19.2h6.4l1.8,19.2C289.2,535.3,286.1,535.3,282.7,535.2z"/>
<g>
	<polygon class="st3" points="247.2,478.9 273,513.3 287.5,496.6 256.8,472 	"/>
	<path class="st2" d="M289.3,494.4l-30.7-24.6c-1-0.8-2.4-0.8-3.4-0.1l-9.6,6.9c-0.6,0.4-1,1.1-1.1,1.9c-0.1,0.8,0.1,1.5,0.5,2.1
		l25.8,34.4c0.5,0.7,1.3,1.1,2.2,1.1c0,0,0.1,0,0.1,0c0.8,0,1.6-0.4,2.1-1l14.5-16.7c0.5-0.6,0.8-1.3,0.7-2.1
		C290.2,495.6,289.9,494.9,289.3,494.4z M273.2,508.8l-22-29.3l5.5-3.9l26.8,21.4L273.2,508.8z"/>
</g>
<g>
	<polygon class="st3" points="287.9,496.6 302.4,513.3 328.2,478.9 318.6,472 	"/>
	<path class="st2" d="M329.9,476.6l-9.6-6.9c-1-0.7-2.4-0.7-3.4,0.1l-30.7,24.6c-0.6,0.5-1,1.2-1,2c-0.1,0.8,0.2,1.5,0.7,2.1
		l14.5,16.7c0.5,0.6,1.3,1,2.1,1c0,0,0.1,0,0.1,0c0.9,0,1.6-0.4,2.2-1.1l25.8-34.4c0.5-0.6,0.6-1.4,0.5-2.1
		C330.9,477.7,330.5,477,329.9,476.6z M302.2,508.8L292,497l26.8-21.4l5.5,3.9L302.2,508.8z"/>
</g>
<path class="st1" d="M254,462.4l-10.5,4.9l-2.8,16.6l9.9,4.8l-7.5,11.9l32.2,36c2.4,0.2,4.8,0.3,7.2,0.4l-17.2-45.2L254,462.4z"/>
<path class="st2" d="M256.7,461.4c-0.3-0.7-0.8-1.3-1.6-1.6c-0.7-0.3-1.5-0.3-2.3,0.1l-10.5,4.9c-0.8,0.4-1.4,1.2-1.6,2.1l-2.8,16.6
	c-0.2,1.2,0.4,2.5,1.6,3l7,3.4l-5.8,9.2c-0.7,1.1-0.6,2.5,0.3,3.4l32.2,36c0.5,0.5,1.2,0.9,1.9,0.9c2.3,0.2,4.8,0.3,7.3,0.4
	c0,0,0.1,0,0.1,0c0.9,0,1.8-0.4,2.3-1.2c0.6-0.8,0.7-1.8,0.3-2.6L256.7,461.4z M276.6,533.8l-30-33.5l6.4-10.1
	c0.4-0.7,0.5-1.5,0.3-2.3c-0.2-0.8-0.8-1.4-1.5-1.8l-8-3.9l2.2-13l6.4-3l25.8,67.6C277.7,533.9,277.1,533.8,276.6,533.8z"/>
<path class="st1" d="M331.9,467.4L331.9,467.4l-10.5-4.9l-11.1,29.1L293,536.9c2.4-0.1,4.8-0.2,7.2-0.4l32.2-36l-7.5-11.9l9.9-4.8
	L331.9,467.4z"/>
<path class="st2" d="M334.7,466.9c-0.2-0.9-0.8-1.7-1.6-2.1l-10.5-4.9c-0.7-0.3-1.5-0.3-2.3-0.1c-0.7,0.3-1.3,0.9-1.6,1.6
	l-28.4,74.5c-0.3,0.9-0.2,1.9,0.3,2.6c0.5,0.7,1.4,1.2,2.3,1.2c0,0,0.1,0,0.1,0c2.5-0.1,4.9-0.2,7.3-0.4c0.7-0.1,1.4-0.4,1.9-0.9
	l32.2-36c0.8-0.9,1-2.3,0.3-3.4l-5.8-9.2l7-3.4c1.1-0.5,1.8-1.8,1.6-3L334.7,466.9z M323.6,486.1c-0.7,0.4-1.3,1-1.5,1.8
	c-0.2,0.8-0.1,1.6,0.3,2.3l6.4,10.1l-30,33.5c-0.5,0-1.1,0.1-1.6,0.1l25.8-67.6l6.4,3l2.2,13L323.6,486.1z"/>
<g>
	<path class="st3" d="M462.9,293.4h-86.3c-2.6,0-4.7,2.1-4.7,4.7v70.7c0,2.6,2.1,4.7,4.7,4.7h14.2l-20.7,23.7l60.8-23.7h32
		c2.6,0,4.7-2.1,4.7-4.7v-70.7C467.6,295.5,465.5,293.4,462.9,293.4z"/>
	<path class="st2" d="M462.9,290.6h-86.3c-4.1,0-7.5,3.4-7.5,7.5v70.7c0,4.1,3.4,7.5,7.5,7.5h8l-16.6,19c-0.9,1-0.9,2.4-0.2,3.5
		c0.5,0.8,1.4,1.2,2.3,1.2c0.3,0,0.7-0.1,1-0.2l60.3-23.5h31.5c4.1,0,7.5-3.4,7.5-7.5v-70.7C470.4,294,467.1,290.6,462.9,290.6z
		 M464.8,368.8c0,1-0.8,1.9-1.9,1.9h-32c-0.4,0-0.7,0.1-1,0.2l-50.1,19.5l13.1-15c0.7-0.8,0.9-2,0.4-3c-0.5-1-1.5-1.7-2.6-1.7h-14.2
		c-1,0-1.9-0.8-1.9-1.9v-70.7c0-1,0.8-1.9,1.9-1.9h86.3c1,0,1.9,0.8,1.9,1.9V368.8z"/>
</g>
<g>
	<path d="M430.3,332c-1-0.9-2.1-1.6-3.3-2.1c-1.2-0.5-2.9-1-5-1.6v-10.6c2.1,0.7,3.5,2.1,4,4.2c0.5,1.8,1.6,2.7,3.2,2.7
		c0.9,0,1.6-0.3,2.2-0.9c0.6-0.6,0.9-1.4,0.9-2.2c0-0.8-0.2-1.6-0.6-2.5c-0.4-0.9-1-1.8-1.8-2.7c-1-1.1-2.1-2-3.4-2.5
		c-1.3-0.6-2.8-0.9-4.7-1.1V310c0-1.4-0.5-2.1-1.6-2.1c-1.1,0-1.6,0.7-1.6,2.1v2.7c-3.5,0.3-6.2,1.4-8,3.3c-1.9,1.9-2.8,4.3-2.8,7.2
		c0,2.2,0.5,4.1,1.4,5.5c0.9,1.4,2.2,2.5,3.7,3.3c1.5,0.8,3.4,1.5,5.7,2.1v11.8c-1.1-0.3-2-0.8-2.7-1.4c-0.7-0.6-1.2-1.3-1.5-2
		c-0.3-0.7-0.7-1.8-1.2-3.2c-0.2-0.6-0.6-1.1-1.1-1.5c-0.5-0.4-1.2-0.5-1.9-0.5c-0.9,0-1.7,0.3-2.4,1c-0.6,0.7-1,1.4-1,2.2
		c0,1.1,0.2,2.2,0.7,3.4c0.5,1.1,1.2,2.2,2.2,3.3c1,1.1,2.2,1.9,3.7,2.7c1.5,0.7,3.2,1.2,5.2,1.4v6.9c0,0.8,0.1,1.4,0.4,1.7
		c0.2,0.4,0.7,0.6,1.3,0.6c0.7,0,1.1-0.2,1.3-0.7c0.2-0.5,0.3-1.2,0.3-2.2v-6.3c2.4-0.2,4.5-0.8,6.3-1.9c1.8-1.1,3.1-2.4,4-4.1
		c0.9-1.7,1.4-3.5,1.4-5.4c0-1.5-0.3-3-0.9-4.3C432.2,334.1,431.4,333,430.3,332z M418.8,327.5c-1.5-0.6-2.7-1.2-3.4-1.9
		c-0.7-0.7-1.1-1.7-1.1-3c0-1.4,0.4-2.5,1.2-3.1c0.8-0.7,1.9-1.3,3.3-1.7V327.5z M426,344.1c-0.9,1-2.3,1.7-4,2.1V335
		c1.8,0.6,3.1,1.2,4,2c0.9,0.8,1.4,1.9,1.4,3.4C427.3,341.8,426.9,343,426,344.1z"/>
</g>
</svg>
