<?xml version="1.0" encoding="utf-8"?>
<!-- Generator: Adobe Illustrator 19.0.1, SVG Export Plug-In . SVG Version: 6.00 Build 0)  -->
<svg version="1.1" id="Layer_1" xmlns="http://www.w3.org/2000/svg" xmlns:xlink="http://www.w3.org/1999/xlink" x="0px" y="0px"
	 viewBox="0 0 612 792" style="enable-background:new 0 0 612 792;" xml:space="preserve">
<style type="text/css">
	.st0{fill:#262A2C;}
	.st1{fill:#FFFFFF;}
	.st2{fill:#F7EC3D;}
	.st3{fill:#F7EC3C;}
</style>
<g>
	<path class="st0" d="M306.7,456.9c-1.1,0-2,0.9-2,2v10.6c0,1.1,0.9,2,2,2s2-0.9,2-2v-10.6C308.7,457.8,307.8,456.9,306.7,456.9z"/>
	<path class="st0" d="M306.7,480c-1.1,0-2,0.9-2,2v10.6c0,1.1,0.9,2,2,2s2-0.9,2-2V482C308.7,480.9,307.8,480,306.7,480z"/>
	<path class="st0" d="M323.6,473.7H313c-1.1,0-2,0.9-2,2s0.9,2,2,2h10.6c1.1,0,2-0.9,2-2S324.7,473.7,323.6,473.7z"/>
	<path class="st0" d="M300.4,473.7h-10.6c-1.1,0-2,0.9-2,2s0.9,2,2,2h10.6c1.1,0,2-0.9,2-2S301.5,473.7,300.4,473.7z"/>
</g>
<g>
	<path class="st0" d="M306.7,296.7c-1.1,0-2,0.9-2,2v10.6c0,1.1,0.9,2,2,2s2-0.9,2-2v-10.6C308.7,297.6,307.8,296.7,306.7,296.7z"/>
	<path class="st0" d="M306.7,319.9c-1.1,0-2,0.9-2,2v10.6c0,1.1,0.9,2,2,2s2-0.9,2-2v-10.6C308.7,320.8,307.8,319.9,306.7,319.9z"/>
	<path class="st0" d="M323.6,313.6H313c-1.1,0-2,0.9-2,2s0.9,2,2,2h10.6c1.1,0,2-0.9,2-2S324.7,313.6,323.6,313.6z"/>
	<path class="st0" d="M300.4,313.6h-10.6c-1.1,0-2,0.9-2,2s0.9,2,2,2h10.6c1.1,0,2-0.9,2-2S301.5,313.6,300.4,313.6z"/>
</g>
<g>
	<path class="st0" d="M385.3,374c-1.1,0-2,0.9-2,2v10.6c0,1.1,0.9,2,2,2c1.1,0,2-0.9,2-2V376C387.3,374.9,386.4,374,385.3,374z"/>
	<path class="st0" d="M385.3,397.1c-1.1,0-2,0.9-2,2v10.6c0,1.1,0.9,2,2,2c1.1,0,2-0.9,2-2v-10.6C387.3,398,386.4,397.1,385.3,397.1
		z"/>
	<path class="st0" d="M402.2,390.8h-10.6c-1.1,0-2,0.9-2,2s0.9,2,2,2h10.6c1.1,0,2-0.9,2-2S403.3,390.8,402.2,390.8z"/>
	<path class="st0" d="M379,390.8h-10.6c-1.1,0-2,0.9-2,2s0.9,2,2,2H379c1.1,0,2-0.9,2-2S380.1,390.8,379,390.8z"/>
</g>
<g>
	<path class="st0" d="M228.1,374c-1.1,0-2,0.9-2,2v10.6c0,1.1,0.9,2,2,2c1.1,0,2-0.9,2-2V376C230.1,374.9,229.2,374,228.1,374z"/>
	<path class="st0" d="M228.1,397.1c-1.1,0-2,0.9-2,2v10.6c0,1.1,0.9,2,2,2c1.1,0,2-0.9,2-2v-10.6C230.1,398,229.2,397.1,228.1,397.1
		z"/>
	<path class="st0" d="M245,390.8h-10.6c-1.1,0-2,0.9-2,2s0.9,2,2,2H245c1.1,0,2-0.9,2-2S246.1,390.8,245,390.8z"/>
	<path class="st0" d="M221.9,390.8h-10.6c-1.1,0-2,0.9-2,2s0.9,2,2,2h10.6c1.1,0,2-0.9,2-2S223,390.8,221.9,390.8z"/>
</g>
<g>
	<path class="st1" d="M385.7,330.7c-1.8,1.8-4.6,1.8-6.4,0l-7.7-7.7c-1.8-1.8-1.8-4.6,0-6.4l16.1-16.1c-9.2-3.8-20.2-1.9-27.7,5.6
		c-7.2,7.2-9.2,17.6-6,26.6L243.9,442.9c-9-3.2-19.4-1.2-26.6,6c-7.5,7.5-9.4,18.5-5.6,27.7l16.1-16.1c1.8-1.8,4.6-1.8,6.4,0
		l7.7,7.7c1.8,1.8,1.8,4.6,0,6.4l-16.1,16.1c9.2,3.8,20.2,1.9,27.7-5.6c7.2-7.2,9.2-17.6,6-26.6l110.2-110.2c9,3.2,19.4,1.2,26.6-6
		c7.5-7.5,9.4-18.5,5.6-27.7L385.7,330.7z"/>
	<path class="st0" d="M402.2,312.7c-0.7-0.1-1.3,0.1-1.8,0.5l-16.1,16.1c-0.9,0.9-2.6,0.9-3.5,0l-7.7-7.7c-0.5-0.5-0.7-1.1-0.7-1.8
		c0-0.7,0.3-1.3,0.7-1.8l16.1-16.1c0.5-0.5,0.7-1.2,0.5-1.8c-0.1-0.7-0.6-1.2-1.2-1.5c-3.3-1.3-6.8-2-10.4-2
		c-7.4,0-14.3,2.9-19.5,8.1c-7.2,7.2-9.8,17.8-6.9,27.4L243.3,440.7c-2.6-0.8-5.3-1.2-8-1.2c-7.4,0-14.3,2.9-19.5,8.1
		c-7.9,7.9-10.2,19.6-6,29.9c0.3,0.6,0.8,1.1,1.5,1.2c0.7,0.1,1.3-0.1,1.8-0.5l16.1-16.1c0.9-0.9,2.6-0.9,3.5,0l7.7,7.7
		c1,1,1,2.6,0,3.5l-16.1,16.1c-0.5,0.5-0.7,1.2-0.5,1.8c0.1,0.7,0.6,1.2,1.2,1.5c3.3,1.3,6.8,2,10.4,2h0c7.4,0,14.3-2.9,19.5-8.1
		c7.2-7.2,9.8-17.8,6.9-27.4l108.4-108.4c2.6,0.8,5.3,1.2,8,1.2c7.4,0,14.3-2.9,19.5-8.1c7.9-7.9,10.2-19.6,6-29.9
		C403.4,313.3,402.8,312.8,402.2,312.7z M394.8,340.9c-4.4,4.4-10.4,6.9-16.6,6.9c-2.7,0-5.3-0.5-7.8-1.3c-0.7-0.3-1.5-0.1-2.1,0.5
		L258,457.1c-0.5,0.5-0.7,1.4-0.5,2.1c3,8.5,0.8,18.1-5.6,24.5c-4.4,4.4-10.4,6.9-16.6,6.9c-2,0-4-0.3-5.9-0.8l13.8-13.8
		c2.5-2.5,2.5-6.7,0-9.2l-7.7-7.7c-1.2-1.2-2.9-1.9-4.6-1.9c-1.7,0-3.4,0.7-4.6,1.9L212.6,473c-2.1-8,0.2-16.6,6.1-22.6
		c4.4-4.4,10.4-6.9,16.6-6.9c2.7,0,5.3,0.5,7.8,1.3c0.7,0.3,1.5,0.1,2.1-0.5l110.2-110.2c0.5-0.5,0.7-1.4,0.5-2.1
		c-3-8.5-0.8-18.1,5.6-24.5c4.4-4.4,10.4-6.9,16.6-6.9c2,0,4,0.3,5.9,0.8l-13.8,13.8c-1.2,1.2-1.9,2.9-1.9,4.6
		c0,1.7,0.7,3.4,1.9,4.6l7.7,7.7c1.2,1.2,2.9,1.9,4.6,1.9c1.7,0,3.4-0.7,4.6-1.9l13.8-13.8C403,326.4,400.7,334.9,394.8,340.9z"/>
</g>
<path class="st0" d="M352,341.7l-32.5,32.5c-0.8,0.8-0.8,2,0,2.8c0.4,0.4,0.9,0.6,1.4,0.6s1-0.2,1.4-0.6l32.5-32.5
	c0.8-0.8,0.8-2,0-2.8C354.1,340.9,352.8,340.9,352,341.7z"/>
<path class="st0" d="M310.5,383.3l-8.5,8.5c-0.8,0.8-0.8,2,0,2.8c0.4,0.4,0.9,0.6,1.4,0.6c0.5,0,1-0.2,1.4-0.6l8.5-8.5
	c0.8-0.8,0.8-2,0-2.8C312.5,382.5,311.2,382.5,310.5,383.3z"/>
<path class="st0" d="M291.9,401.8l-22.4,22.4c-0.8,0.8-0.8,2,0,2.8c0.4,0.4,0.9,0.6,1.4,0.6c0.5,0,1-0.2,1.4-0.6l22.4-22.4
	c0.8-0.8,0.8-2,0-2.8C294,401,292.7,401,291.9,401.8z"/>
<path class="st2" d="M331.2,401.9l-19,19l64.1,64.1c4.5,4.5,12.5,4,17.7-1.3c5.2-5.2,5.8-13.2,1.3-17.7L331.2,401.9z"/>
<rect x="320.9" y="400" transform="matrix(-0.7071 -0.7071 0.7071 -0.7071 260.2585 934.627)" class="st1" width="5.7" height="26.9"/>
<path class="st1" d="M312.2,420.9l64.1,64.1c2.8,2.8,6.8,3.6,10.8,2.7l-70.8-70.8L312.2,420.9z"/>
<g>
	<polygon class="st1" points="257,338.7 245.9,323.1 245.9,323.1 245.8,323 245.7,322.9 245.7,322.9 223,302.5 212.8,312.8 
		233.2,335.4 233.2,335.4 233.3,335.5 233.4,335.6 233.4,335.6 249,346.7 314.1,411.8 322,403.8 257,338.8 	"/>
	<path class="st0" d="M258.8,337.7c0-0.1-0.1-0.1-0.1-0.2l-10.9-15.3c-0.1-0.3-0.3-0.5-0.5-0.7l0,0c-0.1-0.1-0.2-0.2-0.3-0.3
		L224.4,301c-0.8-0.7-2-0.7-2.8,0.1l-10.3,10.3c-0.8,0.8-0.8,2-0.1,2.8l20.4,22.7c0,0,0.1,0.1,0.1,0.1l0.1,0.1
		c0.2,0.2,0.4,0.4,0.6,0.5l15.2,10.9l64.9,64.9c0.4,0.4,0.9,0.6,1.4,0.6c0.5,0,1-0.2,1.4-0.6l8-8c0.4-0.4,0.6-0.9,0.6-1.4
		c0-0.5-0.2-1-0.6-1.4L258.8,337.7z M314.1,409l-63.6-63.6c-0.1-0.1-0.2-0.1-0.3-0.2L234.6,334l-19.1-21.1l7.6-7.6l21.1,19.1
		l10.8,15.2c0.1,0.3,0.3,0.5,0.5,0.7l63.6,63.6L314.1,409z"/>
</g>
<g>
	
		<rect x="313" y="389.9" transform="matrix(-0.7071 -0.7071 0.7071 -0.7071 254.6518 921.0618)" class="st3" width="10.2" height="35.7"/>
	<path class="st0" d="M328.5,390.1c-0.8-0.8-2-0.8-2.8,0l-25.2,25.2c-0.4,0.4-0.6,0.9-0.6,1.4s0.2,1,0.6,1.4l7.2,7.2
		c0.4,0.4,0.9,0.6,1.4,0.6s1-0.2,1.4-0.6l25.2-25.2c0.4-0.4,0.6-0.9,0.6-1.4s-0.2-1-0.6-1.4L328.5,390.1z M309.1,421.2l-4.4-4.4
		l22.4-22.4l4.4,4.4L309.1,421.2z"/>
</g>
<path class="st0" d="M332.6,400.5c-0.8-0.8-2.1-0.8-2.8,0l-19,19c-0.8,0.8-0.8,2,0,2.8l64.1,64.1c2.3,2.3,5.6,3.6,9.1,3.6h0
	c4.1,0,8.3-1.8,11.4-4.9c2.9-2.9,4.6-6.6,4.9-10.4c0.3-3.9-1-7.5-3.6-10.1L332.6,400.5z M396.3,474.4c-0.2,2.9-1.5,5.7-3.7,7.8
	c-2.4,2.4-5.5,3.8-8.6,3.8h0c-2.4,0-4.7-0.9-6.3-2.5L315,420.9l16.2-16.2l62.7,62.7C395.6,469.2,396.5,471.7,396.3,474.4z"/>
</svg>
