<?xml version="1.0" encoding="utf-8"?>
<!-- Generator: Adobe Illustrator 19.0.1, SVG Export Plug-In . SVG Version: 6.00 Build 0)  -->
<svg version="1.1" id="Layer_1" xmlns="http://www.w3.org/2000/svg" xmlns:xlink="http://www.w3.org/1999/xlink" x="0px" y="0px"
	 viewBox="-175 234 260 325" style="enable-background:new -175 234 260 325;" xml:space="preserve">
<style type="text/css">
	.st0{font-family:'Arial-BoldMT';}
	.st1{font-size:5px;}
</style>
<path d="M-45,259c57.9,0,105,47.1,105,105S12.9,469-45,469s-105-47.1-105-105S-102.9,259-45,259 M-45,239c-69,0-125,56-125,125
	s56,125,125,125S80,433,80,364S24,239-45,239L-45,239z"/>
<circle cx="-45" cy="412.6" r="14"/>
<g>
	<path d="M-36.4,379.2h-19c-0.1-2.7-0.1-4.4-0.1-5c0-6.2,1-10.2,3.1-14.2c2-4,6.1-8.5,12.2-13.4c6.1-5,9.8-8.2,11-9.8
		c1.8-2.4,2.8-5.1,2.8-8.1c0-4.1-1.6-7.6-4.9-10.5c-3.3-2.9-7.6-4.4-13.2-4.4c-5.3,0-9.8,1.5-13.4,4.6c-3.6,3-6,7.7-7.4,13.9
		l-19.3-2.4c0.5-8.9,4.3-16.5,11.4-22.7c7-6.2,16.3-9.3,27.7-9.3c12,0,21.6,3.1,28.7,9.4c7.1,6.3,10.7,13.6,10.7,22
		c0,4.6-1.3,9-3.9,13.1c-2.6,4.1-8.2,9.8-16.8,16.9c-4.4,3.7-7.2,6.6-8.2,8.9C-36,370.5-36.5,373.5-36.4,379.2z"/>
</g>
<text transform="matrix(1 0 0 1 -175 509)" class="st0 st1">Created by Niklas Bäversten</text>
<text transform="matrix(1 0 0 1 -175 514)" class="st0 st1">from the Noun Project</text>
</svg>
