<?xml version="1.0" encoding="utf-8"?>
<!-- Generator: Adobe Illustrator 19.0.1, SVG Export Plug-In . SVG Version: 6.00 Build 0)  -->
<svg version="1.1" id="Layer_1" xmlns="http://www.w3.org/2000/svg" xmlns:xlink="http://www.w3.org/1999/xlink" x="0px" y="0px"
	 viewBox="-255 347 100 100" style="enable-background:new -255 347 100 100;" xml:space="preserve">
<title>TiNY2_BASICS</title>
<path d="M-207,354c-24.9,0-45,20.1-45,45s20.1,45,45,45s45-20.1,45-45S-182.1,354-207,354z M-231.8,429.6
	c12.6-13.7,34-14.6,47.6-1.9c0.7,0.6,1.3,1.3,1.9,1.9C-196.6,441.3-217.4,441.3-231.8,429.6z M-178.1,425.7
	c-14.7-16-39.6-16.9-55.6-2.2c-0.8,0.7-1.5,1.4-2.2,2.2c-14.8-16-13.8-40.9,2.1-55.7c16-14.8,40.9-13.8,55.7,2.1
	C-164.1,387.3-164.1,410.6-178.1,425.7z"/>
<path d="M-207,370.9c-10.9,0-19.7,8.8-19.7,19.7s8.8,19.7,19.7,19.7s19.7-8.8,19.7-19.7l0,0C-187.3,379.7-196.1,370.9-207,370.9z
	 M-207,404.6c-7.8,0-14.1-6.3-14.1-14.1c0-7.8,6.3-14.1,14.1-14.1s14.1,6.3,14.1,14C-192.9,398.3-199.2,404.6-207,404.6z"/>
</svg>
