<?xml version="1.0" encoding="utf-8"?>
<!-- Generator: Adobe Illustrator 19.0.1, SVG Export Plug-In . SVG Version: 6.00 Build 0)  -->
<svg version="1.1" id="Layer_1" xmlns="http://www.w3.org/2000/svg" xmlns:xlink="http://www.w3.org/1999/xlink" x="0px" y="0px"
	 viewBox="-255 334 100 125" style="enable-background:new -255 334 100 125;" xml:space="preserve">
<g>
	<path d="M-203,427.5c21.8,0,39.5-17.7,39.5-39.5s-17.7-39.5-39.5-39.5s-39.5,17.7-39.5,39.5S-224.8,427.5-203,427.5z M-203,355.5
		c17.9,0,32.5,14.6,32.5,32.5s-14.6,32.5-32.5,32.5s-32.5-14.6-32.5-32.5S-220.9,355.5-203,355.5z"/>
	<path d="M-203.5,395.5c1.9,0,3.5-1.6,3.5-3.5v-19c0-1.9-1.6-3.5-3.5-3.5s-3.5,1.6-3.5,3.5v19C-207,393.9-205.4,395.5-203.5,395.5z"
		/>
	<path d="M-203.5,407.5c1.9,0,3.5-1.6,3.5-3.5v-3c0-1.9-1.6-3.5-3.5-3.5s-3.5,1.6-3.5,3.5v3C-207,405.9-205.4,407.5-203.5,407.5z"/>
</g>
</svg>
