<?xml version="1.0" encoding="utf-8"?>
<!-- Generator: Adobe Illustrator 19.0.1, SVG Export Plug-In . SVG Version: 6.00 Build 0)  -->
<svg version="1.1" id="Layer_1" xmlns="http://www.w3.org/2000/svg" xmlns:xlink="http://www.w3.org/1999/xlink" x="0px" y="0px"
	 viewBox="-255 334 100 125" style="enable-background:new -255 334 100 125;" xml:space="preserve">
<style type="text/css">
	.st0{fill:#010101;}
</style>
<g>
	<path class="st0" d="M-179.4,401.3c-4.4,0-8,3.6-8,8s3.6,8,8,8s8-3.6,8-8S-175,401.3-179.4,401.3z M-179.4,413.6
		c-2.4,0-4.3-1.9-4.3-4.3s1.9-4.3,4.3-4.3c2.4,0,4.3,1.9,4.3,4.3C-175.1,411.6-177,413.6-179.4,413.6z"/>
	<path class="st0" d="M-226.6,401.3c-4.4,0-8,3.6-8,8s3.6,8,8,8s8-3.6,8-8S-222.2,401.3-226.6,401.3z M-226.6,413.6
		c-2.4,0-4.3-1.9-4.3-4.3s1.9-4.3,4.3-4.3c2.4,0,4.3,1.9,4.3,4.3C-222.3,411.6-224.3,413.6-226.6,413.6z"/>
	<path class="st0" d="M-161.6,364.6h-2.8v-5.2c0-7.7-1-15.8-12.3-15.8h-49c-11.5,0-15.8,3.8-15.8,14.1v6.9h-2.9
		c-2,0-3.6,1.6-3.6,3.6v14c0,2,1.6,3.6,3.6,3.6h2.9v29.7c0,2.5,0.8,4.3,1.9,5.6c-0.1,0.2-0.2,0.5-0.2,0.8v5.2c0,2.9,2.4,5.3,5.3,5.3
		h7c2.9,0,5.3-2.4,5.3-5.3v-2.8h38.3v2.8c0,2.9,2.4,5.3,5.3,5.3h7c2.9,0,5.3-2.4,5.3-5.3v-5.2c0-0.3-0.1-0.6-0.2-0.8
		c1.2-1.3,1.9-3.1,1.9-5.6v-29.8h2.8c2,0,3.6-1.6,3.6-3.6v-14C-158,366.2-159.6,364.6-161.6,364.6z M-241.6,382.1l-2.8,0.1v-14h2.9
		L-241.6,382.1L-241.6,382.1z M-225.8,427.1c0,0.9-0.7,1.7-1.7,1.7h-7c-0.9,0-1.7-0.7-1.7-1.7v-3.8c2.6,1,5.5,1,6.9,1h3.4
		L-225.8,427.1L-225.8,427.1z M-169.8,427.1c0,0.9-0.7,1.7-1.7,1.7h-7c-0.9,0-1.7-0.7-1.7-1.7v-2.8h3.4c1.5,0,4.3,0,6.9-1
		L-169.8,427.1L-169.8,427.1z M-168.1,415.4c0,3.1-1.5,5.2-8.7,5.2h-52.4c-7.2,0-8.7-2.1-8.7-5.2v-57.7c0-8.2,2.6-10.4,12.2-10.4h49
		c6.7,0,8.7,2.7,8.7,12.2L-168.1,415.4L-168.1,415.4z M-164.4,382.1v-13.9l2.8-0.1l0.1,13.9h-2.9L-164.4,382.1L-164.4,382.1z"/>
	<path class="st0" d="M-220.5,356.1h36.7c1,0,1.8-0.8,1.8-1.8s-0.8-1.8-1.8-1.8h-36.7c-1,0-1.8,0.8-1.8,1.8
		S-221.5,356.1-220.5,356.1z"/>
	<path class="st0" d="M-178.5,361.1h-49c-4.5,0-7.1,2.6-7.1,7.1v21c0,4.5,2.6,7.1,7.1,7.1l49-0.1c2.9,0,7.1-2.5,7.1-6.9v-21
		C-171.4,363.7-174,361.1-178.5,361.1z M-175.1,389.2c0,2.3-2.4,3.3-3.4,3.3l0,0l-49,0.1c-2.5,0-3.4-0.9-3.4-3.4v-21
		c0-2.5,0.9-3.4,3.4-3.4h49c2.5,0,3.4,0.9,3.4,3.4V389.2z"/>
</g>
</svg>
