<?xml version="1.0" encoding="utf-8"?>
<!-- Generator: Adobe Illustrator 19.0.1, SVG Export Plug-In . SVG Version: 6.00 Build 0)  -->
<svg version="1.1" id="Layer_1" xmlns="http://www.w3.org/2000/svg" xmlns:xlink="http://www.w3.org/1999/xlink" x="0px" y="0px"
	 viewBox="-255 334 100 125" style="enable-background:new -255 334 100 125;" xml:space="preserve">
<title>Artboard 12</title>
<path d="M-234.2,392.7l-2.2,2.2c-0.4,0.4-0.4,1,0,1.4l0.1,0.1l11,8.8l-0.7,0.8c-1.5,1.7-1.7,4.1-0.5,6l-1.4,1.4
	c-0.4,0.4-0.5,1-0.1,1.4s1,0.5,1.4,0.1l0.1-0.1l1.4-1.4c1.9,1.2,4.3,1,6-0.5l0.8-0.7l8.8,11c0.2,0.2,0.4,0.4,0.7,0.4h0.1
	c0.3,0,0.5-0.1,0.7-0.3l2.1-2.3c0.3-0.3,0.4-0.6,0.3-1l-4.4-15.4l8.6-7.9l16.7,20.9c0.2,0.2,0.4,0.4,0.7,0.4h0.1
	c0.3,0,0.5-0.1,0.7-0.3l4-4c0.3-0.3,0.4-0.6,0.3-1l-8.2-29l9.7-8.9c3-2.8,3.2-7.5,0.4-10.5s-7.5-3.2-10.5-0.4
	c-0.1,0.1-0.3,0.3-0.4,0.4l-8.8,9.6l-29.1-8.3c-0.4-0.1-0.7,0-1,0.3l-4,4c-0.4,0.4-0.4,1,0,1.4l0.1,0.1l21,16.8l-7.9,8.6l-15.5-4.4
	C-233.5,392.4-233.9,392.5-234.2,392.7z M-207.7,420l-1,1l-8.1-10.2l5.2-4.7L-207.7,420z M-181.1,412.6l-2.8,2.8l-16.1-20l11.1-10.1
	L-181.1,412.6z M-186.5,365.7c2.1-2.2,5.5-2.3,7.7-0.2c2.2,2.1,2.3,5.5,0.2,7.7c-0.1,0.1-0.2,0.2-0.3,0.3l-41.6,38
	c-0.9,0.8-2.1,1-3.2,0.5l8.2-8.2c0.4-0.4,0.3-1.1-0.1-1.4c-0.4-0.3-0.9-0.3-1.3,0l-8.2,8.2c-0.5-1.1-0.3-2.3,0.5-3.2L-186.5,365.7z
	 M-228.7,370.6l2.8-2.8l27.6,7.9l-10.2,11.2L-228.7,370.6z M-219.2,398.5l-4.8,5.2l-10.1-8.2l1-1L-219.2,398.5z"/>
<path d="M-442.9,695c1.4-0.1,2.6,1,2.7,2.4v0.1c0,0.6,0.4,1,1,1c0.6,0,1-0.4,1-1c0-2.5-2-4.6-4.6-4.6c-0.1,0-0.2,0-0.2,0
	c-0.6,0-1,0.4-1,1c0,0.6,0.4,1,1,1C-443,695-442.9,695-442.9,695z"/>
</svg>
