<?xml version="1.0" encoding="utf-8"?>
<!-- Generator: Adobe Illustrator 19.0.1, SVG Export Plug-In . SVG Version: 6.00 Build 0)  -->
<svg version="1.1" id="Layer_1" xmlns="http://www.w3.org/2000/svg" xmlns:xlink="http://www.w3.org/1999/xlink" x="0px" y="0px"
	 viewBox="0 0 612 792" style="enable-background:new 0 0 612 792;" xml:space="preserve">
<style type="text/css">
	.st0{fill:#FBF6B1;}
	.st1{fill:#FFFFFF;}
	.st2{fill:#F7EC3D;}
	.st3{fill:#262A2C;}
</style>
<circle class="st0" cx="306.8" cy="395.9" r="145.7"/>
<g>
	<path class="st1" d="M422.6,348.3h-3.4h-78.8h-9.6v9.6v117v9.6h9.6h78.8h3.4c5.3,0,9.6-4.3,9.6-9.6v-117
		C432.2,352.6,427.9,348.3,422.6,348.3z"/>
	<path class="st2" d="M417.5,353h-3.4h-78.8h-4.4v4.9v117v9.6h9.6h78.8h3.4c1.2,0,2.3-0.2,3.3-0.6c0.6-1.3,1-2.7,1-4.3v-117
		C427,357.3,422.7,353,417.5,353z"/>
	<path class="st3" d="M422.6,346.3h-91.7c-1.1,0-2,0.9-2,2v136.2c0,1.1,0.9,2,2,2h91.7c6.4,0,11.6-5.2,11.6-11.6v-117
		C434.2,351.5,429,346.3,422.6,346.3z M430.2,474.9c0,4.2-3.4,7.6-7.6,7.6h-89.7V350.3h89.7c4.2,0,7.6,3.4,7.6,7.6V474.9z"/>
	<path class="st1" d="M405.1,383.6c-4.8-5.7-11.6-9.6-19.4-10.7c-1.1-0.1-2.2-0.2-3.3-0.3c-0.3,0-0.6,0-0.9,0c-0.5,0-1,0-1.5,0
		c-1.2,0.1-2.3,0.2-3.4,0.4c-7.5,1.2-14,5.1-18.7,10.6c-0.4,0.5-0.8,1-1.2,1.6c-3.8,5.1-6,11.5-6,18.3c0,6.8,2.2,13.1,5.9,18.2
		c0.4,0.5,0.8,1.1,1.2,1.6c4.7,5.6,11.3,9.5,18.8,10.7c1.1,0.2,2.2,0.3,3.4,0.4c0.5,0,1,0,1.5,0c0.3,0,0.6,0,0.9,0
		c1.1,0,2.2-0.1,3.3-0.3c7.8-1.1,14.7-5.1,19.5-10.8c0.4-0.5,0.8-1,1.2-1.6c3.7-5.1,5.9-11.4,5.9-18.2c0-6.9-2.2-13.2-6-18.3
		C406,384.6,405.6,384.1,405.1,383.6z M403.4,384.7c-2.5,1.5-5.2,2.7-8,3.6c-1.7-4.9-4.2-9.3-7.3-13
		C394.2,376.8,399.5,380.1,403.4,384.7z M366.6,402.5c0.1-4.2,0.7-8.1,1.8-11.8c4.1,1.2,8.5,1.8,13.1,1.8c4.4,0,8.6-0.6,12.5-1.7
		c1.1,3.7,1.7,7.6,1.8,11.7H366.6z M395.9,404.5c-0.1,4-0.7,7.9-1.7,11.5c-3.9-1.1-8.2-1.7-12.6-1.7c-4.6,0-9,0.7-13.1,1.9
		c-1.1-3.6-1.7-7.6-1.8-11.7H395.9z M377.6,374.9c1.3-0.2,2.6-0.3,4-0.3c1.1,0,2.2,0.1,3.3,0.2c3.7,3.7,6.7,8.5,8.6,14.1
		c-3.7,1-7.8,1.6-11.9,1.6c-4.4,0-8.6-0.6-12.5-1.7C371,383.3,373.9,378.6,377.6,374.9z M374.3,375.5c-3,3.5-5.4,7.8-7.1,12.6
		c-2.7-0.9-5.2-2.1-7.5-3.5C363.4,380.3,368.5,377,374.3,375.5z M358.4,386.2c2.5,1.5,5.2,2.8,8.2,3.8c-1.2,3.9-1.8,8.1-1.9,12.4
		h-11.9C352.9,396.4,355,390.8,358.4,386.2z M352.7,404.5h11.9c0.1,4.3,0.7,8.4,1.9,12.3c-2.9,1-5.7,2.3-8.2,3.8
		C355,416,352.9,410.5,352.7,404.5z M359.6,422.2c2.3-1.4,4.9-2.6,7.6-3.5c1.7,4.9,4.1,9.2,7.2,12.8
		C368.5,429.9,363.3,426.6,359.6,422.2z M384.9,432.2c-1.1,0.1-2.2,0.2-3.3,0.2c-1.3,0-2.7-0.1-4-0.3c-3.7-3.7-6.6-8.5-8.5-14
		c3.9-1.1,8.1-1.8,12.5-1.8c4.2,0,8.2,0.6,12,1.6C391.6,423.5,388.6,428.4,384.9,432.2z M388.1,431.6c3.1-3.7,5.7-8.1,7.4-13.1
		c2.9,1,5.6,2.2,8.1,3.7C399.6,426.8,394.2,430.2,388.1,431.6z M404.8,420.6c-2.7-1.6-5.6-3-8.7-4c1.1-3.8,1.7-7.9,1.8-12.1h12.5
		C410.2,410.5,408.1,416,404.8,420.6z M397.9,402.5c-0.1-4.3-0.7-8.4-1.9-12.3c3.1-1,6-2.4,8.7-4c3.4,4.6,5.5,10.2,5.7,16.2H397.9z"
		/>
	<path class="st1" d="M351,313.4H188.8c-4,0-7.4,3.3-7.4,7.4v79.8c0,4,3.3,7.4,7.4,7.4H351c4,0,7.4-3.3,7.4-7.4v-79.8
		C358.3,316.7,355,313.4,351,313.4z"/>
	<path class="st2" d="M344.3,313.4H195.5c-3.7,0-6.8,3.3-6.8,7.4v79.8c0,4,3,7.4,6.8,7.4h148.8c3.7,0,6.8-3.3,6.8-7.4v-79.8
		C351.1,316.7,348,313.4,344.3,313.4z"/>
	<path class="st1" d="M351,313.4H188.8c-4,0-7.4,3.3-7.4,7.4v11.6h176.9v-11.6C358.3,316.7,355,313.4,351,313.4z"/>
	<path class="st1" d="M181.5,400.6c0,4,3.3,7.4,7.4,7.4H351c4,0,7.4-3.3,7.4-7.4V389H181.5V400.6z"/>
	<g>
		<path class="st1" d="M342.6,348.9C342.6,348.9,342.6,348.9,342.6,348.9c-0.8-0.8-2-0.8-2.8,0l-5.2,5.3l-12.7-1.9
			c-0.3,0-0.7,0.1-0.9,0.4l-0.7,0.9c-0.2,0.2-0.1,0.6,0.1,0.7l9.2,5.1l-4.9,5l-4.5-1.1c-0.3,0-0.7,0.1-1,0.4l-0.2,0.2
			c-0.2,0.2-0.1,0.5,0.1,0.7l5.1,2.8l2.9,5c0.1,0.3,0.4,0.3,0.7,0.1l0.2-0.2c0.2-0.2,0.4-0.6,0.4-1l-1.1-4.5l4.9-4.9l5.1,9.2
			c0.2,0.3,0.5,0.3,0.7,0.1l0.9-0.7c0.2-0.2,0.4-0.6,0.4-0.9l-1.9-12.7l5.3-5.2C343.4,350.9,343.4,349.7,342.6,348.9
			C342.7,349,342.6,348.9,342.6,348.9z"/>
	</g>
	<g>
		<path class="st3" d="M310.9,311.4c-1.1,0-2,0.9-2,2v2c0,1.1,0.9,2,2,2c1.1,0,2-0.9,2-2v-2C312.9,312.3,312,311.4,310.9,311.4z"/>
		<path class="st3" d="M310.9,323c-1.1,0-2,0.9-2,2v3.9c0,1.1,0.9,2,2,2c1.1,0,2-0.9,2-2V325C312.9,323.9,312,323,310.9,323z"/>
		<path class="st3" d="M310.9,376.9c-1.1,0-2,0.9-2,2v3.9c0,1.1,0.9,2,2,2c1.1,0,2-0.9,2-2v-3.9C312.9,377.8,312,376.9,310.9,376.9z
			"/>
		<path class="st3" d="M310.9,390.4c-1.1,0-2,0.9-2,2v3.9c0,1.1,0.9,2,2,2c1.1,0,2-0.9,2-2v-3.9C312.9,391.3,312,390.4,310.9,390.4z
			"/>
		<path class="st3" d="M310.9,363.5c-1.1,0-2,0.9-2,2v3.9c0,1.1,0.9,2,2,2c1.1,0,2-0.9,2-2v-3.9C312.9,364.4,312,363.5,310.9,363.5z
			"/>
		<path class="st3" d="M310.9,336.5c-1.1,0-2,0.9-2,2v3.9c0,1.1,0.9,2,2,2c1.1,0,2-0.9,2-2v-3.9C312.9,337.4,312,336.5,310.9,336.5z
			"/>
		<path class="st3" d="M310.9,350c-1.1,0-2,0.9-2,2v3.9c0,1.1,0.9,2,2,2c1.1,0,2-0.9,2-2V352C312.9,350.9,312,350,310.9,350z"/>
		<path class="st3" d="M310.9,403.9c-1.1,0-2,0.9-2,2v2c0,1.1,0.9,2,2,2c1.1,0,2-0.9,2-2v-2C312.9,404.8,312,403.9,310.9,403.9z"/>
	</g>
	<path class="st3" d="M351,311.4H188.8c-5.2,0-9.4,4.2-9.4,9.4v79.8c0,5.2,4.2,9.4,9.4,9.4H351c5.2,0,9.4-4.2,9.4-9.4v-79.8
		C360.3,315.6,356.1,311.4,351,311.4z M356.3,400.6c0,3-2.4,5.4-5.4,5.4H188.8c-3,0-5.4-2.4-5.4-5.4v-79.8c0-3,2.4-5.4,5.4-5.4H351
		c3,0,5.4,2.4,5.4,5.4V400.6z"/>
	<g>
		<path class="st3" d="M298.3,373.8h-53.9c-1.1,0-2,0.9-2,2c0,1.1,0.9,2,2,2h53.9c1.1,0,2-0.9,2-2
			C300.3,374.7,299.4,373.8,298.3,373.8z"/>
		<path class="st3" d="M238.1,373.8h-26.2c-1.1,0-2,0.9-2,2c0,1.1,0.9,2,2,2h26.2c1.1,0,2-0.9,2-2
			C240.1,374.7,239.2,373.8,238.1,373.8z"/>
		<path class="st3" d="M205.7,373.8h-8.1c-1.1,0-2,0.9-2,2c0,1.1,0.9,2,2,2h8.1c1.1,0,2-0.9,2-2
			C207.7,374.7,206.8,373.8,205.7,373.8z"/>
		<path class="st3" d="M267,343.5h-69.4c-1.1,0-2,0.9-2,2c0,1.1,0.9,2,2,2H267c1.1,0,2-0.9,2-2C269,344.4,268.1,343.5,267,343.5z"/>
		<path class="st3" d="M298.3,343.5h-24.1c-1.1,0-2,0.9-2,2c0,1.1,0.9,2,2,2h24.1c1.1,0,2-0.9,2-2
			C300.3,344.4,299.4,343.5,298.3,343.5z"/>
		<path class="st3" d="M229.3,358.6h-31.7c-1.1,0-2,0.9-2,2s0.9,2,2,2h31.7c1.1,0,2-0.9,2-2S230.4,358.6,229.3,358.6z"/>
		<path class="st3" d="M250.5,358.6h-14.9c-1.1,0-2,0.9-2,2s0.9,2,2,2h14.9c1.1,0,2-0.9,2-2S251.6,358.6,250.5,358.6z"/>
		<path class="st3" d="M298.3,358.6h-41.4c-1.1,0-2,0.9-2,2s0.9,2,2,2h41.4c1.1,0,2-0.9,2-2S299.4,358.6,298.3,358.6z"/>
	</g>
	<g>
		<path class="st3" d="M303.5,427.1h-80.9c-1.1,0-2,0.9-2,2c0,1.1,0.9,2,2,2h80.9c1.1,0,2-0.9,2-2
			C305.5,428,304.7,427.1,303.5,427.1z"/>
		<path class="st3" d="M212,427.1h-6.3c-1.1,0-2,0.9-2,2c0,1.1,0.9,2,2,2h6.3c1.1,0,2-0.9,2-2C214,428,213.1,427.1,212,427.1z"/>
		<path class="st3" d="M254.7,450.7h-23.9c-1.1,0-2,0.9-2,2s0.9,2,2,2h23.9c1.1,0,2-0.9,2-2S255.8,450.7,254.7,450.7z"/>
		<path class="st3" d="M295.3,450.7h-32.3c-1.1,0-2,0.9-2,2s0.9,2,2,2h32.3c1.1,0,2-0.9,2-2S296.4,450.7,295.3,450.7z"/>
		<path class="st3" d="M303.4,474.4h-57.7c-1.1,0-2,0.9-2,2c0,1.1,0.9,2,2,2h57.7c1.1,0,2-0.9,2-2
			C305.4,475.3,304.5,474.4,303.4,474.4z"/>
	</g>
</g>
</svg>
