<?xml version="1.0" encoding="utf-8"?>
<!-- Generator: Adobe Illustrator 19.0.1, SVG Export Plug-In . SVG Version: 6.00 Build 0)  -->
<svg version="1.1" id="Layer_1" xmlns="http://www.w3.org/2000/svg" xmlns:xlink="http://www.w3.org/1999/xlink" x="0px" y="0px"
	 viewBox="0 0 612 792" style="enable-background:new 0 0 612 792;" xml:space="preserve">
<style type="text/css">
	.st0{fill:#262A2C;}
	.st1{fill:#F7EC3D;}
	.st2{fill:#FFFFFF;}
</style>
<g>
	<g>
		<path class="st0" d="M426.8,337.8h-5.5c-1.7-7.4-8.3-12.9-16-13.2c-3.5-10-13-16.9-23.7-16.9c-9.2,0-17.7,5.1-22.1,13.1
			c-0.4,0-0.7,0-1,0c-10.8,0-19.7,8.1-20.8,18.8c-0.1,1.1,0.7,2.1,1.8,2.2c0.1,0,0.1,0,0.2,0c1,0,1.9-0.8,2-1.8
			c0.9-8.6,8.1-15.2,16.8-15.2c0.6,0,1.2,0,2,0.1c0.9,0.1,1.7-0.4,2-1.1c3.5-7.4,11-12.1,19.1-12.1c9.5,0,17.8,6.4,20.4,15.5
			c0.3,0.9,1.1,1.5,2,1.5l0.2,0c0.2,0,0.3,0,0.5,0c6.6,0,12.2,4.9,13,11.4c0.1,1,1,1.7,2,1.7h7.1c1.1,0,2-0.9,2-2
			C428.8,338.7,427.9,337.8,426.8,337.8z"/>
	</g>
	<ellipse class="st1" cx="308.2" cy="475.9" rx="109.1" ry="27"/>
	<g>
		<path class="st1" d="M257.7,291.2L257.7,291.2c-0.1,0-0.3,0-0.4,0c-0.1,0-0.3,0-0.4,0v0c-38.7,0.6-69.9,32.1-69.9,70.9
			c0,7,2.3,15.7,6.1,25.1c15.7,39.2,64,101.4,64.2,101.2c0.1,0.2,48.5-62.1,64.2-101.2c3.8-9.4,6.1-18,6.1-25.1
			C327.6,323.3,296.4,291.8,257.7,291.2z M297.6,363.2c-1.6,21-18.9,37.6-40.2,37.9c-21.3-0.3-38.6-16.9-40.2-37.9
			c-0.1-1-0.2-2.1-0.2-3.1c0-22.4,18-40.7,40.4-41c22.4,0.4,40.4,18.6,40.4,41C297.7,361.1,297.7,362.2,297.6,363.2z"/>
	</g>
	<g>
		<path class="st0" d="M258.1,289.2c-0.2,0-0.4,0-0.6,0l-0.1,0l-0.1,0c-0.2,0-0.4,0-0.6,0c-19.1,0.4-37.1,8-50.5,21.7
			c-13.5,13.7-21,31.9-21,51.2c0,6.8,2.1,15.5,6.2,25.8c8.2,20.5,25.2,47,38,65.7c7.5,10.8,14.1,20,18.4,25.7
			c8.3,11.1,8.3,11.1,9.5,11.1c0,0,0.1,0,0.1,0c1.1,0,1.5-0.4,9.4-11.1c4.3-5.7,11-14.9,18.4-25.7c12.8-18.7,29.9-45.2,38-65.7
			c4.1-10.3,6.2-19,6.2-25.8c0-19.3-7.5-37.5-21-51.2C295.1,297.3,277.2,289.6,258.1,289.2z M319.7,386.4
			c-13.8,34.6-53.9,88.2-62.3,98.8c-8.4-10.6-48.5-64.3-62.3-98.8c-3.9-9.8-5.9-18-5.9-24.3c0-37.4,30.5-68.3,67.9-68.9
			c0.1,0,0.1,0,0.2,0l0.2,0l0.1,0c0.1,0,0.1,0,0.2,0c37.4,0.5,67.9,31.4,67.9,68.9C325.6,368.4,323.6,376.6,319.7,386.4z"/>
		<path class="st0" d="M257.4,317.1C257.4,317.1,257.4,317.1,257.4,317.1c-23.4,0.4-42.4,19.7-42.4,43c0,1.1,0.1,2.2,0.2,3.3
			c1.7,22.3,19.8,39.4,42.2,39.8c22.4-0.4,40.5-17.5,42.2-39.8c0.1-1,0.2-2.1,0.2-3.2C299.7,336.7,280.7,317.4,257.4,317.1z
			 M295.6,363.1c-1.5,20.2-18,35.7-38.2,36.1c-20.3-0.3-36.7-15.8-38.3-36.1c-0.1-1-0.1-2-0.1-2.9c0-21.2,17.2-38.7,38.4-39
			c21.2,0.4,38.4,17.9,38.4,39C295.7,361,295.7,362,295.6,363.1z"/>
	</g>
	<g>
		<path class="st2" d="M202.1,375.8c-0.4-1-1.5-1.6-2.5-1.3c-1,0.4-1.6,1.5-1.3,2.5c0.6,1.9,1.4,3.9,2.2,6c0.3,0.8,1.1,1.3,1.9,1.3
			c0.2,0,0.5,0,0.7-0.1c1-0.4,1.5-1.6,1.1-2.6C203.4,379.6,202.7,377.6,202.1,375.8z"/>
		<path class="st2" d="M199.1,346.4c-1.1-0.2-2.2,0.4-2.4,1.5c-0.9,3.9-1.4,7.9-1.5,11.9c-0.1,3,0.3,6.5,1.2,10.3
			c0.2,0.9,1,1.6,1.9,1.6c0.1,0,0.3,0,0.4,0c1.1-0.2,1.8-1.3,1.5-2.4c-0.8-3.5-1.1-6.6-1.1-9.3c0.1-3.7,0.6-7.5,1.4-11.1
			C200.9,347.7,200.2,346.6,199.1,346.4z"/>
		<path class="st2" d="M218.1,313.7c-8.7,7.3-15.3,16.4-19.1,26.6c-0.4,1,0.1,2.2,1.2,2.6c0.2,0.1,0.5,0.1,0.7,0.1
			c0.8,0,1.6-0.5,1.9-1.3c3.6-9.5,9.8-18.1,17.9-24.9c0.8-0.7,1-2,0.3-2.8C220.3,313.1,219,312.9,218.1,313.7z"/>
		<path class="st2" d="M235.6,302.9c-4.1,1.8-8,3.9-11.6,6.3c-0.9,0.6-1.2,1.9-0.5,2.8c0.4,0.6,1,0.9,1.7,0.9c0.4,0,0.8-0.1,1.1-0.3
			c3.4-2.3,7.1-4.3,11-6c1-0.4,1.5-1.6,1-2.6C237.8,302.9,236.6,302.5,235.6,302.9z"/>
		<path class="st2" d="M247,299c-1.3,0.3-2.5,0.7-3.8,1.1c-1.1,0.3-1.6,1.4-1.3,2.5c0.3,0.9,1.1,1.4,1.9,1.4c0.2,0,0.4,0,0.6-0.1
			c1.2-0.4,2.4-0.7,3.6-1c1.1-0.3,1.7-1.4,1.5-2.4C249.1,299.4,248,298.8,247,299z"/>
	</g>
	<g>
		<g>
			<g>
				<path class="st2" d="M377.6,373.5L377.6,373.5c-0.1,0-0.1,0-0.2,0c-0.1,0-0.1,0-0.2,0v0c-17.6,0.3-31.9,14.6-31.9,32.3
					c0,3.2,1.1,7.1,2.8,11.4c7.1,17.9,29.2,46.3,29.3,46.2c0.1,0.1,22.1-28.3,29.3-46.2c1.7-4.3,2.8-8.2,2.8-11.4
					C409.5,388.1,395.3,373.8,377.6,373.5z M395.8,406.3c-0.7,9.6-8.6,17.1-18.3,17.3c-9.7-0.2-17.6-7.7-18.3-17.3
					c0-0.5-0.1-0.9-0.1-1.4c0-10.2,8.2-18.6,18.4-18.7c10.2,0.2,18.4,8.5,18.4,18.7C395.9,405.4,395.8,405.9,395.8,406.3z"/>
			</g>
			<g>
				<path class="st0" d="M377.9,371.5c-0.1,0-0.2,0-0.3,0l-0.1,0c0,0-0.1,0-0.1,0c-0.1,0-0.2,0-0.3,0c-18.6,0.4-33.6,15.7-33.6,34.3
					c0,3.3,1,7.3,2.9,12.2c3.8,9.4,11.6,21.6,17.5,30.2c3.4,5,6.5,9.1,8.4,11.8c4.1,5.5,4.1,5.5,5.2,5.5c0.1,0,0.1,0,0.2,0
					c1,0,1.2-0.3,5.1-5.5c2-2.6,5-6.8,8.4-11.8c5.9-8.6,13.7-20.7,17.5-30.2c2-4.9,2.9-8.9,2.9-12.2
					C411.5,387.2,396.4,371.9,377.9,371.5z M404.9,416.5c-5.9,14.7-22.3,37.1-27.4,43.7c-5.1-6.7-21.5-29-27.4-43.7
					c-1.7-4.4-2.6-8-2.6-10.7c0-16.5,13.4-30.1,29.9-30.3c0,0,0.1,0,0.1,0c0,0,0,0,0.1,0c0,0,0.1,0,0.1,0
					c16.5,0.2,29.9,13.8,29.9,30.3C407.5,408.6,406.6,412.2,404.9,416.5z"/>
				<path class="st0" d="M377.5,384.2C377.5,384.2,377.4,384.2,377.5,384.2c-11.3,0.2-20.5,9.5-20.5,20.7c0,0.5,0,1,0.1,1.6
					c0.8,10.7,9.5,19,20.4,19.1c10.8-0.2,19.5-8.4,20.3-19.2c0-0.5,0.1-1,0.1-1.5C397.9,393.7,388.7,384.4,377.5,384.2z
					 M393.8,406.2c-0.7,8.7-7.7,15.3-16.3,15.4c-8.7-0.1-15.7-6.8-16.4-15.5c0-0.4-0.1-0.8-0.1-1.2c0-9.1,7.4-16.6,16.4-16.7
					c9.1,0.2,16.4,7.7,16.4,16.7C393.9,405.3,393.8,405.8,393.8,406.2z"/>
			</g>
		</g>
	</g>
</g>
</svg>
