<?xml version="1.0" encoding="utf-8"?>
<!-- Generator: Adobe Illustrator 19.0.1, SVG Export Plug-In . SVG Version: 6.00 Build 0)  -->
<svg version="1.1" id="Layer_1" xmlns="http://www.w3.org/2000/svg" xmlns:xlink="http://www.w3.org/1999/xlink" x="0px" y="0px"
	 viewBox="0 0 612 792" style="enable-background:new 0 0 612 792;" xml:space="preserve">
<style type="text/css">
	.st0{fill:#262A2C;}
	.st1{fill:#FFFFFF;}
	.st2{fill:#F7EC3D;}
</style>
<path class="st0" d="M339.6,322.6c-1.1,0-2,0.9-2,2v37.9c0,6.1-5,11.1-11.1,11.1c-6.1,0-11.1-5-11.1-11.1v-6.2
	c0-10.7-8.7-19.4-19.4-19.4s-19.4,8.7-19.4,19.4v40.3c0,1.1,0.9,2,2,2s2-0.9,2-2v-40.3c0-8.5,6.9-15.4,15.4-15.4
	c8.5,0,15.4,6.9,15.4,15.4v6.2c0,8.3,6.8,15.1,15.1,15.1c8.3,0,15.1-6.8,15.1-15.1v-37.9C341.6,323.5,340.7,322.6,339.6,322.6z"/>
<path class="st0" d="M357.6,306.4c-11,0-20,9-20,20c0,1.1,0.9,2,2,2c1.1,0,2-0.9,2-2c0-8.8,7.2-16,16-16s16,7.2,16,16v34.2
	c0,1.1,0.9,2,2,2c1.1,0,2-0.9,2-2v-34.2C377.5,315.4,368.6,306.4,357.6,306.4z"/>
<path class="st0" d="M404.6,376.5c-1.1,0-2,0.9-2,2c0,1.1,0.9,2,2,2c8.8,0,16,7.2,16,16v16.8c0,1.1,0.9,2,2,2c1.1,0,2-0.9,2-2v-16.8
	C424.6,385.5,415.6,376.5,404.6,376.5z"/>
<path class="st0" d="M404.6,376.5h-11.1c-8.8,0-16-7.2-16-16c0-1.1-0.9-2-2-2c-1.1,0-2,0.9-2,2c0,11,9,20,20,20h11.1
	c1.1,0,2-0.9,2-2C406.6,377.4,405.7,376.5,404.6,376.5z"/>
<path class="st1" d="M378.2,394.9H179c-4.6,0-8.4,3.8-8.4,8.4v82.9c0,4.6,3.8,8.4,8.4,8.4h199.1c4.6,0,8.4-3.8,8.4-8.4v-82.9
	C386.6,398.7,382.8,394.9,378.2,394.9z"/>
<path class="st2" d="M378.2,394.9H179c-4.6,0-8.4,3.8-8.4,8.4v76.1c0,4.6,3.8,8.4,8.4,8.4h199.1c4.6,0,8.4-3.8,8.4-8.4v-76.1
	C386.6,398.7,382.8,394.9,378.2,394.9z"/>
<path class="st0" d="M378.2,392.9H179c-5.8,0-10.4,4.7-10.4,10.4v82.9c0,5.8,4.7,10.4,10.4,10.4h199.1c5.8,0,10.4-4.7,10.4-10.4
	v-82.9C388.6,397.5,383.9,392.9,378.2,392.9z M384.6,486.2c0,3.5-2.9,6.4-6.4,6.4H179c-3.5,0-6.4-2.9-6.4-6.4v-82.9
	c0-3.5,2.9-6.4,6.4-6.4h199.1c3.5,0,6.4,2.9,6.4,6.4V486.2z"/>
<path class="st1" d="M192.2,409.4c-1.3,0-8.9,0-8.9,0s-1.3,0-2.5,0c-1.3,0-1.2,1.3-1.2,1.3v5.4v5.4c0,0,0,1.3,1.2,1.3
	c1.3,0,2.5,0,2.5,0s7.6,0,8.9,0c1.3,0,1.2-1.3,1.2-1.3v-5.4v-5.4C193.4,410.6,193.4,409.4,192.2,409.4z"/>
<path class="st1" d="M212.4,409.4c-1.3,0-8.9,0-8.9,0s-1.3,0-2.5,0c-1.3,0-1.2,1.3-1.2,1.3v5.4v5.4c0,0,0,1.3,1.2,1.3
	c1.3,0,2.5,0,2.5,0s7.6,0,8.9,0c1.3,0,1.2-1.3,1.2-1.3v-5.4v-5.4C213.6,410.6,213.6,409.4,212.4,409.4z"/>
<path class="st1" d="M232.6,409.4c-1.3,0-8.9,0-8.9,0s-1.3,0-2.5,0c-1.3,0-1.2,1.3-1.2,1.3v5.4v5.4c0,0,0,1.3,1.2,1.3
	c1.3,0,2.5,0,2.5,0s7.6,0,8.9,0c1.3,0,1.2-1.3,1.2-1.3v-5.4v-5.4C233.8,410.6,233.8,409.4,232.6,409.4z"/>
<path class="st1" d="M252.8,409.4c-1.3,0-8.9,0-8.9,0s-1.3,0-2.5,0c-1.3,0-1.2,1.3-1.2,1.3v5.4v5.4c0,0,0,1.3,1.2,1.3
	c1.3,0,2.5,0,2.5,0s7.6,0,8.9,0c1.3,0,1.2-1.3,1.2-1.3v-5.4v-5.4C254,410.6,254,409.4,252.8,409.4z"/>
<path class="st1" d="M273,409.4c-1.3,0-8.9,0-8.9,0s-1.3,0-2.5,0c-1.3,0-1.2,1.3-1.2,1.3v5.4v5.4c0,0,0,1.3,1.2,1.3
	c1.3,0,2.5,0,2.5,0s7.6,0,8.9,0c1.3,0,1.2-1.3,1.2-1.3v-5.4v-5.4C274.2,410.6,274.2,409.4,273,409.4z"/>
<path class="st1" d="M293.2,409.4c-1.3,0-8.9,0-8.9,0s-1.3,0-2.5,0c-1.3,0-1.2,1.3-1.2,1.3v5.4v5.4c0,0,0,1.3,1.2,1.3
	c1.3,0,2.5,0,2.5,0s7.6,0,8.9,0c1.3,0,1.2-1.3,1.2-1.3v-5.4v-5.4C294.4,410.6,294.4,409.4,293.2,409.4z"/>
<path class="st1" d="M313.4,409.4c-1.3,0-8.9,0-8.9,0s-1.3,0-2.5,0c-1.3,0-1.2,1.3-1.2,1.3v5.4v5.4c0,0,0,1.3,1.2,1.3
	c1.3,0,2.5,0,2.5,0s7.6,0,8.9,0c1.3,0,1.2-1.3,1.2-1.3v-5.4v-5.4C314.6,410.6,314.6,409.4,313.4,409.4z"/>
<path class="st1" d="M333.6,409.4c-1.3,0-8.9,0-8.9,0s-1.3,0-2.5,0c-1.3,0-1.2,1.3-1.2,1.3v5.4v5.4c0,0,0,1.3,1.2,1.3
	c1.3,0,2.5,0,2.5,0s7.6,0,8.9,0c1.3,0,1.2-1.3,1.2-1.3v-5.4v-5.4C334.8,410.6,334.8,409.4,333.6,409.4z"/>
<path class="st1" d="M353.8,409.4c-1.3,0-8.9,0-8.9,0s-1.3,0-2.5,0c-1.3,0-1.2,1.3-1.2,1.3v5.4v5.4c0,0,0,1.3,1.2,1.3
	c1.3,0,2.5,0,2.5,0s7.6,0,8.9,0c1.3,0,1.2-1.3,1.2-1.3v-5.4v-5.4C355,410.6,355,409.4,353.8,409.4z"/>
<path class="st1" d="M374,409.4c-1.3,0-8.9,0-8.9,0s-1.3,0-2.5,0c-1.3,0-1.2,1.3-1.2,1.3v5.4v5.4c0,0,0,1.3,1.2,1.3
	c1.3,0,2.5,0,2.5,0s7.6,0,8.9,0c1.3,0,1.2-1.3,1.2-1.3v-5.4v-5.4C375.2,410.6,375.2,409.4,374,409.4z"/>
<path class="st1" d="M192.2,427c-1.3,0-8.9,0-8.9,0s-1.3,0-2.5,0c-1.3,0-1.2,1.3-1.2,1.3v5.4v5.4c0,0,0,1.3,1.2,1.3
	c1.3,0,2.5,0,2.5,0s7.6,0,8.9,0c1.3,0,1.2-1.3,1.2-1.3v-5.4v-5.4C193.4,428.3,193.4,427,192.2,427z"/>
<path class="st1" d="M212.4,427c-1.3,0-8.9,0-8.9,0s-1.3,0-2.5,0c-1.3,0-1.2,1.3-1.2,1.3v5.4v5.4c0,0,0,1.3,1.2,1.3
	c1.3,0,2.5,0,2.5,0s7.6,0,8.9,0c1.3,0,1.2-1.3,1.2-1.3v-5.4v-5.4C213.6,428.3,213.6,427,212.4,427z"/>
<path class="st1" d="M232.6,427c-1.3,0-8.9,0-8.9,0s-1.3,0-2.5,0c-1.3,0-1.2,1.3-1.2,1.3v5.4v5.4c0,0,0,1.3,1.2,1.3
	c1.3,0,2.5,0,2.5,0s7.6,0,8.9,0c1.3,0,1.2-1.3,1.2-1.3v-5.4v-5.4C233.8,428.3,233.8,427,232.6,427z"/>
<path class="st1" d="M252.8,427c-1.3,0-8.9,0-8.9,0s-1.3,0-2.5,0c-1.3,0-1.2,1.3-1.2,1.3v5.4v5.4c0,0,0,1.3,1.2,1.3
	c1.3,0,2.5,0,2.5,0s7.6,0,8.9,0c1.3,0,1.2-1.3,1.2-1.3v-5.4v-5.4C254,428.3,254,427,252.8,427z"/>
<path class="st1" d="M273,427c-1.3,0-8.9,0-8.9,0s-1.3,0-2.5,0c-1.3,0-1.2,1.3-1.2,1.3v5.4v5.4c0,0,0,1.3,1.2,1.3c1.3,0,2.5,0,2.5,0
	s7.6,0,8.9,0c1.3,0,1.2-1.3,1.2-1.3v-5.4v-5.4C274.2,428.3,274.2,427,273,427z"/>
<path class="st1" d="M293.2,427c-1.3,0-8.9,0-8.9,0s-1.3,0-2.5,0c-1.3,0-1.2,1.3-1.2,1.3v5.4v5.4c0,0,0,1.3,1.2,1.3
	c1.3,0,2.5,0,2.5,0s7.6,0,8.9,0c1.3,0,1.2-1.3,1.2-1.3v-5.4v-5.4C294.4,428.3,294.4,427,293.2,427z"/>
<path class="st1" d="M313.4,427c-1.3,0-8.9,0-8.9,0s-1.3,0-2.5,0c-1.3,0-1.2,1.3-1.2,1.3v5.4v5.4c0,0,0,1.3,1.2,1.3
	c1.3,0,2.5,0,2.5,0s7.6,0,8.9,0c1.3,0,1.2-1.3,1.2-1.3v-5.4v-5.4C314.6,428.3,314.6,427,313.4,427z"/>
<path class="st1" d="M333.6,427c-1.3,0-8.9,0-8.9,0s-1.3,0-2.5,0c-1.3,0-1.2,1.3-1.2,1.3v5.4v5.4c0,0,0,1.3,1.2,1.3
	c1.3,0,2.5,0,2.5,0s7.6,0,8.9,0c1.3,0,1.2-1.3,1.2-1.3v-5.4v-5.4C334.8,428.3,334.8,427,333.6,427z"/>
<path class="st1" d="M353.8,427c-1.3,0-8.9,0-8.9,0s-1.3,0-2.5,0c-1.3,0-1.2,1.3-1.2,1.3v5.4v5.4c0,0,0,1.3,1.2,1.3
	c1.3,0,2.5,0,2.5,0s7.6,0,8.9,0c1.3,0,1.2-1.3,1.2-1.3v-5.4v-5.4C355,428.3,355,427,353.8,427z"/>
<path class="st1" d="M374,427c-1.3,0-8.9,0-8.9,0s-1.3,0-2.5,0c-1.3,0-1.2,1.3-1.2,1.3v5.4v5.4c0,0,0,1.3,1.2,1.3c1.3,0,2.5,0,2.5,0
	s7.6,0,8.9,0c1.3,0,1.2-1.3,1.2-1.3v-5.4v-5.4C375.2,428.3,375.2,427,374,427z"/>
<path class="st1" d="M192.2,444.3c-1.3,0-8.9,0-8.9,0s-1.3,0-2.5,0c-1.3,0-1.2,1.3-1.2,1.3v5.4v5.4c0,0,0,1.3,1.2,1.3
	c1.3,0,2.5,0,2.5,0s7.6,0,8.9,0c1.3,0,1.2-1.3,1.2-1.3V451v-5.4C193.4,445.6,193.4,444.3,192.2,444.3z"/>
<path class="st1" d="M212.4,444.3c-1.3,0-8.9,0-8.9,0s-1.3,0-2.5,0c-1.3,0-1.2,1.3-1.2,1.3v5.4v5.4c0,0,0,1.3,1.2,1.3
	c1.3,0,2.5,0,2.5,0s7.6,0,8.9,0c1.3,0,1.2-1.3,1.2-1.3V451v-5.4C213.6,445.6,213.6,444.3,212.4,444.3z"/>
<path class="st1" d="M232.6,444.3c-1.3,0-8.9,0-8.9,0s-1.3,0-2.5,0c-1.3,0-1.2,1.3-1.2,1.3v5.4v5.4c0,0,0,1.3,1.2,1.3
	c1.3,0,2.5,0,2.5,0s7.6,0,8.9,0c1.3,0,1.2-1.3,1.2-1.3V451v-5.4C233.8,445.6,233.8,444.3,232.6,444.3z"/>
<path class="st1" d="M252.8,444.3c-1.3,0-8.9,0-8.9,0s-1.3,0-2.5,0c-1.3,0-1.2,1.3-1.2,1.3v5.4v5.4c0,0,0,1.3,1.2,1.3
	c1.3,0,2.5,0,2.5,0s7.6,0,8.9,0c1.3,0,1.2-1.3,1.2-1.3V451v-5.4C254,445.6,254,444.3,252.8,444.3z"/>
<path class="st1" d="M273,444.3c-1.3,0-8.9,0-8.9,0s-1.3,0-2.5,0c-1.3,0-1.2,1.3-1.2,1.3v5.4v5.4c0,0,0,1.3,1.2,1.3
	c1.3,0,2.5,0,2.5,0s7.6,0,8.9,0c1.3,0,1.2-1.3,1.2-1.3V451v-5.4C274.2,445.6,274.2,444.3,273,444.3z"/>
<path class="st1" d="M293.2,444.3c-1.3,0-8.9,0-8.9,0s-1.3,0-2.5,0c-1.3,0-1.2,1.3-1.2,1.3v5.4v5.4c0,0,0,1.3,1.2,1.3
	c1.3,0,2.5,0,2.5,0s7.6,0,8.9,0c1.3,0,1.2-1.3,1.2-1.3V451v-5.4C294.4,445.6,294.4,444.3,293.2,444.3z"/>
<path class="st1" d="M313.4,444.3c-1.3,0-8.9,0-8.9,0s-1.3,0-2.5,0c-1.3,0-1.2,1.3-1.2,1.3v5.4v5.4c0,0,0,1.3,1.2,1.3
	c1.3,0,2.5,0,2.5,0s7.6,0,8.9,0c1.3,0,1.2-1.3,1.2-1.3V451v-5.4C314.6,445.6,314.6,444.3,313.4,444.3z"/>
<path class="st1" d="M333.6,444.3c-1.3,0-8.9,0-8.9,0s-1.3,0-2.5,0c-1.3,0-1.2,1.3-1.2,1.3v5.4v5.4c0,0,0,1.3,1.2,1.3
	c1.3,0,2.5,0,2.5,0s7.6,0,8.9,0c1.3,0,1.2-1.3,1.2-1.3V451v-5.4C334.8,445.6,334.8,444.3,333.6,444.3z"/>
<path class="st1" d="M353.8,444.3c-1.3,0-8.9,0-8.9,0s-1.3,0-2.5,0c-1.3,0-1.2,1.3-1.2,1.3v5.4v5.4c0,0,0,1.3,1.2,1.3
	c1.3,0,2.5,0,2.5,0s7.6,0,8.9,0c1.3,0,1.2-1.3,1.2-1.3V451v-5.4C355,445.6,355,444.3,353.8,444.3z"/>
<path class="st1" d="M374,444.3c-1.3,0-8.9,0-8.9,0s-1.3,0-2.5,0c-1.3,0-1.2,1.3-1.2,1.3v5.4v5.4c0,0,0,1.3,1.2,1.3
	c1.3,0,2.5,0,2.5,0s7.6,0,8.9,0c1.3,0,1.2-1.3,1.2-1.3V451v-5.4C375.2,445.6,375.2,444.3,374,444.3z"/>
<path class="st1" d="M192.2,461.6c-1.3,0-8.9,0-8.9,0s-1.3,0-2.5,0c-1.3,0-1.2,1.3-1.2,1.3v5.4v5.4c0,0,0,1.3,1.2,1.3
	c1.3,0,2.5,0,2.5,0s7.6,0,8.9,0c1.3,0,1.2-1.3,1.2-1.3v-5.4v-5.4C193.4,462.9,193.4,461.6,192.2,461.6z"/>
<path class="st1" d="M212.4,461.6c-1.3,0-8.9,0-8.9,0s-1.3,0-2.5,0c-1.3,0-1.2,1.3-1.2,1.3v5.4v5.4c0,0,0,1.3,1.2,1.3
	c1.3,0,2.5,0,2.5,0s7.6,0,8.9,0c1.3,0,1.2-1.3,1.2-1.3v-5.4v-5.4C213.6,462.9,213.6,461.6,212.4,461.6z"/>
<path class="st1" d="M232.6,461.6c-1.3,0-8.9,0-8.9,0s-1.3,0-2.5,0c-1.3,0-1.2,1.3-1.2,1.3v5.4v5.4c0,0,0,1.3,1.2,1.3
	c1.3,0,2.5,0,2.5,0s7.6,0,8.9,0c1.3,0,1.2-1.3,1.2-1.3v-5.4v-5.4C233.8,462.9,233.8,461.6,232.6,461.6z"/>
<path class="st1" d="M313.4,461.6c-1.3,0-69.5,0-69.5,0s-1.3,0-2.5,0c-1.3,0-1.2,1.3-1.2,1.3v5.4v5.4c0,0,0,1.3,1.2,1.3
	c1.3,0,2.5,0,2.5,0s68.3,0,69.5,0c1.3,0,1.2-1.3,1.2-1.3v-5.4v-5.4C314.6,462.9,314.6,461.6,313.4,461.6z"/>
<path class="st1" d="M333.6,461.6c-1.3,0-8.9,0-8.9,0s-1.3,0-2.5,0c-1.3,0-1.2,1.3-1.2,1.3v5.4v5.4c0,0,0,1.3,1.2,1.3
	c1.3,0,2.5,0,2.5,0s7.6,0,8.9,0c1.3,0,1.2-1.3,1.2-1.3v-5.4v-5.4C334.8,462.9,334.8,461.6,333.6,461.6z"/>
<path class="st1" d="M353.8,461.6c-1.3,0-8.9,0-8.9,0s-1.3,0-2.5,0c-1.3,0-1.2,1.3-1.2,1.3v5.4v5.4c0,0,0,1.3,1.2,1.3
	c1.3,0,2.5,0,2.5,0s7.6,0,8.9,0c1.3,0,1.2-1.3,1.2-1.3v-5.4v-5.4C355,462.9,355,461.6,353.8,461.6z"/>
<path class="st1" d="M374,461.6c-1.3,0-8.9,0-8.9,0s-1.3,0-2.5,0c-1.3,0-1.2,1.3-1.2,1.3v5.4v5.4c0,0,0,1.3,1.2,1.3
	c1.3,0,2.5,0,2.5,0s7.6,0,8.9,0c1.3,0,1.2-1.3,1.2-1.3v-5.4v-5.4C375.2,462.9,375.2,461.6,374,461.6z"/>
<path class="st1" d="M422.6,413.4c-11,0-20,9.8-20,21.8v21.1c0,12,9,21.8,20,21.8c11,0,20-9.8,20-21.8v-21.1
	C442.6,423.2,433.6,413.4,422.6,413.4z"/>
<path class="st2" d="M422.6,413.4c-11,0-20,9.8-20,21.8v14.4c0,12,9,21.8,20,21.8c11,0,20-9.8,20-21.8v-14.4
	C442.6,423.2,433.6,413.4,422.6,413.4z"/>
<ellipse class="st1" cx="422.6" cy="430.3" rx="3.4" ry="3.8"/>
<path class="st0" d="M422.6,411.4c-12.2,0-22,10.7-22,23.8v21.1c0,13.1,9.9,23.8,22,23.8c12.2,0,22-10.7,22-23.8v-21.1
	C444.6,422,434.7,411.4,422.6,411.4z M440.6,456.3c0,10.9-8.1,19.8-18,19.8c-9.9,0-18-8.9-18-19.8v-21.1c0-10.9,8.1-19.8,18-19.8
	c9.9,0,18,8.9,18,19.8V456.3z"/>
<g>
	<path d="M214.6,345.3c-1.1,0-2,0.9-2,2v5.4c0,1.1,0.9,2,2,2c1.1,0,2-0.9,2-2v-5.4C216.6,346.2,215.7,345.3,214.6,345.3z"/>
	<path d="M214.6,366.5c-1.1,0-2,0.9-2,2v5.4c0,1.1,0.9,2,2,2c1.1,0,2-0.9,2-2v-5.4C216.6,367.4,215.7,366.5,214.6,366.5z"/>
	<path d="M227.8,358.6h-5.4c-1.1,0-2,0.9-2,2c0,1.1,0.9,2,2,2h5.4c1.1,0,2-0.9,2-2C229.8,359.5,228.9,358.6,227.8,358.6z"/>
	<path d="M206.6,358.6h-5.4c-1.1,0-2,0.9-2,2c0,1.1,0.9,2,2,2h5.4c1.1,0,2-0.9,2-2C208.6,359.5,207.7,358.6,206.6,358.6z"/>
</g>
<g>
	<path d="M258.1,370c-1.1,0-2,0.9-2,2v2.7c0,1.1,0.9,2,2,2c1.1,0,2-0.9,2-2V372C260.1,370.9,259.2,370,258.1,370z"/>
	<path d="M258.1,380.5c-1.1,0-2,0.9-2,2v2.7c0,1.1,0.9,2,2,2c1.1,0,2-0.9,2-2v-2.7C260.1,381.4,259.2,380.5,258.1,380.5z"/>
	<path d="M264.6,376.5H262c-1.1,0-2,0.9-2,2c0,1.1,0.9,2,2,2h2.7c1.1,0,2-0.9,2-2C266.6,377.4,265.7,376.5,264.6,376.5z"/>
	<path d="M254.1,376.5h-2.7c-1.1,0-2,0.9-2,2c0,1.1,0.9,2,2,2h2.7c1.1,0,2-0.9,2-2C256.1,377.4,255.2,376.5,254.1,376.5z"/>
</g>
<g>
	<path d="M271.2,296c-1.1,0-2,0.9-2,2v4.2c0,1.1,0.9,2,2,2c1.1,0,2-0.9,2-2V298C273.2,296.9,272.3,296,271.2,296z"/>
	<path d="M271.2,312.5c-1.1,0-2,0.9-2,2v4.2c0,1.1,0.9,2,2,2c1.1,0,2-0.9,2-2v-4.2C273.2,313.4,272.3,312.5,271.2,312.5z"/>
	<path d="M281.5,306.3h-4.2c-1.1,0-2,0.9-2,2c0,1.1,0.9,2,2,2h4.2c1.1,0,2-0.9,2-2C283.5,307.2,282.6,306.3,281.5,306.3z"/>
	<path d="M265.1,306.3h-4.2c-1.1,0-2,0.9-2,2c0,1.1,0.9,2,2,2h4.2c1.1,0,2-0.9,2-2C267.1,307.2,266.2,306.3,265.1,306.3z"/>
</g>
<g>
	<path d="M357.7,363.3c-1.1,0-2,0.9-2,2v3.4c0,1.1,0.9,2,2,2s2-0.9,2-2v-3.4C359.7,364.2,358.8,363.3,357.7,363.3z"/>
	<path d="M357.7,376.7c-1.1,0-2,0.9-2,2v3.4c0,1.1,0.9,2,2,2s2-0.9,2-2v-3.4C359.7,377.6,358.8,376.7,357.7,376.7z"/>
	<path d="M366.1,371.7h-3.4c-1.1,0-2,0.9-2,2s0.9,2,2,2h3.4c1.1,0,2-0.9,2-2S367.2,371.7,366.1,371.7z"/>
	<path d="M352.7,371.7h-3.4c-1.1,0-2,0.9-2,2s0.9,2,2,2h3.4c1.1,0,2-0.9,2-2S353.8,371.7,352.7,371.7z"/>
</g>
</svg>
